<?xml version="1.0" standalone="no"?>
<!DOCTYPE svg PUBLIC "-//W3C//DTD SVG 1.1//EN" "http://www.w3.org/Graphics/SVG/1.1/DTD/svg11.dtd" >
<svg xmlns="http://www.w3.org/2000/svg" xmlns:xlink="http://www.w3.org/1999/xlink" version="1.1">
<metadata>
Created by FontForge 20170910 at Thu Mar  6 02:26:50 2014
 By Jimmy Wärting
Copyright (C) 2006, 2010 Hoefler &#38; Co. http://www.typography.com
</metadata>
<defs>
<font id="Forza-Light" horiz-adv-x="593" >
  <font-face 
    font-family="Forza Light"
    font-weight="300"
    font-stretch="normal"
    units-per-em="1000"
    panose-1="0 0 0 0 0 0 0 0 0 0"
    ascent="800"
    descent="-200"
    x-height="531"
    cap-height="700"
    bbox="-35 -284 1000 1038"
    underline-thickness="50"
    underline-position="-100"
    stemh="45"
    stemv="50"
    unicode-range="U+0020-FB04"
  />
<missing-glyph horiz-adv-x="500" 
d="M0 -200v1000h500v-1000h-500zM71 750l179 -390l179 390h-358zM50 -76l172 376l-172 376v-752zM450 676l-172 -376l172 -376v752zM250 240l-179 -390h358z" />
    <glyph glyph-name="fi" unicode="fi" horiz-adv-x="576" 
d="M489 730v-83h-64v83h64zM482 531v-531h-50v531h50zM183 0h-50v488h-95v43h95v49c0 64 9 95 27 114c19 19 38 26 77 26h70v-43h-62c-29 0 -38 -4 -47 -13c-11 -11 -16 -31 -16 -83v-50h122v-43h-121v-488z" />
    <glyph glyph-name="fl" unicode="fl" horiz-adv-x="576" 
d="M482 0h-50v720h50v-720zM183 0h-50v488h-95v43h95v49c0 64 9 95 27 114c19 19 38 26 77 26h70v-43h-62c-29 0 -38 -4 -47 -13c-11 -11 -16 -31 -16 -83v-50h122v-43h-121v-488z" />
    <glyph glyph-name="f_f" unicode="ff" horiz-adv-x="679" 
d="M183 0h-50v488h-95v43h95v49c0 64 9 95 27 114c19 19 38 26 77 26h70v-43h-62c-29 0 -38 -4 -47 -13c-11 -11 -16 -31 -16 -83v-50h122v-43h-121v-488zM522 0h-50v488h-95v43h95v49c0 64 9 95 27 114c19 19 38 26 77 26h70v-43h-62c-29 0 -38 -4 -47 -13
c-11 -11 -16 -31 -16 -83v-50h122v-43h-121v-488z" />
    <glyph glyph-name="f_f_i" unicode="ffi" horiz-adv-x="916" 
d="M828 730v-83h-64v83h64zM821 531v-531h-50v531h50zM183 0h-50v488h-95v43h95v49c0 64 9 95 27 114c19 19 38 26 77 26h70v-43h-62c-29 0 -38 -4 -47 -13c-11 -11 -16 -31 -16 -83v-50h122v-43h-121v-488zM522 0h-50v488h-95v43h95v49c0 64 9 95 27 114c19 19 38 26 77 26
h70v-43h-62c-29 0 -38 -4 -47 -13c-11 -11 -16 -31 -16 -83v-50h122v-43h-121v-488z" />
    <glyph glyph-name="f_f_l" unicode="ffl" horiz-adv-x="916" 
d="M821 0h-50v720h50v-720zM183 0h-50v488h-95v43h95v49c0 64 9 95 27 114c19 19 38 26 77 26h70v-43h-62c-29 0 -38 -4 -47 -13c-11 -11 -16 -31 -16 -83v-50h122v-43h-121v-488zM522 0h-50v488h-95v43h95v49c0 64 9 95 27 114c19 19 38 26 77 26h70v-43h-62
c-29 0 -38 -4 -47 -13c-11 -11 -16 -31 -16 -83v-50h122v-43h-121v-488z" />
    <glyph glyph-name=".notdef" horiz-adv-x="500" 
d="M0 -200v1000h500v-1000h-500zM71 750l179 -390l179 390h-358zM50 -76l172 376l-172 376v-752zM450 676l-172 -376l172 -376v752zM250 240l-179 -390h358z" />
    <glyph glyph-name="A" unicode="A" horiz-adv-x="641" 
d="M552 0l-76 227h-313l-76 -227h-53l231 678c7 20 13 25 38 25h35c25 0 31 -5 38 -25l232 -678h-56zM307 656l-129 -384h282l-129 384h-24z" />
    <glyph glyph-name="B" unicode="B" horiz-adv-x="680" 
d="M106 0v700h337c53 0 85 -7 108 -30c27 -27 42 -61 42 -149c0 -100 -34 -138 -92 -156v-1c72 -16 98 -60 98 -170c0 -109 -18 -139 -43 -164c-23 -22 -57 -30 -108 -30h-342zM158 386h276c42 0 62 8 77 23c14 14 30 40 30 113c0 72 -14 100 -29 114c-15 15 -37 19 -75 19
h-279v-269zM547 193c0 78 -12 107 -29 124s-37 24 -77 24h-283v-296h285c38 0 60 4 75 19c14 14 29 37 29 129z" />
    <glyph glyph-name="C" unicode="C" horiz-adv-x="684" 
d="M616 219c-5 -127 -19 -163 -48 -191c-20 -20 -45 -28 -107 -28h-216c-62 0 -87 8 -107 28c-35 34 -54 84 -54 322s19 288 54 322c20 20 45 28 107 28h216c62 0 87 -8 107 -28c28 -27 42 -65 47 -180h-50c-5 101 -17 128 -33 143c-12 13 -27 20 -75 20h-208
c-49 0 -63 -7 -75 -20c-21 -20 -38 -60 -38 -285s17 -265 38 -285c12 -13 26 -20 75 -20h208c48 0 63 7 75 20c16 15 29 42 33 154h51z" />
    <glyph glyph-name="D" unicode="D" horiz-adv-x="712" 
d="M106 700h325c67 0 103 -12 131 -39c40 -39 68 -110 68 -311s-28 -272 -68 -311c-28 -27 -64 -39 -131 -39h-325v700zM578 350c0 187 -26 249 -54 277c-21 20 -42 28 -93 28h-273v-610h273c51 0 73 8 93 28c28 28 54 90 54 277z" />
    <glyph glyph-name="E" unicode="E" horiz-adv-x="614" 
d="M554 45v-45h-448v700h453v-45h-401v-268h353v-45h-353v-297h396z" />
    <glyph glyph-name="F" unicode="F" horiz-adv-x="573" 
d="M534 655h-376v-280h322v-45h-322v-330h-52v700h428v-45z" />
    <glyph glyph-name="G" unicode="G" horiz-adv-x="700" 
d="M243 700h217c62 0 87 -8 107 -28c35 -34 45 -80 48 -178h-51c-3 83 -11 121 -32 142c-13 12 -27 19 -75 19h-210c-49 0 -63 -7 -76 -20c-20 -20 -35 -60 -35 -285s15 -265 35 -285c13 -13 27 -20 76 -20h210c48 0 62 7 75 20c20 20 34 48 34 221v12h-212v45h264v-29
c0 -215 -16 -252 -51 -286c-20 -20 -45 -28 -107 -28h-217c-62 0 -87 8 -107 28c-35 34 -52 84 -52 322s17 288 52 322c20 20 46 28 107 28z" />
    <glyph glyph-name="H" unicode="H" horiz-adv-x="746" 
d="M640 700v-700h-52v341h-430v-341h-52v700h52v-313h430v313h52z" />
    <glyph glyph-name="I" unicode="I" horiz-adv-x="267" 
d="M160 0h-53v700h53v-700z" />
    <glyph glyph-name="J" unicode="J" horiz-adv-x="564" 
d="M93 216c3 -90 11 -129 32 -150c13 -13 28 -21 76 -21h91c60 0 77 8 90 21c22 21 35 65 35 212v422h52v-420c0 -163 -16 -215 -50 -249c-22 -23 -54 -32 -123 -32h-98c-59 0 -89 9 -110 30c-32 33 -42 80 -46 187h51z" />
    <glyph glyph-name="K" unicode="K" horiz-adv-x="628" 
d="M534 700h64l-307 -334l313 -366h-64l-290 341h-92v-341h-52v700h52v-314h89z" />
    <glyph glyph-name="L" unicode="L" horiz-adv-x="561" 
d="M158 700v-655h369v-45h-421v700h52z" />
    <glyph glyph-name="M" unicode="M" horiz-adv-x="878" 
d="M772 700v-700h-53v650h-10l-229 -627c-7 -19 -11 -23 -29 -23h-26c-18 0 -22 4 -29 23l-229 630h-10v-653h-51v700h76c19 0 25 -5 30 -22l223 -618h9l222 618c6 17 11 22 30 22h76z" />
    <glyph glyph-name="N" unicode="N" horiz-adv-x="730" 
d="M624 700v-701h-54c-21 0 -30 6 -39 24l-364 615h-11v-638h-50v700h56c22 0 30 -5 40 -24l361 -608h10v632h51z" />
    <glyph glyph-name="O" unicode="O" horiz-adv-x="717" 
d="M245 700h228c61 0 86 -8 107 -28c34 -34 53 -84 53 -322s-19 -288 -53 -322c-21 -20 -46 -28 -107 -28h-228c-62 0 -87 8 -107 28c-35 34 -54 84 -54 322s19 288 54 322c20 20 45 28 107 28zM136 350c0 -225 17 -265 38 -285c12 -13 26 -20 75 -20h220c48 0 63 7 75 20
c20 20 36 60 36 285s-16 265 -36 285c-12 13 -27 20 -75 20h-220c-49 0 -63 -7 -75 -20c-21 -20 -38 -60 -38 -285z" />
    <glyph glyph-name="P" unicode="P" horiz-adv-x="635" 
d="M158 339h260c39 0 62 5 76 20c16 14 32 41 32 138s-16 124 -32 138c-14 15 -37 20 -76 20h-260v-316zM579 496c0 -111 -19 -146 -46 -173c-23 -22 -55 -29 -107 -29h-268v-294h-52v700h320c52 0 84 -7 107 -29c27 -27 46 -62 46 -175z" />
    <glyph glyph-name="Q" unicode="Q" horiz-adv-x="717" 
d="M506 -108h-53l-41 108h-167c-62 0 -87 8 -107 28c-35 34 -54 84 -54 322s19 288 54 322c20 20 45 28 107 28h228c61 0 86 -8 107 -28c34 -34 53 -84 53 -322s-19 -288 -53 -322c-21 -20 -46 -28 -107 -28h-10zM136 350c0 -225 17 -265 38 -285c12 -13 26 -20 75 -20h145
l-58 144h52l57 -144h24c48 0 63 7 75 20c20 20 36 60 36 285s-16 265 -36 285c-12 13 -27 20 -75 20h-220c-49 0 -63 -7 -75 -20c-21 -20 -38 -60 -38 -285z" />
    <glyph glyph-name="R" unicode="R" horiz-adv-x="685" 
d="M158 361h272c42 0 61 8 75 23c14 14 33 39 33 124c0 87 -17 113 -32 128c-14 14 -36 19 -74 19h-274v-294zM533 177c-3 81 -12 102 -27 117c-16 15 -38 22 -83 22h-265v-316h-52v700h336c51 0 82 -7 104 -30c27 -27 44 -60 44 -160c0 -120 -35 -155 -96 -172v-1
c65 -17 87 -38 91 -158c3 -71 7 -135 13 -179h-52c-7 47 -11 112 -13 177z" />
    <glyph glyph-name="S" unicode="S" horiz-adv-x="677" 
d="M595 185c0 -90 -12 -127 -40 -155c-19 -19 -46 -30 -98 -30h-241c-49 0 -77 8 -98 28c-25 26 -36 49 -36 176h51c1 -108 8 -125 23 -140c14 -14 31 -19 65 -19h231c36 0 53 6 68 20c16 16 23 46 23 120c0 76 -4 95 -22 112c-13 13 -28 18 -75 23l-218 20
c-57 5 -86 16 -104 34c-22 22 -32 53 -32 142c0 82 11 125 40 154c19 19 46 30 97 30h219c49 0 77 -8 98 -28c27 -28 35 -56 36 -170h-51c-1 95 -7 118 -23 134c-14 14 -31 19 -65 19h-208c-36 0 -53 -6 -67 -20c-18 -18 -24 -52 -24 -118c0 -73 6 -91 22 -107
c13 -13 28 -17 75 -22l218 -20c57 -5 85 -16 104 -34c23 -24 32 -58 32 -149z" />
    <glyph glyph-name="T" unicode="T" horiz-adv-x="565" 
d="M543 655h-235v-655h-52v655h-234v45h521v-45z" />
    <glyph glyph-name="U" unicode="U" horiz-adv-x="733" 
d="M628 700v-419c0 -163 -15 -215 -49 -249c-23 -23 -54 -32 -123 -32h-179c-69 0 -100 10 -122 32c-35 34 -49 85 -49 249v419h52v-426c0 -146 14 -186 35 -207c13 -13 30 -21 90 -21h168c60 0 77 7 90 21c22 21 34 61 34 207v426h53z" />
    <glyph glyph-name="V" unicode="V" horiz-adv-x="632" 
d="M598 700l-227 -679c-7 -19 -13 -25 -38 -25h-34c-25 0 -31 6 -38 25l-226 679h55l215 -653h25l214 653h54z" />
    <glyph glyph-name="W" unicode="W" horiz-adv-x="940" 
d="M897 700l-161 -680c-4 -18 -12 -24 -38 -24h-24c-26 0 -34 5 -38 25l-157 622h-17l-157 -622c-5 -20 -13 -25 -38 -25h-24c-26 0 -35 5 -39 24l-161 680h55l148 -645h18l157 622c5 21 14 26 40 26h21c26 0 34 -5 39 -26l157 -622h18l148 645h53z" />
    <glyph glyph-name="X" unicode="X" horiz-adv-x="610" 
d="M523 0l-215 315h-8l-215 -315h-56l243 357l-238 343h61l209 -301h7l208 301h58l-238 -343l244 -357h-60z" />
    <glyph glyph-name="Y" unicode="Y" horiz-adv-x="574" 
d="M555 700l-242 -423v-277h-52v276l-242 424h57l209 -367h6l208 367h56z" />
    <glyph glyph-name="Z" unicode="Z" horiz-adv-x="612" 
d="M559 45v-45h-507v34l445 621h-425v45h492v-34l-445 -621h440z" />
    <glyph glyph-name="a" unicode="a" horiz-adv-x="571" 
d="M89 377c1 72 12 102 36 125c23 23 50 29 105 29h126c57 0 79 -8 98 -26c22 -22 26 -54 26 -105v-400h-50v70c-66 -53 -94 -71 -157 -71h-74c-47 0 -80 10 -102 31c-19 20 -32 46 -32 114c0 66 13 98 33 119c22 21 55 34 135 34c48 0 124 -3 197 -9v109c0 46 -5 65 -17 77
c-10 10 -23 15 -64 15h-110c-42 0 -62 -4 -78 -19c-16 -16 -22 -39 -23 -93h-49zM280 42c56 0 86 14 150 60v155h-201c-58 0 -76 -6 -92 -22c-16 -17 -22 -35 -22 -86c0 -53 7 -73 21 -87c16 -15 35 -20 71 -20h73z" />
    <glyph glyph-name="b" unicode="b" 
d="M93 0v720h50v-265c73 58 102 77 166 77h55c62 0 93 -10 116 -33c33 -34 42 -77 42 -233c0 -157 -9 -200 -42 -233c-23 -23 -54 -34 -116 -34h-55c-64 0 -93 18 -166 77v-76h-50zM299 488c-57 0 -90 -18 -156 -66v-312c67 -48 99 -67 157 -67h57c50 0 70 8 85 24
c23 23 30 58 30 199s-7 176 -30 199c-15 15 -35 23 -85 23h-58z" />
    <glyph glyph-name="c" unicode="c" horiz-adv-x="549" 
d="M442 169h49c-4 -86 -15 -116 -40 -141c-22 -22 -47 -28 -101 -28h-122c-55 0 -86 6 -109 30c-34 33 -48 77 -48 236s14 202 48 236c23 23 54 29 109 29h122c55 0 79 -5 101 -27c24 -25 34 -57 39 -137h-49c-5 67 -11 87 -26 101c-15 16 -31 19 -72 19h-111
c-44 0 -63 -4 -79 -20c-21 -21 -32 -51 -32 -201c0 -151 11 -181 32 -202c16 -16 35 -20 79 -20h111c41 0 57 3 73 19c15 15 22 38 26 106z" />
    <glyph glyph-name="d" unicode="d" horiz-adv-x="595" 
d="M502 0h-50v76c-73 -59 -103 -77 -166 -77h-57c-62 0 -93 11 -116 34c-33 33 -42 76 -42 233c0 156 9 199 42 233c23 23 54 33 116 33h57c64 0 92 -19 166 -77v265h50v-720zM296 43c57 0 88 18 156 67v312c-67 47 -98 66 -155 66h-61c-50 0 -69 -9 -85 -24
c-23 -23 -30 -57 -30 -198s7 -176 30 -198c16 -16 35 -25 85 -25h60z" />
    <glyph glyph-name="e" unicode="e" horiz-adv-x="577" 
d="M495 250h-374c1 -136 12 -167 32 -186c16 -16 34 -21 78 -21h128c42 0 60 5 75 21c16 15 23 37 24 97h49c-3 -81 -12 -108 -37 -133c-22 -22 -50 -28 -105 -28h-137c-56 0 -87 6 -110 30c-34 33 -47 77 -47 236s13 202 47 236c23 23 54 29 110 29h122c56 0 87 -6 110 -29
c34 -33 47 -78 47 -230v-10c0 -8 -3 -12 -12 -12zM152 468c-19 -20 -30 -50 -31 -178h336c-1 126 -11 157 -31 178c-16 15 -35 20 -79 20h-116c-44 0 -63 -5 -79 -20z" />
    <glyph glyph-name="f" unicode="f" horiz-adv-x="339" 
d="M183 0h-50v488h-95v43h95v49c0 64 9 95 27 114c19 19 38 26 77 26h70v-43h-62c-29 0 -38 -4 -47 -13c-11 -11 -16 -31 -16 -83v-50h122v-43h-121v-488z" />
    <glyph glyph-name="g" unicode="g" horiz-adv-x="594" 
d="M382 -150h-185c-46 0 -69 10 -84 25c-22 22 -29 42 -30 102h50c2 -44 6 -56 20 -70c9 -9 22 -15 56 -15h167c28 0 42 5 53 16c12 12 21 26 21 89v116c-72 -58 -102 -76 -165 -76h-55c-63 0 -94 11 -117 34c-33 33 -41 78 -41 214s8 180 41 214c23 23 54 33 117 33h55
c63 0 93 -19 165 -76v75h50v-530c0 -76 -11 -103 -34 -126c-17 -17 -40 -25 -84 -25zM296 81c56 0 88 19 154 65v277c-67 47 -98 66 -155 66h-58c-51 0 -70 -9 -86 -25c-22 -23 -29 -56 -29 -179c0 -124 7 -156 29 -179c16 -16 35 -25 86 -25h59z" />
    <glyph glyph-name="h" unicode="h" 
d="M143 0h-50v720h50v-265c73 58 101 77 166 77h73c52 0 73 -7 92 -26c21 -21 27 -52 27 -94v-412h-50v408c0 34 -5 51 -18 64c-11 11 -23 16 -65 16h-70c-54 0 -84 -14 -155 -66v-422z" />
    <glyph glyph-name="i" unicode="i" horiz-adv-x="237" 
d="M150 730v-83h-64v83h64zM143 531v-531h-50v531h50z" />
    <glyph glyph-name="j" unicode="j" horiz-adv-x="246" 
d="M102 531v-566c0 -31 -4 -48 -14 -58c-9 -9 -19 -14 -52 -14h-40v-39c16 -4 34 -5 48 -5c37 0 62 6 82 25c20 20 26 45 26 98v559h-50zM159 730v-83h-64v83h64z" />
    <glyph glyph-name="k" unicode="k" horiz-adv-x="512" 
d="M143 0h-50v720h50v-432h67l213 243h61l-231 -262l241 -269h-65l-218 245h-68v-245z" />
    <glyph glyph-name="l" unicode="l" horiz-adv-x="237" 
d="M143 0h-50v720h50v-720z" />
    <glyph glyph-name="m" unicode="m" horiz-adv-x="909" 
d="M93 531h50v-76c73 58 101 77 166 77h52c52 0 73 -7 93 -26c13 -14 20 -31 23 -53c75 60 102 79 169 79h52c52 0 73 -7 92 -26c20 -21 26 -52 26 -94v-412h-50v408c0 34 -4 51 -17 64c-11 11 -23 16 -65 16h-49c-54 0 -84 -14 -155 -65v-11v-412h-50v408
c0 34 -5 51 -18 64c-11 11 -22 16 -64 16h-50c-54 0 -84 -14 -155 -66v-422h-50v531z" />
    <glyph glyph-name="n" unicode="n" 
d="M143 0h-50v531h50v-76c73 58 101 77 166 77h73c52 0 73 -7 92 -26c21 -21 27 -52 27 -94v-412h-50v408c0 34 -5 51 -18 64c-11 11 -23 16 -65 16h-70c-54 0 -84 -14 -155 -66v-422z" />
    <glyph glyph-name="o" unicode="o" horiz-adv-x="581" 
d="M228 0c-55 0 -86 6 -109 30c-34 33 -48 77 -48 236s14 202 48 236c23 23 54 29 109 29h125c56 0 86 -6 110 -29c33 -34 47 -77 47 -236s-14 -203 -47 -236c-24 -24 -54 -30 -110 -30h-125zM121 266c0 -151 11 -181 32 -202c16 -16 35 -20 79 -20h117c44 0 64 4 79 20
c21 21 32 51 32 202c0 150 -11 180 -32 201c-15 16 -35 20 -79 20h-117c-44 0 -63 -4 -79 -20c-21 -21 -32 -51 -32 -201z" />
    <glyph glyph-name="p" unicode="p" 
d="M93 531h50v-76c73 58 102 77 166 77h55c62 0 93 -10 116 -33c33 -34 42 -77 42 -233c0 -157 -9 -200 -42 -233c-23 -23 -54 -34 -116 -34h-55c-64 0 -93 18 -166 77v-226h-50v681zM298 488c-57 0 -90 -19 -155 -66v-312c66 -48 99 -67 156 -67h58c50 0 69 9 85 25
c23 22 30 57 30 198s-7 175 -30 198c-16 15 -35 24 -85 24h-59z" />
    <glyph glyph-name="q" unicode="q" 
d="M500 531v-681h-50v227c-74 -60 -102 -78 -166 -78h-55c-62 0 -93 11 -116 34c-33 33 -42 76 -42 233c0 156 9 199 42 233c23 23 54 33 116 33h55c64 0 92 -19 166 -77v76h50zM294 43c56 0 89 18 156 67v312c-67 47 -98 66 -155 66h-59c-50 0 -69 -9 -85 -24
c-23 -23 -30 -57 -30 -198s7 -176 30 -198c16 -16 35 -25 85 -25h58z" />
    <glyph glyph-name="r" unicode="r" horiz-adv-x="379" 
d="M143 0h-50v531h50v-92c75 78 95 93 142 93h64v-51h-68c-40 0 -66 -10 -138 -73v-408z" />
    <glyph glyph-name="s" unicode="s" horiz-adv-x="551" 
d="M482 145c0 -69 -11 -99 -33 -121c-17 -17 -40 -24 -78 -24h-187c-43 0 -69 9 -84 24c-22 22 -30 42 -30 132h47c1 -73 6 -86 19 -99c9 -8 22 -15 54 -15h173c26 0 40 6 50 16c12 11 21 26 21 86c0 55 -7 69 -15 77c-9 9 -21 15 -64 18l-160 15c-54 5 -77 13 -92 28
c-17 17 -26 41 -26 107s11 96 33 118c17 17 39 24 78 24h176c45 0 68 -9 82 -23c20 -20 30 -43 31 -128h-47c-1 68 -7 81 -20 94c-8 8 -22 15 -54 15h-161c-25 0 -38 -5 -49 -16c-12 -11 -21 -26 -21 -82c0 -50 5 -63 14 -73c10 -9 21 -15 66 -19l160 -14
c54 -5 77 -14 91 -28c20 -19 26 -46 26 -112z" />
    <glyph glyph-name="t" unicode="t" horiz-adv-x="368" 
d="M329 42v-31l-37 -8c-21 -4 -44 -7 -74 -7c-33 0 -58 6 -77 25c-18 18 -23 41 -23 84v383h-91v43h91v134h51v-134h161v-43h-161v-376c0 -30 3 -45 13 -55c8 -9 20 -15 54 -15h93z" />
    <glyph glyph-name="u" unicode="u" 
d="M450 531h50v-531h-50v77c-74 -59 -101 -78 -166 -78h-73c-52 0 -73 7 -92 27c-21 20 -27 51 -27 94v411h50v-408c0 -34 5 -51 18 -64c11 -11 22 -16 65 -16h70c53 0 83 14 155 66v422z" />
    <glyph glyph-name="v" unicode="v" horiz-adv-x="505" 
d="M476 531l-179 -511c-6 -18 -11 -23 -29 -23h-30c-18 0 -23 5 -29 23l-179 511h54l163 -483h15l162 483h52z" />
    <glyph glyph-name="w" unicode="w" horiz-adv-x="742" 
d="M35 531h53l112 -483h13l115 460c5 18 11 24 29 24h31c19 0 24 -5 29 -24l115 -460h14l112 483h49l-124 -510c-4 -19 -10 -24 -29 -24h-34c-19 0 -24 5 -29 24l-114 456h-12l-114 -456c-4 -19 -10 -24 -29 -24h-34c-18 0 -24 4 -29 24z" />
    <glyph glyph-name="x" unicode="x" horiz-adv-x="494" 
d="M81 0h-57l192 269l-186 262h57l158 -224h7l156 224h56l-186 -262l191 -269h-57l-165 231h-7z" />
    <glyph glyph-name="y" unicode="y" horiz-adv-x="518" 
d="M30 531h56l178 -466h5l165 466h53l-229 -629c-14 -41 -35 -54 -79 -54c-30 0 -67 3 -97 7v38h95c24 0 31 10 38 27l27 76z" />
    <glyph glyph-name="z" unicode="z" horiz-adv-x="505" 
d="M455 44v-44h-405v30l340 457h-328v44h394v-28l-342 -459h341z" />
    <glyph glyph-name="Aacute" unicode="&#xc1;" horiz-adv-x="641" 
d="M552 0l-76 227h-313l-76 -227h-53l231 678c7 20 13 25 38 25h35c25 0 31 -5 38 -25l232 -678h-56zM307 656l-129 -384h282l-129 384h-24zM283 772v5l99 117h76v-5l-135 -117h-40z" />
    <glyph glyph-name="aacute" unicode="&#xe1;" horiz-adv-x="571" 
d="M89 377c1 72 12 102 36 125c23 23 50 29 105 29h126c57 0 79 -8 98 -26c22 -22 26 -54 26 -105v-400h-50v70c-66 -53 -94 -71 -157 -71h-74c-47 0 -80 10 -102 31c-19 20 -32 46 -32 114c0 66 13 98 33 119c22 21 55 34 135 34c48 0 124 -3 197 -9v109c0 46 -5 65 -17 77
c-10 10 -23 15 -64 15h-110c-42 0 -62 -4 -78 -19c-16 -16 -22 -39 -23 -93h-49zM280 42c56 0 86 14 150 60v155h-201c-58 0 -76 -6 -92 -22c-16 -17 -22 -35 -22 -86c0 -53 7 -73 21 -87c16 -15 35 -20 71 -20h73zM257 604v5l99 117h76v-5l-135 -117h-40z" />
    <glyph glyph-name="Abreve" unicode="&#x102;" horiz-adv-x="641" 
d="M552 0l-76 227h-313l-76 -227h-53l231 678c7 20 13 25 38 25h35c25 0 31 -5 38 -25l232 -678h-56zM307 656l-129 -384h282l-129 384h-24zM320 816c71 0 110 33 119 86h33c-7 -79 -58 -128 -152 -128s-145 49 -152 128h33c9 -53 48 -86 119 -86z" />
    <glyph glyph-name="abreve" unicode="&#x103;" horiz-adv-x="571" 
d="M89 377c1 72 12 102 36 125c23 23 50 29 105 29h126c57 0 79 -8 98 -26c22 -22 26 -54 26 -105v-400h-50v70c-66 -53 -94 -71 -157 -71h-74c-47 0 -80 10 -102 31c-19 20 -32 46 -32 114c0 66 13 98 33 119c22 21 55 34 135 34c48 0 124 -3 197 -9v109c0 46 -5 65 -17 77
c-10 10 -23 15 -64 15h-110c-42 0 -62 -4 -78 -19c-16 -16 -22 -39 -23 -93h-49zM280 42c56 0 86 14 150 60v155h-201c-58 0 -76 -6 -92 -22c-16 -17 -22 -35 -22 -86c0 -53 7 -73 21 -87c16 -15 35 -20 71 -20h73zM294 648c71 0 110 33 119 86h33
c-7 -79 -58 -128 -152 -128s-145 49 -152 128h33c9 -53 48 -86 119 -86z" />
    <glyph glyph-name="Acircumflex" unicode="&#xc2;" horiz-adv-x="641" 
d="M552 0l-76 227h-313l-76 -227h-53l231 678c7 20 13 25 38 25h35c25 0 31 -5 38 -25l232 -678h-56zM307 656l-129 -384h282l-129 384h-24zM439 775l-120 88l-119 -88h-36v5l129 122h54l129 -122v-5h-37z" />
    <glyph glyph-name="acircumflex" unicode="&#xe2;" horiz-adv-x="571" 
d="M89 377c1 72 12 102 36 125c23 23 50 29 105 29h126c57 0 79 -8 98 -26c22 -22 26 -54 26 -105v-400h-50v70c-66 -53 -94 -71 -157 -71h-74c-47 0 -80 10 -102 31c-19 20 -32 46 -32 114c0 66 13 98 33 119c22 21 55 34 135 34c48 0 124 -3 197 -9v109c0 46 -5 65 -17 77
c-10 10 -23 15 -64 15h-110c-42 0 -62 -4 -78 -19c-16 -16 -22 -39 -23 -93h-49zM280 42c56 0 86 14 150 60v155h-201c-58 0 -76 -6 -92 -22c-16 -17 -22 -35 -22 -86c0 -53 7 -73 21 -87c16 -15 35 -20 71 -20h73zM413 607l-120 88l-119 -88h-36v5l129 122h54l129 -122v-5
h-37z" />
    <glyph glyph-name="Adieresis" unicode="&#xc4;" horiz-adv-x="641" 
d="M552 0l-76 227h-313l-76 -227h-53l231 678c7 20 13 25 38 25h35c25 0 31 -5 38 -25l232 -678h-56zM307 656l-129 -384h282l-129 384h-24zM196 804v82h63v-82h-63zM381 804v82h63v-82h-63z" />
    <glyph glyph-name="adieresis" unicode="&#xe4;" horiz-adv-x="571" 
d="M89 377c1 72 12 102 36 125c23 23 50 29 105 29h126c57 0 79 -8 98 -26c22 -22 26 -54 26 -105v-400h-50v70c-66 -53 -94 -71 -157 -71h-74c-47 0 -80 10 -102 31c-19 20 -32 46 -32 114c0 66 13 98 33 119c22 21 55 34 135 34c48 0 124 -3 197 -9v109c0 46 -5 65 -17 77
c-10 10 -23 15 -64 15h-110c-42 0 -62 -4 -78 -19c-16 -16 -22 -39 -23 -93h-49zM280 42c56 0 86 14 150 60v155h-201c-58 0 -76 -6 -92 -22c-16 -17 -22 -35 -22 -86c0 -53 7 -73 21 -87c16 -15 35 -20 71 -20h73zM170 636v82h63v-82h-63zM355 636v82h63v-82h-63z" />
    <glyph glyph-name="Agrave" unicode="&#xc0;" horiz-adv-x="641" 
d="M552 0l-76 227h-313l-76 -227h-53l231 678c7 20 13 25 38 25h35c25 0 31 -5 38 -25l232 -678h-56zM307 656l-129 -384h282l-129 384h-24zM356 772h-39l-135 117v5h76l98 -117v-5z" />
    <glyph glyph-name="agrave" unicode="&#xe0;" horiz-adv-x="571" 
d="M89 377c1 72 12 102 36 125c23 23 50 29 105 29h126c57 0 79 -8 98 -26c22 -22 26 -54 26 -105v-400h-50v70c-66 -53 -94 -71 -157 -71h-74c-47 0 -80 10 -102 31c-19 20 -32 46 -32 114c0 66 13 98 33 119c22 21 55 34 135 34c48 0 124 -3 197 -9v109c0 46 -5 65 -17 77
c-10 10 -23 15 -64 15h-110c-42 0 -62 -4 -78 -19c-16 -16 -22 -39 -23 -93h-49zM280 42c56 0 86 14 150 60v155h-201c-58 0 -76 -6 -92 -22c-16 -17 -22 -35 -22 -86c0 -53 7 -73 21 -87c16 -15 35 -20 71 -20h73zM330 604h-39l-135 117v5h76l98 -117v-5z" />
    <glyph glyph-name="Amacron" unicode="&#x100;" horiz-adv-x="641" 
d="M552 0l-76 227h-313l-76 -227h-53l231 678c7 20 13 25 38 25h35c25 0 31 -5 38 -25l232 -678h-56zM307 656l-129 -384h282l-129 384h-24zM178 790v41h284v-41h-284z" />
    <glyph glyph-name="amacron" unicode="&#x101;" horiz-adv-x="571" 
d="M89 377c1 72 12 102 36 125c23 23 50 29 105 29h126c57 0 79 -8 98 -26c22 -22 26 -54 26 -105v-400h-50v70c-66 -53 -94 -71 -157 -71h-74c-47 0 -80 10 -102 31c-19 20 -32 46 -32 114c0 66 13 98 33 119c22 21 55 34 135 34c48 0 124 -3 197 -9v109c0 46 -5 65 -17 77
c-10 10 -23 15 -64 15h-110c-42 0 -62 -4 -78 -19c-16 -16 -22 -39 -23 -93h-49zM280 42c56 0 86 14 150 60v155h-201c-58 0 -76 -6 -92 -22c-16 -17 -22 -35 -22 -86c0 -53 7 -73 21 -87c16 -15 35 -20 71 -20h73zM152 622v41h284v-41h-284z" />
    <glyph glyph-name="Aogonek" unicode="&#x104;" horiz-adv-x="635" 
d="M601 -91h39c0 -56 -4 -75 -19 -89c-9 -10 -24 -14 -49 -14h-42c-25 0 -41 4 -51 14c-15 14 -19 34 -19 66c0 18 2 38 13 55c11 19 45 47 72 69l-72 217h-313l-76 -227h-53l231 678c7 20 13 25 38 25h35c25 0 31 -5 38 -25l232 -678h-29c-18 -15 -53 -47 -62 -60
c-10 -15 -12 -29 -12 -45c0 -27 1 -38 9 -45c5 -5 12 -8 27 -8h28c14 0 20 3 26 8c7 7 9 18 9 59zM304 656l-129 -384h282l-129 384h-24z" />
    <glyph glyph-name="aogonek" unicode="&#x105;" horiz-adv-x="575" 
d="M92 377c1 72 12 102 36 125c23 23 50 29 105 29h126c57 0 79 -8 98 -26c22 -22 26 -54 26 -105v-400h-18c-17 -15 -40 -36 -49 -50c-10 -14 -12 -27 -12 -49c0 -34 1 -44 9 -51c5 -5 12 -8 27 -8h28c14 0 20 3 26 8c7 7 9 18 9 59h39c0 -56 -4 -75 -19 -89
c-10 -10 -24 -14 -49 -14h-43c-25 0 -40 4 -50 14c-15 14 -19 33 -19 72c0 23 2 40 13 58s33 37 58 57v63c-66 -53 -94 -71 -157 -71h-74c-47 0 -80 10 -102 31c-19 20 -32 46 -32 114c0 66 13 98 33 119c22 21 55 34 135 34c48 0 124 -3 197 -9v109c0 46 -5 65 -17 77
c-10 10 -23 15 -64 15h-110c-42 0 -62 -4 -78 -19c-16 -16 -22 -39 -23 -93h-49zM283 42c56 0 86 14 150 60v155h-201c-58 0 -76 -6 -92 -22c-16 -17 -22 -35 -22 -86c0 -53 7 -73 21 -87c16 -15 35 -20 71 -20h73z" />
    <glyph glyph-name="Aring" unicode="&#xc5;" horiz-adv-x="634" 
d="M549 0l-77 227h-313l-76 -227h-52l228 671c-24 2 -39 8 -50 20c-16 17 -22 36 -22 76s6 58 22 76c13 14 32 20 66 20h84c34 0 53 -6 66 -20c16 -17 22 -36 22 -76s-6 -59 -22 -76c-11 -12 -26 -18 -51 -20l230 -671h-55zM304 658l-129 -386h282l-130 386h-23zM357 832
h-80c-19 0 -29 -3 -38 -11c-9 -10 -14 -22 -14 -54s5 -45 14 -54c9 -8 19 -11 38 -11h80c19 0 29 3 38 11c9 9 14 22 14 54s-5 44 -14 54c-9 8 -19 11 -38 11z" />
    <glyph glyph-name="aring" unicode="&#xe5;" horiz-adv-x="571" 
d="M89 377c1 72 12 102 36 125c23 23 50 29 105 29h126c57 0 79 -8 98 -26c22 -22 26 -54 26 -105v-400h-50v70c-66 -53 -94 -71 -157 -71h-74c-47 0 -80 10 -102 31c-19 20 -32 46 -32 114c0 66 13 98 33 119c22 21 55 34 135 34c48 0 124 -3 197 -9v109c0 46 -5 65 -17 77
c-10 10 -23 15 -64 15h-110c-42 0 -62 -4 -78 -19c-16 -16 -22 -39 -23 -93h-49zM280 42c56 0 86 14 150 60v155h-201c-58 0 -76 -6 -92 -22c-16 -17 -22 -35 -22 -86c0 -53 7 -73 21 -87c16 -15 35 -20 71 -20h73zM336 609h-84c-34 0 -53 6 -66 20c-16 17 -22 36 -22 76
s6 58 22 76c13 14 32 20 66 20h84c34 0 53 -6 66 -20c16 -17 22 -36 22 -76s-6 -59 -22 -76c-13 -14 -32 -20 -66 -20zM334 770h-80c-19 0 -29 -3 -38 -11c-9 -10 -14 -22 -14 -54s5 -45 14 -54c9 -8 19 -11 38 -11h80c19 0 29 3 38 11c9 9 14 22 14 54s-5 44 -14 54
c-9 8 -19 11 -38 11z" />
    <glyph glyph-name="aring.alt" horiz-adv-x="571" 
d="M89 377c1 72 12 102 36 125c15 15 32 23 57 26c-13 16 -18 35 -18 72c0 40 6 58 22 76c13 14 32 20 66 20h84c34 0 53 -6 66 -20c16 -17 22 -36 22 -76c0 -37 -5 -56 -19 -72c23 -4 37 -12 49 -23c22 -22 26 -54 26 -105v-400h-50v70c-66 -53 -94 -71 -157 -71h-74
c-47 0 -80 10 -102 31c-19 20 -32 46 -32 114c0 66 13 98 33 119c22 21 55 34 135 34c48 0 124 -3 197 -9v109c0 46 -5 65 -17 77c-10 10 -23 15 -64 15h-110c-42 0 -62 -4 -78 -19c-16 -16 -22 -39 -23 -93h-49zM280 42c56 0 86 14 150 60v155h-201c-58 0 -76 -6 -92 -22
c-16 -17 -22 -35 -22 -86c0 -53 7 -73 21 -87c16 -15 35 -20 71 -20h73zM334 665h-80c-19 0 -29 -3 -38 -11c-9 -10 -14 -22 -14 -54s5 -45 14 -54c9 -8 19 -11 38 -11h80c19 0 29 3 38 11c9 9 14 22 14 54s-5 44 -14 54c-9 8 -19 11 -38 11z" />
    <glyph glyph-name="Aringacute" unicode="&#x1fa;" horiz-adv-x="634" 
d="M83 0h-52l228 671c-24 2 -39 8 -50 20c-16 17 -22 36 -22 76s6 58 22 76c13 14 32 20 66 20h84c34 0 53 -6 66 -20c16 -17 22 -36 22 -76s-6 -59 -22 -76c-11 -12 -26 -18 -51 -20l230 -671h-55l-77 227h-313zM304 658l-129 -386h282l-130 386h-23zM357 832h-80
c-19 0 -29 -3 -38 -11c-9 -10 -14 -22 -14 -54s5 -45 14 -54c9 -8 19 -11 38 -11h80c19 0 29 3 38 11c9 9 14 22 14 54s-5 44 -14 54c-9 8 -19 11 -38 11zM275 916v5l99 117h76v-5l-135 -117h-40z" />
    <glyph glyph-name="aringacute" unicode="&#x1fb;" horiz-adv-x="571" 
d="M89 377c1 72 12 102 36 125c23 23 50 29 105 29h126c57 0 79 -8 98 -26c22 -22 26 -54 26 -105v-400h-50v70c-66 -53 -94 -71 -157 -71h-74c-47 0 -80 10 -102 31c-19 20 -32 46 -32 114c0 66 13 98 33 119c22 21 55 34 135 34c48 0 124 -3 197 -9v109c0 46 -5 65 -17 77
c-10 10 -23 15 -64 15h-110c-42 0 -62 -4 -78 -19c-16 -16 -22 -39 -23 -93h-49zM280 42c56 0 86 14 150 60v155h-201c-58 0 -76 -6 -92 -22c-16 -17 -22 -35 -22 -86c0 -53 7 -73 21 -87c16 -15 35 -20 71 -20h73zM336 609h-84c-34 0 -53 6 -66 20c-16 17 -22 36 -22 76
s6 58 22 76c13 14 32 20 66 20h84c34 0 53 -6 66 -20c16 -17 22 -36 22 -76s-6 -59 -22 -76c-13 -14 -32 -20 -66 -20zM334 770h-80c-19 0 -29 -3 -38 -11c-9 -10 -14 -22 -14 -54s5 -45 14 -54c9 -8 19 -11 38 -11h80c19 0 29 3 38 11c9 9 14 22 14 54s-5 44 -14 54
c-9 8 -19 11 -38 11zM251 864v5l99 117h76v-5l-135 -117h-40z" />
    <glyph glyph-name="aringacute.alt" horiz-adv-x="571" 
d="M89 377c1 72 12 102 36 125c15 15 32 23 57 26c-13 16 -18 35 -18 72c0 40 6 58 22 76c13 14 32 20 66 20h84c34 0 53 -6 66 -20c16 -17 22 -36 22 -76c0 -37 -5 -56 -19 -72c23 -4 37 -12 49 -23c22 -22 26 -54 26 -105v-400h-50v70c-66 -53 -94 -71 -157 -71h-74
c-47 0 -80 10 -102 31c-19 20 -32 46 -32 114c0 66 13 98 33 119c22 21 55 34 135 34c48 0 124 -3 197 -9v109c0 46 -5 65 -17 77c-10 10 -23 15 -64 15h-110c-42 0 -62 -4 -78 -19c-16 -16 -22 -39 -23 -93h-49zM280 42c56 0 86 14 150 60v155h-201c-58 0 -76 -6 -92 -22
c-16 -17 -22 -35 -22 -86c0 -53 7 -73 21 -87c16 -15 35 -20 71 -20h73zM334 665h-80c-19 0 -29 -3 -38 -11c-9 -10 -14 -22 -14 -54s5 -45 14 -54c9 -8 19 -11 38 -11h80c19 0 29 3 38 11c9 9 14 22 14 54s-5 44 -14 54c-9 8 -19 11 -38 11zM251 758v5l99 117h76v-5
l-135 -117h-40z" />
    <glyph glyph-name="Atilde" unicode="&#xc3;" horiz-adv-x="641" 
d="M552 0l-76 227h-313l-76 -227h-53l231 678c7 20 13 25 38 25h35c25 0 31 -5 38 -25l232 -678h-56zM307 656l-129 -384h282l-129 384h-24zM177 788v69c0 14 2 25 7 32c6 7 14 9 26 9h8c14 0 24 -3 46 -11l156 -62l16 72h27v-69c0 -14 -2 -25 -7 -32c-6 -7 -14 -9 -26 -9
h-8c-14 0 -24 3 -46 11l-156 62l-16 -72h-27z" />
    <glyph glyph-name="atilde" unicode="&#xe3;" horiz-adv-x="571" 
d="M89 377c1 72 12 102 36 125c23 23 50 29 105 29h126c57 0 79 -8 98 -26c22 -22 26 -54 26 -105v-400h-50v70c-66 -53 -94 -71 -157 -71h-74c-47 0 -80 10 -102 31c-19 20 -32 46 -32 114c0 66 13 98 33 119c22 21 55 34 135 34c48 0 124 -3 197 -9v109c0 46 -5 65 -17 77
c-10 10 -23 15 -64 15h-110c-42 0 -62 -4 -78 -19c-16 -16 -22 -39 -23 -93h-49zM280 42c56 0 86 14 150 60v155h-201c-58 0 -76 -6 -92 -22c-16 -17 -22 -35 -22 -86c0 -53 7 -73 21 -87c16 -15 35 -20 71 -20h73zM151 620v69c0 14 2 25 7 32c6 7 14 9 26 9h8
c14 0 24 -3 46 -11l156 -62l16 72h27v-69c0 -14 -2 -25 -7 -32c-6 -7 -14 -9 -26 -9h-8c-14 0 -24 3 -46 11l-156 62l-16 -72h-27z" />
    <glyph glyph-name="AE" unicode="&#xc6;" horiz-adv-x="979" 
d="M465 0v245h-249l-144 -245h-54l398 675c12 18 19 25 43 25h453v-45h-394v-268h345v-45h-345v-297h389v-45h-442zM459 657l-217 -367h223v367h-6z" />
    <glyph glyph-name="ae" unicode="&#xe6;" horiz-adv-x="939" 
d="M236 296c49 0 124 -3 198 -8v109c0 46 -5 65 -18 77c-10 10 -22 15 -63 15h-110c-42 0 -62 -4 -77 -19c-16 -16 -23 -39 -24 -93h-50c2 73 12 102 36 125c23 23 51 29 105 29h121c57 0 78 -7 96 -26c7 -8 13 -17 16 -27c5 9 11 16 19 24c23 23 53 29 110 29h117
c56 0 87 -6 110 -29c34 -33 47 -78 47 -227v-11c0 -8 -3 -12 -12 -12h-374c0 -138 11 -169 31 -188c16 -16 35 -21 79 -21h128c41 0 60 5 75 21c16 15 23 37 24 97h49c-3 -81 -13 -108 -37 -133c-22 -22 -50 -28 -105 -28h-137c-56 0 -86 6 -110 30c-14 13 -24 28 -31 52
c-78 -63 -106 -83 -172 -83h-74c-48 0 -81 10 -102 31c-20 20 -32 47 -32 115c0 65 13 97 33 117c22 22 54 34 134 34zM283 42c59 0 89 16 160 67c-6 33 -9 79 -9 147h-201c-59 0 -76 -5 -92 -22c-17 -16 -22 -35 -22 -85c0 -53 6 -73 21 -87c15 -15 34 -20 71 -20h72z
M514 468c-20 -20 -30 -49 -31 -175h336c-1 122 -11 154 -32 175c-15 15 -34 20 -78 20h-116c-44 0 -63 -5 -79 -20z" />
    <glyph glyph-name="AEacute" unicode="&#x1fc;" horiz-adv-x="1018" 
d="M504 0v245h-249l-144 -245h-54l398 675c12 18 19 25 43 25h453v-45h-394v-268h345v-45h-345v-297h389v-45h-442zM498 657l-217 -367h223v367h-6zM585 772v5l99 117h76v-5l-135 -117h-40z" />
    <glyph glyph-name="aeacute" unicode="&#x1fd;" horiz-adv-x="939" 
d="M236 296c49 0 124 -3 198 -8v109c0 46 -5 65 -18 77c-10 10 -22 15 -63 15h-110c-42 0 -62 -4 -77 -19c-16 -16 -23 -39 -24 -93h-50c2 73 12 102 36 125c23 23 51 29 105 29h121c57 0 78 -7 96 -26c7 -8 13 -17 16 -27c5 9 11 16 19 24c23 23 53 29 110 29h117
c56 0 87 -6 110 -29c34 -33 47 -78 47 -227v-11c0 -8 -3 -12 -12 -12h-374c0 -138 11 -169 31 -188c16 -16 35 -21 79 -21h128c41 0 60 5 75 21c16 15 23 37 24 97h49c-3 -81 -13 -108 -37 -133c-22 -22 -50 -28 -105 -28h-137c-56 0 -86 6 -110 30c-14 13 -24 28 -31 52
c-78 -63 -106 -83 -172 -83h-74c-48 0 -81 10 -102 31c-20 20 -32 47 -32 115c0 65 13 97 33 117c22 22 54 34 134 34zM283 42c59 0 89 16 160 67c-6 33 -9 79 -9 147h-201c-59 0 -76 -5 -92 -22c-17 -16 -22 -35 -22 -85c0 -53 6 -73 21 -87c15 -15 34 -20 71 -20h72z
M514 468c-20 -20 -30 -49 -31 -175h336c-1 122 -11 154 -32 175c-15 15 -34 20 -78 20h-116c-44 0 -63 -5 -79 -20zM429 604v5l99 117h76v-5l-135 -117h-40z" />
    <glyph glyph-name="Cacute" unicode="&#x106;" horiz-adv-x="684" 
d="M317 772v5l99 117h76v-5l-135 -117h-40zM616 219c-5 -127 -19 -163 -48 -191c-20 -20 -45 -28 -107 -28h-216c-62 0 -87 8 -107 28c-35 34 -54 84 -54 322s19 288 54 322c20 20 45 28 107 28h216c62 0 87 -8 107 -28c28 -27 42 -65 47 -180h-50c-5 101 -17 128 -33 143
c-12 13 -27 20 -75 20h-208c-49 0 -63 -7 -75 -20c-21 -20 -38 -60 -38 -285s17 -265 38 -285c12 -13 26 -20 75 -20h208c48 0 63 7 75 20c16 15 29 42 33 154h51z" />
    <glyph glyph-name="cacute" unicode="&#x107;" horiz-adv-x="549" 
d="M247 604v5l99 117h76v-5l-135 -117h-40zM442 169h49c-4 -86 -15 -116 -40 -141c-22 -22 -47 -28 -101 -28h-122c-55 0 -86 6 -109 30c-34 33 -48 77 -48 236s14 202 48 236c23 23 54 29 109 29h122c55 0 79 -5 101 -27c24 -25 34 -57 39 -137h-49c-5 67 -11 87 -26 101
c-15 16 -31 19 -72 19h-111c-44 0 -63 -4 -79 -20c-21 -21 -32 -51 -32 -201c0 -151 11 -181 32 -202c16 -16 35 -20 79 -20h111c41 0 57 3 73 19c15 15 22 38 26 106z" />
    <glyph glyph-name="Ccaron" unicode="&#x10c;" horiz-adv-x="684" 
d="M616 219c-5 -127 -19 -163 -48 -191c-20 -20 -45 -28 -107 -28h-216c-62 0 -87 8 -107 28c-35 34 -54 84 -54 322s19 288 54 322c20 20 45 28 107 28h216c62 0 87 -8 107 -28c28 -27 42 -65 47 -180h-50c-5 101 -17 128 -33 143c-12 13 -27 20 -75 20h-208
c-49 0 -63 -7 -75 -20c-21 -20 -38 -60 -38 -285s17 -265 38 -285c12 -13 26 -20 75 -20h208c48 0 63 7 75 20c16 15 29 42 33 154h51zM326 775l-129 122v5h37l119 -88l120 88h36v-5l-129 -122h-54z" />
    <glyph glyph-name="ccaron" unicode="&#x10d;" horiz-adv-x="549" 
d="M442 169h49c-4 -86 -15 -116 -40 -141c-22 -22 -47 -28 -101 -28h-122c-55 0 -86 6 -109 30c-34 33 -48 77 -48 236s14 202 48 236c23 23 54 29 109 29h122c55 0 79 -5 101 -27c24 -25 34 -57 39 -137h-49c-5 67 -11 87 -26 101c-15 16 -31 19 -72 19h-111
c-44 0 -63 -4 -79 -20c-21 -21 -32 -51 -32 -201c0 -151 11 -181 32 -202c16 -16 35 -20 79 -20h111c41 0 57 3 73 19c15 15 22 38 26 106zM256 607l-129 122v5h37l119 -88l120 88h36v-5l-129 -122h-54z" />
    <glyph glyph-name="Ccedilla" unicode="&#xc7;" horiz-adv-x="682" 
d="M616 219c-5 -127 -19 -163 -48 -191c-20 -20 -45 -28 -107 -28h-216c-62 0 -87 8 -107 28c-35 34 -54 84 -54 322s19 288 54 322c20 20 45 28 107 28h216c62 0 87 -8 107 -28c28 -27 42 -65 47 -180h-50c-5 101 -17 128 -33 143c-12 13 -27 20 -75 20h-208
c-49 0 -63 -7 -75 -20c-21 -20 -38 -60 -38 -285s17 -265 38 -285c12 -13 26 -20 75 -20h208c48 0 63 7 75 20c16 15 29 42 33 154h51zM355 -58c32 0 51 -4 62 -15c12 -12 19 -30 19 -62s-7 -49 -19 -61c-11 -11 -31 -15 -63 -15h-64l-34 25v8h95c19 0 29 3 36 9s9 18 9 35
c0 16 -2 28 -9 34s-17 9 -36 9h-44v33h48z" />
    <glyph glyph-name="ccedilla" unicode="&#xe7;" horiz-adv-x="549" 
d="M442 169h49c-4 -86 -15 -116 -40 -141c-22 -22 -47 -28 -101 -28h-122c-55 0 -86 6 -109 30c-34 33 -48 77 -48 236s14 202 48 236c23 23 54 29 109 29h122c55 0 79 -5 101 -27c24 -25 34 -57 39 -137h-49c-5 67 -11 87 -26 101c-15 16 -31 19 -72 19h-111
c-44 0 -63 -4 -79 -20c-21 -21 -32 -51 -32 -201c0 -151 11 -181 32 -202c16 -16 35 -20 79 -20h111c41 0 57 3 73 19c15 15 22 38 26 106zM283 -58c32 0 51 -4 62 -15c12 -12 19 -30 19 -62s-7 -49 -19 -61c-11 -11 -31 -15 -63 -15h-64l-34 25v8h95c19 0 29 3 36 9
s9 18 9 35c0 16 -2 28 -9 34s-17 9 -36 9h-44v33h48z" />
    <glyph glyph-name="Cdotaccent" unicode="&#x10a;" horiz-adv-x="684" 
d="M616 219c-5 -127 -19 -163 -48 -191c-20 -20 -45 -28 -107 -28h-216c-62 0 -87 8 -107 28c-35 34 -54 84 -54 322s19 288 54 322c20 20 45 28 107 28h216c62 0 87 -8 107 -28c28 -27 42 -65 47 -180h-50c-5 101 -17 128 -33 143c-12 13 -27 20 -75 20h-208
c-49 0 -63 -7 -75 -20c-21 -20 -38 -60 -38 -285s17 -265 38 -285c12 -13 26 -20 75 -20h208c48 0 63 7 75 20c16 15 29 42 33 154h51zM322 806v83h64v-83h-64z" />
    <glyph glyph-name="cdotaccent" unicode="&#x10b;" horiz-adv-x="549" 
d="M442 169h49c-4 -86 -15 -116 -40 -141c-22 -22 -47 -28 -101 -28h-122c-55 0 -86 6 -109 30c-34 33 -48 77 -48 236s14 202 48 236c23 23 54 29 109 29h122c55 0 79 -5 101 -27c24 -25 34 -57 39 -137h-49c-5 67 -11 87 -26 101c-15 16 -31 19 -72 19h-111
c-44 0 -63 -4 -79 -20c-21 -21 -32 -51 -32 -201c0 -151 11 -181 32 -202c16 -16 35 -20 79 -20h111c41 0 57 3 73 19c15 15 22 38 26 106zM252 638v83h64v-83h-64z" />
    <glyph glyph-name="Dcaron" unicode="&#x10e;" horiz-adv-x="712" 
d="M106 700h325c67 0 103 -12 131 -39c40 -39 68 -110 68 -311s-28 -272 -68 -311c-28 -27 -64 -39 -131 -39h-325v700zM578 350c0 187 -26 249 -54 277c-21 20 -42 28 -93 28h-273v-610h273c51 0 73 8 93 28c28 28 54 90 54 277zM328 775l-129 122v5h37l119 -88l120 88h36
v-5l-129 -122h-54z" />
    <glyph glyph-name="dcaron" unicode="&#x10f;" horiz-adv-x="595" 
d="M502 0h-50v76c-73 -59 -103 -77 -166 -77h-57c-62 0 -93 11 -116 34c-33 33 -42 76 -42 233c0 156 9 199 42 233c23 23 54 33 116 33h57c64 0 92 -19 166 -77v265h50v-720zM296 43c57 0 88 18 156 67v312c-67 47 -98 66 -155 66h-61c-50 0 -69 -9 -85 -24
c-23 -23 -30 -57 -30 -198s7 -176 30 -198c16 -16 35 -25 85 -25h60zM594 554l-20 7l22 94c2 10 3 17 3 24c0 8 -1 14 -3 25l-15 77v19h60v-73c0 -42 -1 -58 -16 -90z" />
    <glyph glyph-name="Dcroat" unicode="&#x110;" horiz-adv-x="714" 
d="M109 700h324c68 0 103 -12 132 -39c40 -39 68 -110 68 -311s-28 -272 -68 -311c-29 -27 -64 -39 -132 -39h-324v333h-102v44h102v323zM580 350c0 187 -25 249 -54 277c-20 20 -41 28 -93 28h-272v-278h167v-44h-167v-288h272c52 0 73 8 93 28c29 28 54 90 54 277z" />
    <glyph glyph-name="dcroat" unicode="&#x111;" horiz-adv-x="595" 
d="M502 0h-50v76c-73 -59 -103 -77 -166 -77h-57c-62 0 -93 11 -116 34c-33 33 -42 76 -42 233c0 156 9 199 42 233c23 23 54 33 116 33h57c64 0 92 -19 166 -77v137h-165v40h165v88h50v-88h89v-40h-89v-592zM151 464c-23 -23 -30 -57 -30 -198s7 -176 30 -198
c16 -16 35 -25 85 -25h60c57 0 88 18 156 67v312c-67 47 -98 66 -155 66h-61c-50 0 -69 -9 -85 -24z" />
    <glyph glyph-name="Eacute" unicode="&#xc9;" horiz-adv-x="614" 
d="M293 772v5l99 117h76v-5l-135 -117h-40zM554 45v-45h-448v700h453v-45h-401v-268h353v-45h-353v-297h396z" />
    <glyph glyph-name="eacute" unicode="&#xe9;" horiz-adv-x="577" 
d="M495 250h-374c1 -136 12 -167 32 -186c16 -16 34 -21 78 -21h128c42 0 60 5 75 21c16 15 23 37 24 97h49c-3 -81 -12 -108 -37 -133c-22 -22 -50 -28 -105 -28h-137c-56 0 -87 6 -110 30c-34 33 -47 77 -47 236s13 202 47 236c23 23 54 29 110 29h122c56 0 87 -6 110 -29
c34 -33 47 -78 47 -230v-10c0 -8 -3 -12 -12 -12zM152 468c-19 -20 -30 -50 -31 -178h336c-1 126 -11 157 -31 178c-16 15 -35 20 -79 20h-116c-44 0 -63 -5 -79 -20zM254 604v5l99 117h76v-5l-135 -117h-40z" />
    <glyph glyph-name="Ebreve" unicode="&#x114;" horiz-adv-x="614" 
d="M554 45v-45h-448v700h453v-45h-401v-268h353v-45h-353v-297h396zM330 816c71 0 110 33 119 86h33c-7 -79 -58 -128 -152 -128s-145 49 -152 128h33c9 -53 48 -86 119 -86z" />
    <glyph glyph-name="ebreve" unicode="&#x115;" horiz-adv-x="577" 
d="M495 250h-374c1 -136 12 -167 32 -186c16 -16 34 -21 78 -21h128c42 0 60 5 75 21c16 15 23 37 24 97h49c-3 -81 -12 -108 -37 -133c-22 -22 -50 -28 -105 -28h-137c-56 0 -87 6 -110 30c-34 33 -47 77 -47 236s13 202 47 236c23 23 54 29 110 29h122c56 0 87 -6 110 -29
c34 -33 47 -78 47 -230v-10c0 -8 -3 -12 -12 -12zM152 468c-19 -20 -30 -50 -31 -178h336c-1 126 -11 157 -31 178c-16 15 -35 20 -79 20h-116c-44 0 -63 -5 -79 -20zM291 648c71 0 110 33 119 86h33c-7 -79 -58 -128 -152 -128s-145 49 -152 128h33c9 -53 48 -86 119 -86z
" />
    <glyph glyph-name="Ecaron" unicode="&#x11a;" horiz-adv-x="614" 
d="M554 45v-45h-448v700h453v-45h-401v-268h353v-45h-353v-297h396zM302 775l-129 122v5h37l119 -88l120 88h36v-5l-129 -122h-54z" />
    <glyph glyph-name="ecaron" unicode="&#x11b;" horiz-adv-x="577" 
d="M495 250h-374c1 -136 12 -167 32 -186c16 -16 34 -21 78 -21h128c42 0 60 5 75 21c16 15 23 37 24 97h49c-3 -81 -12 -108 -37 -133c-22 -22 -50 -28 -105 -28h-137c-56 0 -87 6 -110 30c-34 33 -47 77 -47 236s13 202 47 236c23 23 54 29 110 29h122c56 0 87 -6 110 -29
c34 -33 47 -78 47 -230v-10c0 -8 -3 -12 -12 -12zM152 468c-19 -20 -30 -50 -31 -178h336c-1 126 -11 157 -31 178c-16 15 -35 20 -79 20h-116c-44 0 -63 -5 -79 -20zM263 607l-129 122v5h37l119 -88l120 88h36v-5l-129 -122h-54z" />
    <glyph glyph-name="Ecircumflex" unicode="&#xca;" horiz-adv-x="614" 
d="M554 45v-45h-448v700h453v-45h-401v-268h353v-45h-353v-297h396zM449 775l-120 88l-119 -88h-36v5l129 122h54l129 -122v-5h-37z" />
    <glyph glyph-name="ecircumflex" unicode="&#xea;" horiz-adv-x="577" 
d="M495 250h-374c1 -136 12 -167 32 -186c16 -16 34 -21 78 -21h128c42 0 60 5 75 21c16 15 23 37 24 97h49c-3 -81 -12 -108 -37 -133c-22 -22 -50 -28 -105 -28h-137c-56 0 -87 6 -110 30c-34 33 -47 77 -47 236s13 202 47 236c23 23 54 29 110 29h122c56 0 87 -6 110 -29
c34 -33 47 -78 47 -230v-10c0 -8 -3 -12 -12 -12zM152 468c-19 -20 -30 -50 -31 -178h336c-1 126 -11 157 -31 178c-16 15 -35 20 -79 20h-116c-44 0 -63 -5 -79 -20zM410 607l-120 88l-119 -88h-36v5l129 122h54l129 -122v-5h-37z" />
    <glyph glyph-name="Edieresis" unicode="&#xcb;" horiz-adv-x="614" 
d="M206 804v82h63v-82h-63zM391 804v82h63v-82h-63zM554 45v-45h-448v700h453v-45h-401v-268h353v-45h-353v-297h396z" />
    <glyph glyph-name="edieresis" unicode="&#xeb;" horiz-adv-x="577" 
d="M495 250h-374c1 -136 12 -167 32 -186c16 -16 34 -21 78 -21h128c42 0 60 5 75 21c16 15 23 37 24 97h49c-3 -81 -12 -108 -37 -133c-22 -22 -50 -28 -105 -28h-137c-56 0 -87 6 -110 30c-34 33 -47 77 -47 236s13 202 47 236c23 23 54 29 110 29h122c56 0 87 -6 110 -29
c34 -33 47 -78 47 -230v-10c0 -8 -3 -12 -12 -12zM152 468c-19 -20 -30 -50 -31 -178h336c-1 126 -11 157 -31 178c-16 15 -35 20 -79 20h-116c-44 0 -63 -5 -79 -20zM352 636v82h63v-82h-63zM167 636v82h63v-82h-63z" />
    <glyph glyph-name="Edotaccent" unicode="&#x116;" horiz-adv-x="614" 
d="M554 45v-45h-448v700h453v-45h-401v-268h353v-45h-353v-297h396zM298 806v83h64v-83h-64z" />
    <glyph glyph-name="edotaccent" unicode="&#x117;" horiz-adv-x="577" 
d="M495 250h-374c1 -136 12 -167 32 -186c16 -16 34 -21 78 -21h128c42 0 60 5 75 21c16 15 23 37 24 97h49c-3 -81 -12 -108 -37 -133c-22 -22 -50 -28 -105 -28h-137c-56 0 -87 6 -110 30c-34 33 -47 77 -47 236s13 202 47 236c23 23 54 29 110 29h122c56 0 87 -6 110 -29
c34 -33 47 -78 47 -230v-10c0 -8 -3 -12 -12 -12zM152 468c-19 -20 -30 -50 -31 -178h336c-1 126 -11 157 -31 178c-16 15 -35 20 -79 20h-116c-44 0 -63 -5 -79 -20zM259 638v83h64v-83h-64z" />
    <glyph glyph-name="Egrave" unicode="&#xc8;" horiz-adv-x="614" 
d="M554 45v-45h-448v700h453v-45h-401v-268h353v-45h-353v-297h396zM367 772h-39l-135 117v5h76l98 -117v-5z" />
    <glyph glyph-name="egrave" unicode="&#xe8;" horiz-adv-x="577" 
d="M495 250h-374c1 -136 12 -167 32 -186c16 -16 34 -21 78 -21h128c42 0 60 5 75 21c16 15 23 37 24 97h49c-3 -81 -12 -108 -37 -133c-22 -22 -50 -28 -105 -28h-137c-56 0 -87 6 -110 30c-34 33 -47 77 -47 236s13 202 47 236c23 23 54 29 110 29h122c56 0 87 -6 110 -29
c34 -33 47 -78 47 -230v-10c0 -8 -3 -12 -12 -12zM152 468c-19 -20 -30 -50 -31 -178h336c-1 126 -11 157 -31 178c-16 15 -35 20 -79 20h-116c-44 0 -63 -5 -79 -20zM328 604h-39l-135 117v5h76l98 -117v-5z" />
    <glyph glyph-name="Emacron" unicode="&#x112;" horiz-adv-x="614" 
d="M554 45v-45h-448v700h453v-45h-401v-268h353v-45h-353v-297h396zM188 790v41h284v-41h-284z" />
    <glyph glyph-name="emacron" unicode="&#x113;" horiz-adv-x="577" 
d="M495 250h-374c1 -136 12 -167 32 -186c16 -16 34 -21 78 -21h128c42 0 60 5 75 21c16 15 23 37 24 97h49c-3 -81 -12 -108 -37 -133c-22 -22 -50 -28 -105 -28h-137c-56 0 -87 6 -110 30c-34 33 -47 77 -47 236s13 202 47 236c23 23 54 29 110 29h122c56 0 87 -6 110 -29
c34 -33 47 -78 47 -230v-10c0 -8 -3 -12 -12 -12zM152 468c-19 -20 -30 -50 -31 -178h336c-1 126 -11 157 -31 178c-16 15 -35 20 -79 20h-116c-44 0 -63 -5 -79 -20zM149 622v41h284v-41h-284z" />
    <glyph glyph-name="Eogonek" unicode="&#x118;" horiz-adv-x="614" 
d="M551 45v-45h-82c-17 -14 -37 -31 -46 -45c-11 -15 -13 -28 -13 -52c0 -36 2 -46 9 -53c6 -5 12 -8 27 -8h28c14 0 21 3 26 8c8 7 10 18 10 59h39c0 -56 -4 -75 -19 -89c-10 -10 -24 -14 -49 -14h-43c-25 0 -41 4 -51 14c-14 14 -19 33 -19 73c0 25 2 41 13 59
c9 15 27 32 47 48h-325v700h453v-45h-401v-268h353v-45h-353v-297h396z" />
    <glyph glyph-name="eogonek" unicode="&#x119;" horiz-adv-x="577" 
d="M461 -91h39c0 -56 -5 -75 -20 -89c-9 -10 -24 -14 -49 -14h-42c-25 0 -41 4 -51 14c-15 14 -19 33 -19 73c0 25 2 41 13 59c9 15 27 32 47 48h-14h-137c-56 0 -87 6 -110 30c-34 33 -47 77 -47 236s13 202 47 236c23 23 54 29 110 29h122c56 0 87 -6 110 -29
c34 -33 47 -78 47 -230v-10c0 -8 -3 -12 -12 -12h-374c1 -136 12 -167 32 -186c16 -16 34 -21 78 -21h128c42 0 60 5 75 21c16 15 23 37 24 97h49c-3 -81 -12 -108 -37 -133c-13 -13 -27 -20 -47 -24c-17 -16 -40 -36 -49 -49c-11 -15 -13 -28 -13 -52c0 -36 1 -46 9 -53
c6 -5 12 -8 27 -8h28c14 0 20 3 26 8c8 7 10 18 10 59zM152 468c-19 -20 -30 -50 -31 -178h336c-1 126 -11 157 -31 178c-16 15 -35 20 -79 20h-116c-44 0 -63 -5 -79 -20z" />
    <glyph glyph-name="Eth" unicode="&#xd0;" horiz-adv-x="714" 
d="M109 700h324c68 0 103 -12 132 -39c40 -39 68 -110 68 -311s-28 -272 -68 -311c-29 -27 -64 -39 -132 -39h-324v333h-102v44h102v323zM580 350c0 187 -25 249 -54 277c-20 20 -41 28 -93 28h-272v-278h167v-44h-167v-288h272c52 0 73 8 93 28c29 28 54 90 54 277z" />
    <glyph glyph-name="eth" unicode="&#xf0;" horiz-adv-x="589" 
d="M231 599l120 40c-19 23 -42 49 -70 81h44c26 -26 47 -48 66 -68l133 45v-40l-105 -35c45 -50 63 -79 72 -105c11 -30 15 -86 15 -249c0 -159 -12 -203 -47 -238c-23 -24 -54 -30 -110 -30h-124c-56 0 -87 6 -110 30c-34 33 -47 77 -47 211s13 177 47 211
c23 23 54 29 110 29h65c64 0 93 -18 164 -76c-2 59 -6 83 -12 104c-8 23 -24 49 -65 99l-146 -49v40zM456 268c0 42 0 76 -1 104c-66 47 -99 66 -155 66h-71c-44 0 -63 -4 -79 -20c-21 -21 -32 -53 -32 -177c0 -125 11 -156 32 -177c16 -16 35 -20 79 -20h116
c44 0 63 4 79 20c22 22 32 55 32 204z" />
    <glyph glyph-name="Gbreve" unicode="&#x11e;" horiz-adv-x="700" 
d="M243 700h217c62 0 87 -8 107 -28c35 -34 45 -80 48 -178h-51c-3 83 -11 121 -32 142c-13 12 -27 19 -75 19h-210c-49 0 -63 -7 -76 -20c-20 -20 -35 -60 -35 -285s15 -265 35 -285c13 -13 27 -20 76 -20h210c48 0 62 7 75 20c20 20 34 48 34 221v12h-212v45h264v-29
c0 -215 -16 -252 -51 -286c-20 -20 -45 -28 -107 -28h-217c-62 0 -87 8 -107 28c-35 34 -52 84 -52 322s17 288 52 322c20 20 46 28 107 28zM353 816c71 0 110 33 119 86h33c-7 -79 -58 -128 -152 -128s-145 49 -152 128h33c9 -53 48 -86 119 -86z" />
    <glyph glyph-name="gbreve" unicode="&#x11f;" horiz-adv-x="594" 
d="M382 -150h-185c-46 0 -69 10 -84 25c-22 22 -29 42 -30 102h50c2 -44 6 -56 20 -70c9 -9 22 -15 56 -15h167c28 0 42 5 53 16c12 12 21 26 21 89v116c-72 -58 -102 -76 -165 -76h-55c-63 0 -94 11 -117 34c-33 33 -41 78 -41 214s8 180 41 214c23 23 54 33 117 33h55
c63 0 93 -19 165 -76v75h50v-530c0 -76 -11 -103 -34 -126c-17 -17 -40 -25 -84 -25zM296 81c56 0 88 19 154 65v277c-67 47 -98 66 -155 66h-58c-51 0 -70 -9 -86 -25c-22 -23 -29 -56 -29 -179c0 -124 7 -156 29 -179c16 -16 35 -25 86 -25h59zM291 648
c71 0 110 33 119 86h33c-7 -79 -58 -128 -152 -128s-145 49 -152 128h33c9 -53 48 -86 119 -86z" />
    <glyph glyph-name="Gcommaaccent" unicode="&#x122;" horiz-adv-x="700" 
d="M319 -70h71v-72c0 -25 -3 -36 -15 -51l-68 -91l-20 14l59 91c6 9 6 16 6 27v7h-33v75zM243 700h217c62 0 87 -8 107 -28c35 -34 45 -80 48 -178h-51c-3 83 -11 121 -32 142c-13 12 -27 19 -75 19h-210c-49 0 -63 -7 -76 -20c-20 -20 -35 -60 -35 -285s15 -265 35 -285
c13 -13 27 -20 76 -20h210c48 0 62 7 75 20c20 20 34 48 34 221v12h-212v45h264v-29c0 -215 -16 -252 -51 -286c-20 -20 -45 -28 -107 -28h-217c-62 0 -87 8 -107 28c-35 34 -52 84 -52 322s17 288 52 322c20 20 46 28 107 28z" />
    <glyph glyph-name="gcommaaccent" unicode="&#x123;" horiz-adv-x="594" 
d="M382 -150h-185c-46 0 -69 10 -84 25c-22 22 -29 42 -30 102h50c2 -44 6 -56 20 -70c9 -9 22 -15 56 -15h167c28 0 42 5 53 16c12 12 21 26 21 89v116c-72 -58 -102 -76 -165 -76h-55c-63 0 -94 11 -117 34c-33 33 -41 78 -41 214s8 180 41 214c23 23 54 33 117 33h55
c63 0 93 -19 165 -76v75h50v-530c0 -76 -11 -103 -34 -126c-17 -17 -40 -25 -84 -25zM296 81c56 0 88 19 154 65v277c-67 47 -98 66 -155 66h-58c-51 0 -70 -9 -86 -25c-22 -23 -29 -56 -29 -179c0 -124 7 -156 29 -179c16 -16 35 -25 86 -25h59zM329 645h-71v72
c0 25 3 36 15 51l68 91l20 -14l-59 -91c-6 -9 -6 -16 -6 -27v-7h33v-75z" />
    <glyph glyph-name="Gdotaccent" unicode="&#x120;" horiz-adv-x="700" 
d="M243 700h217c62 0 87 -8 107 -28c35 -34 45 -80 48 -178h-51c-3 83 -11 121 -32 142c-13 12 -27 19 -75 19h-210c-49 0 -63 -7 -76 -20c-20 -20 -35 -60 -35 -285s15 -265 35 -285c13 -13 27 -20 76 -20h210c48 0 62 7 75 20c20 20 34 48 34 221v12h-212v45h264v-29
c0 -215 -16 -252 -51 -286c-20 -20 -45 -28 -107 -28h-217c-62 0 -87 8 -107 28c-35 34 -52 84 -52 322s17 288 52 322c20 20 46 28 107 28zM321 806v83h64v-83h-64z" />
    <glyph glyph-name="gdotaccent" unicode="&#x121;" horiz-adv-x="594" 
d="M382 -150h-185c-46 0 -69 10 -84 25c-22 22 -29 42 -30 102h50c2 -44 6 -56 20 -70c9 -9 22 -15 56 -15h167c28 0 42 5 53 16c12 12 21 26 21 89v116c-72 -58 -102 -76 -165 -76h-55c-63 0 -94 11 -117 34c-33 33 -41 78 -41 214s8 180 41 214c23 23 54 33 117 33h55
c63 0 93 -19 165 -76v75h50v-530c0 -76 -11 -103 -34 -126c-17 -17 -40 -25 -84 -25zM296 81c56 0 88 19 154 65v277c-67 47 -98 66 -155 66h-58c-51 0 -70 -9 -86 -25c-22 -23 -29 -56 -29 -179c0 -124 7 -156 29 -179c16 -16 35 -25 86 -25h59zM259 638v83h64v-83h-64z
" />
    <glyph glyph-name="Hbar" unicode="&#x126;" horiz-adv-x="746" 
d="M640 700v-141h101v-43h-101v-516h-52v338h-430v-338h-52v516h-101v43h101v141h52v-141h430v141h52zM158 383h430v133h-430v-133z" />
    <glyph glyph-name="hbar" unicode="&#x127;" 
d="M143 0h-50v592h-89v40h89v88h50v-88h165v-40h-165v-137c73 58 101 77 166 77h73c52 0 73 -7 92 -26c21 -21 27 -52 27 -94v-412h-50v408c0 34 -5 51 -18 64c-11 11 -23 16 -65 16h-70c-54 0 -84 -14 -155 -66v-422z" />
    <glyph glyph-name="Iacute" unicode="&#xcd;" horiz-adv-x="267" 
d="M160 0h-53v700h53v-700zM97 772v5l99 117h76v-5l-135 -117h-40z" />
    <glyph glyph-name="iacute" unicode="&#xed;" horiz-adv-x="242" 
d="M84 604v5l99 117h76v-5l-135 -117h-40zM146 531v-531h-50v531h50z" />
    <glyph glyph-name="Ibreve" unicode="&#x12c;" horiz-adv-x="267" 
d="M160 0h-53v700h53v-700zM134 816c71 0 110 33 119 86h33c-7 -79 -58 -128 -152 -128s-145 49 -152 128h33c9 -53 48 -86 119 -86z" />
    <glyph glyph-name="ibreve" unicode="&#x12d;" horiz-adv-x="242" 
d="M146 531v-531h-50v531h50zM121 648c71 0 110 33 119 86h33c-7 -79 -58 -128 -152 -128s-145 49 -152 128h33c9 -53 48 -86 119 -86z" />
    <glyph glyph-name="Icircumflex" unicode="&#xce;" horiz-adv-x="267" 
d="M160 0h-53v700h53v-700zM253 775l-120 88l-119 -88h-36v5l129 122h54l129 -122v-5h-37z" />
    <glyph glyph-name="icircumflex" unicode="&#xee;" horiz-adv-x="242" 
d="M146 531v-531h-50v531h50zM240 607l-120 88l-119 -88h-36v5l129 122h54l129 -122v-5h-37z" />
    <glyph glyph-name="Idieresis" unicode="&#xcf;" horiz-adv-x="267" 
d="M160 0h-53v700h53v-700zM10 804v82h63v-82h-63zM195 804v82h63v-82h-63z" />
    <glyph glyph-name="idieresis" unicode="&#xef;" horiz-adv-x="242" 
d="M-3 636v82h63v-82h-63zM182 636v82h63v-82h-63zM146 531v-531h-50v531h50z" />
    <glyph glyph-name="Idotaccent" unicode="&#x130;" horiz-adv-x="267" 
d="M160 0h-53v700h53v-700zM102 806v83h64v-83h-64z" />
    <glyph glyph-name="dotlessi" unicode="&#x131;" horiz-adv-x="242" 
d="M146 531v-531h-50v531h50z" />
    <glyph glyph-name="Igrave" unicode="&#xcc;" horiz-adv-x="267" 
d="M160 0h-53v700h53v-700zM170 772h-39l-135 117v5h76l98 -117v-5z" />
    <glyph glyph-name="igrave" unicode="&#xec;" horiz-adv-x="242" 
d="M146 531v-531h-50v531h50zM158 604h-39l-135 117v5h76l98 -117v-5z" />
    <glyph glyph-name="Imacron" unicode="&#x12a;" horiz-adv-x="267" 
d="M160 0h-53v700h53v-700zM-8 790v41h284v-41h-284z" />
    <glyph glyph-name="imacron" unicode="&#x12b;" horiz-adv-x="242" 
d="M146 531v-531h-50v531h50zM-21 622v41h284v-41h-284z" />
    <glyph glyph-name="Iogonek" unicode="&#x12e;" horiz-adv-x="269" 
d="M161 0h-18c-17 -14 -37 -31 -45 -45c-11 -15 -13 -28 -13 -52c0 -36 1 -46 9 -53c5 -5 12 -8 27 -8h28c14 0 20 3 26 8c7 7 9 18 9 59h39c0 -56 -4 -75 -19 -89c-10 -10 -24 -14 -49 -14h-43c-25 0 -40 4 -50 14c-15 14 -19 33 -19 73c0 25 2 41 13 59c10 17 30 34 52 52
v696h53v-700z" />
    <glyph glyph-name="iogonek" unicode="&#x12f;" horiz-adv-x="242" 
d="M145 531v-531h-15c-17 -14 -37 -31 -46 -45c-10 -15 -13 -28 -13 -52c0 -36 2 -46 9 -53c6 -5 13 -8 27 -8h29c14 0 20 3 26 8c7 7 9 18 9 59h39c0 -56 -4 -75 -19 -89c-10 -10 -24 -14 -49 -14h-43c-25 0 -40 4 -50 14c-15 14 -19 33 -19 73c0 25 1 41 13 59
c10 17 29 35 52 52v527h50zM152 730v-83h-64v83h64z" />
    <glyph glyph-name="Kcommaaccent" unicode="&#x136;" horiz-adv-x="628" 
d="M534 700h64l-307 -334l313 -366h-64l-290 341h-92v-341h-52v700h52v-314h89zM305 -70h71v-72c0 -25 -3 -36 -15 -51l-68 -91l-20 14l59 91c6 9 6 16 6 27v7h-33v75z" />
    <glyph glyph-name="kcommaaccent" unicode="&#x137;" horiz-adv-x="512" 
d="M143 0h-50v720h50v-432h67l213 243h61l-231 -262l241 -269h-65l-218 245h-68v-245zM247 -70h71v-72c0 -25 -3 -36 -15 -51l-68 -91l-20 14l59 91c6 9 6 16 6 27v7h-33v75z" />
    <glyph glyph-name="Lacute" unicode="&#x139;" horiz-adv-x="568" 
d="M111 772v5l99 117h76v-5l-135 -117h-40zM158 700v-655h369v-45h-421v700h52z" />
    <glyph glyph-name="lacute" unicode="&#x13a;" horiz-adv-x="237" 
d="M78 772v5l99 117h76v-5l-135 -117h-40zM143 0h-50v720h50v-720z" />
    <glyph glyph-name="Lcaron" unicode="&#x13d;" horiz-adv-x="568" 
d="M158 700v-655h369v-45h-421v700h52zM268 554l-20 7l22 94c2 10 3 17 3 24c0 8 -1 14 -3 25l-15 77v19h60v-73c0 -42 -1 -58 -16 -90z" />
    <glyph glyph-name="lcaron" unicode="&#x13e;" horiz-adv-x="237" 
d="M143 0h-50v720h50v-720zM238 554l-20 7l22 94c2 10 3 17 3 24c0 8 -1 14 -3 25l-15 77v19h60v-73c0 -42 -1 -58 -16 -90z" />
    <glyph glyph-name="Lcommaaccent" unicode="&#x13b;" horiz-adv-x="568" 
d="M278 -70h71v-72c0 -25 -3 -36 -15 -51l-68 -91l-20 14l59 91c6 9 6 16 6 27v7h-33v75zM158 700v-655h369v-45h-421v700h52z" />
    <glyph glyph-name="lcommaaccent" unicode="&#x13c;" horiz-adv-x="237" 
d="M84 -70h71v-72c0 -25 -3 -36 -15 -51l-68 -91l-20 14l59 91c6 9 6 16 6 27v7h-33v75zM143 0h-50v720h50v-720z" />
    <glyph glyph-name="Ldot" unicode="&#x13f;" horiz-adv-x="568" 
d="M396 352v83h63v-83h-63zM158 700v-655h369v-45h-421v700h52z" />
    <glyph glyph-name="ldot" unicode="&#x140;" horiz-adv-x="330" 
d="M315 288h-63v83h63v-83zM143 0h-50v720h50v-720z" />
    <glyph glyph-name="Lslash" unicode="&#x141;" horiz-adv-x="572" 
d="M161 700v-312l187 55v-44l-187 -55v-299h369v-45h-421v328l-100 -29v45l100 29v327h52z" />
    <glyph glyph-name="lslash" unicode="&#x142;" horiz-adv-x="251" 
d="M150 0h-50v345l-91 -26v45l91 26v330h50v-315l91 26v-45l-91 -26v-360z" />
    <glyph glyph-name="Nacute" unicode="&#x143;" horiz-adv-x="730" 
d="M330 772v5l99 117h76v-5l-135 -117h-40zM624 700v-701h-54c-21 0 -30 6 -39 24l-364 615h-11v-638h-50v700h56c22 0 30 -5 40 -24l361 -608h10v632h51z" />
    <glyph glyph-name="nacute" unicode="&#x144;" 
d="M143 0h-50v531h50v-76c73 58 101 77 166 77h73c52 0 73 -7 92 -26c21 -21 27 -52 27 -94v-412h-50v408c0 34 -5 51 -18 64c-11 11 -23 16 -65 16h-70c-54 0 -84 -14 -155 -66v-422zM265 604v5l99 117h76v-5l-135 -117h-40z" />
    <glyph glyph-name="Ncaron" unicode="&#x147;" horiz-adv-x="730" 
d="M624 700v-701h-54c-21 0 -30 6 -39 24l-364 615h-11v-638h-50v700h56c22 0 30 -5 40 -24l361 -608h10v632h51zM339 775l-129 122v5h37l119 -88l120 88h36v-5l-129 -122h-54z" />
    <glyph glyph-name="ncaron" unicode="&#x148;" 
d="M143 0h-50v531h50v-76c73 58 101 77 166 77h73c52 0 73 -7 92 -26c21 -21 27 -52 27 -94v-412h-50v408c0 34 -5 51 -18 64c-11 11 -23 16 -65 16h-70c-54 0 -84 -14 -155 -66v-422zM274 607l-129 122v5h37l119 -88l120 88h36v-5l-129 -122h-54z" />
    <glyph glyph-name="Ncommaaccent" unicode="&#x145;" horiz-adv-x="730" 
d="M332 -70h71v-72c0 -25 -3 -36 -15 -51l-68 -91l-20 14l59 91c6 9 6 16 6 27v7h-33v75zM624 700v-701h-54c-21 0 -30 6 -39 24l-364 615h-11v-638h-50v700h56c22 0 30 -5 40 -24l361 -608h10v632h51z" />
    <glyph glyph-name="ncommaaccent" unicode="&#x146;" 
d="M143 0h-50v531h50v-76c73 58 101 77 166 77h73c52 0 73 -7 92 -26c21 -21 27 -52 27 -94v-412h-50v408c0 34 -5 51 -18 64c-11 11 -23 16 -65 16h-70c-54 0 -84 -14 -155 -66v-422zM267 -70h71v-72c0 -25 -3 -36 -15 -51l-68 -91l-20 14l59 91c6 9 6 16 6 27v7h-33v75z
" />
    <glyph glyph-name="Ntilde" unicode="&#xd1;" horiz-adv-x="730" 
d="M624 700v-701h-54c-21 0 -30 6 -39 24l-364 615h-11v-638h-50v700h56c22 0 30 -5 40 -24l361 -608h10v632h51zM224 788v69c0 14 2 25 7 32c6 7 14 9 26 9h8c14 0 24 -3 46 -11l156 -62l16 72h27v-69c0 -14 -2 -25 -7 -32c-6 -7 -14 -9 -26 -9h-8c-14 0 -24 3 -46 11
l-156 62l-16 -72h-27z" />
    <glyph glyph-name="ntilde" unicode="&#xf1;" 
d="M143 0h-50v531h50v-76c73 58 101 77 166 77h73c52 0 73 -7 92 -26c21 -21 27 -52 27 -94v-412h-50v408c0 34 -5 51 -18 64c-11 11 -23 16 -65 16h-70c-54 0 -84 -14 -155 -66v-422zM159 620v69c0 14 2 25 7 32c6 7 14 9 26 9h8c14 0 24 -3 46 -11l156 -62l16 72h27v-69
c0 -14 -2 -25 -7 -32c-6 -7 -14 -9 -26 -9h-8c-14 0 -24 3 -46 11l-156 62l-16 -72h-27z" />
    <glyph glyph-name="Oacute" unicode="&#xd3;" horiz-adv-x="717" 
d="M321 772v5l99 117h76v-5l-135 -117h-40zM245 700h228c61 0 86 -8 107 -28c34 -34 53 -84 53 -322s-19 -288 -53 -322c-21 -20 -46 -28 -107 -28h-228c-62 0 -87 8 -107 28c-35 34 -54 84 -54 322s19 288 54 322c20 20 45 28 107 28zM136 350c0 -225 17 -265 38 -285
c12 -13 26 -20 75 -20h220c48 0 63 7 75 20c20 20 36 60 36 285s-16 265 -36 285c-12 13 -27 20 -75 20h-220c-49 0 -63 -7 -75 -20c-21 -20 -38 -60 -38 -285z" />
    <glyph glyph-name="oacute" unicode="&#xf3;" horiz-adv-x="581" 
d="M253 604v5l99 117h76v-5l-135 -117h-40zM228 0c-55 0 -86 6 -109 30c-34 33 -48 77 -48 236s14 202 48 236c23 23 54 29 109 29h125c56 0 86 -6 110 -29c33 -34 47 -77 47 -236s-14 -203 -47 -236c-24 -24 -54 -30 -110 -30h-125zM121 266c0 -151 11 -181 32 -202
c16 -16 35 -20 79 -20h117c44 0 64 4 79 20c21 21 32 51 32 202c0 150 -11 180 -32 201c-15 16 -35 20 -79 20h-117c-44 0 -63 -4 -79 -20c-21 -21 -32 -51 -32 -201z" />
    <glyph glyph-name="Obreve" unicode="&#x14e;" horiz-adv-x="717" 
d="M245 700h228c61 0 86 -8 107 -28c34 -34 53 -84 53 -322s-19 -288 -53 -322c-21 -20 -46 -28 -107 -28h-228c-62 0 -87 8 -107 28c-35 34 -54 84 -54 322s19 288 54 322c20 20 45 28 107 28zM136 350c0 -225 17 -265 38 -285c12 -13 26 -20 75 -20h220c48 0 63 7 75 20
c20 20 36 60 36 285s-16 265 -36 285c-12 13 -27 20 -75 20h-220c-49 0 -63 -7 -75 -20c-21 -20 -38 -60 -38 -285zM358 816c71 0 110 33 119 86h33c-7 -79 -58 -128 -152 -128s-145 49 -152 128h33c9 -53 48 -86 119 -86z" />
    <glyph glyph-name="obreve" unicode="&#x14f;" horiz-adv-x="581" 
d="M228 0c-55 0 -86 6 -109 30c-34 33 -48 77 -48 236s14 202 48 236c23 23 54 29 109 29h125c56 0 86 -6 110 -29c33 -34 47 -77 47 -236s-14 -203 -47 -236c-24 -24 -54 -30 -110 -30h-125zM121 266c0 -151 11 -181 32 -202c16 -16 35 -20 79 -20h117c44 0 64 4 79 20
c21 21 32 51 32 202c0 150 -11 180 -32 201c-15 16 -35 20 -79 20h-117c-44 0 -63 -4 -79 -20c-21 -21 -32 -51 -32 -201zM290 648c71 0 110 33 119 86h33c-7 -79 -58 -128 -152 -128s-145 49 -152 128h33c9 -53 48 -86 119 -86z" />
    <glyph glyph-name="Ocircumflex" unicode="&#xd4;" horiz-adv-x="717" 
d="M245 700h228c61 0 86 -8 107 -28c34 -34 53 -84 53 -322s-19 -288 -53 -322c-21 -20 -46 -28 -107 -28h-228c-62 0 -87 8 -107 28c-35 34 -54 84 -54 322s19 288 54 322c20 20 45 28 107 28zM136 350c0 -225 17 -265 38 -285c12 -13 26 -20 75 -20h220c48 0 63 7 75 20
c20 20 36 60 36 285s-16 265 -36 285c-12 13 -27 20 -75 20h-220c-49 0 -63 -7 -75 -20c-21 -20 -38 -60 -38 -285zM477 775l-120 88l-119 -88h-36v5l129 122h54l129 -122v-5h-37z" />
    <glyph glyph-name="ocircumflex" unicode="&#xf4;" horiz-adv-x="581" 
d="M228 0c-55 0 -86 6 -109 30c-34 33 -48 77 -48 236s14 202 48 236c23 23 54 29 109 29h125c56 0 86 -6 110 -29c33 -34 47 -77 47 -236s-14 -203 -47 -236c-24 -24 -54 -30 -110 -30h-125zM121 266c0 -151 11 -181 32 -202c16 -16 35 -20 79 -20h117c44 0 64 4 79 20
c21 21 32 51 32 202c0 150 -11 180 -32 201c-15 16 -35 20 -79 20h-117c-44 0 -63 -4 -79 -20c-21 -21 -32 -51 -32 -201zM409 607l-120 88l-119 -88h-36v5l129 122h54l129 -122v-5h-37z" />
    <glyph glyph-name="Odieresis" unicode="&#xd6;" horiz-adv-x="717" 
d="M234 804v82h63v-82h-63zM419 804v82h63v-82h-63zM245 700h228c61 0 86 -8 107 -28c34 -34 53 -84 53 -322s-19 -288 -53 -322c-21 -20 -46 -28 -107 -28h-228c-62 0 -87 8 -107 28c-35 34 -54 84 -54 322s19 288 54 322c20 20 45 28 107 28zM136 350
c0 -225 17 -265 38 -285c12 -13 26 -20 75 -20h220c48 0 63 7 75 20c20 20 36 60 36 285s-16 265 -36 285c-12 13 -27 20 -75 20h-220c-49 0 -63 -7 -75 -20c-21 -20 -38 -60 -38 -285z" />
    <glyph glyph-name="odieresis" unicode="&#xf6;" horiz-adv-x="581" 
d="M166 636v82h63v-82h-63zM351 636v82h63v-82h-63zM228 0c-55 0 -86 6 -109 30c-34 33 -48 77 -48 236s14 202 48 236c23 23 54 29 109 29h125c56 0 86 -6 110 -29c33 -34 47 -77 47 -236s-14 -203 -47 -236c-24 -24 -54 -30 -110 -30h-125zM121 266
c0 -151 11 -181 32 -202c16 -16 35 -20 79 -20h117c44 0 64 4 79 20c21 21 32 51 32 202c0 150 -11 180 -32 201c-15 16 -35 20 -79 20h-117c-44 0 -63 -4 -79 -20c-21 -21 -32 -51 -32 -201z" />
    <glyph glyph-name="Ograve" unicode="&#xd2;" horiz-adv-x="717" 
d="M245 700h228c61 0 86 -8 107 -28c34 -34 53 -84 53 -322s-19 -288 -53 -322c-21 -20 -46 -28 -107 -28h-228c-62 0 -87 8 -107 28c-35 34 -54 84 -54 322s19 288 54 322c20 20 45 28 107 28zM136 350c0 -225 17 -265 38 -285c12 -13 26 -20 75 -20h220c48 0 63 7 75 20
c20 20 36 60 36 285s-16 265 -36 285c-12 13 -27 20 -75 20h-220c-49 0 -63 -7 -75 -20c-21 -20 -38 -60 -38 -285zM394 772h-39l-135 117v5h76l98 -117v-5z" />
    <glyph glyph-name="ograve" unicode="&#xf2;" horiz-adv-x="581" 
d="M228 0c-55 0 -86 6 -109 30c-34 33 -48 77 -48 236s14 202 48 236c23 23 54 29 109 29h125c56 0 86 -6 110 -29c33 -34 47 -77 47 -236s-14 -203 -47 -236c-24 -24 -54 -30 -110 -30h-125zM121 266c0 -151 11 -181 32 -202c16 -16 35 -20 79 -20h117c44 0 64 4 79 20
c21 21 32 51 32 202c0 150 -11 180 -32 201c-15 16 -35 20 -79 20h-117c-44 0 -63 -4 -79 -20c-21 -21 -32 -51 -32 -201zM326 604h-39l-135 117v5h76l98 -117v-5z" />
    <glyph glyph-name="Ohungarumlaut" unicode="&#x150;" horiz-adv-x="717" 
d="M252 772v5l98 117h73v-5l-133 -117h-38zM407 772v5l100 117h73v-5l-135 -117h-38zM245 700h228c61 0 86 -8 107 -28c34 -34 53 -84 53 -322s-19 -288 -53 -322c-21 -20 -46 -28 -107 -28h-228c-62 0 -87 8 -107 28c-35 34 -54 84 -54 322s19 288 54 322
c20 20 45 28 107 28zM136 350c0 -225 17 -265 38 -285c12 -13 26 -20 75 -20h220c48 0 63 7 75 20c20 20 36 60 36 285s-16 265 -36 285c-12 13 -27 20 -75 20h-220c-49 0 -63 -7 -75 -20c-21 -20 -38 -60 -38 -285z" />
    <glyph glyph-name="ohungarumlaut" unicode="&#x151;" horiz-adv-x="581" 
d="M183 604v5l98 117h73v-5l-133 -117h-38zM338 604v5l100 117h73v-5l-135 -117h-38zM228 0c-55 0 -86 6 -109 30c-34 33 -48 77 -48 236s14 202 48 236c23 23 54 29 109 29h125c56 0 86 -6 110 -29c33 -34 47 -77 47 -236s-14 -203 -47 -236c-24 -24 -54 -30 -110 -30h-125
zM121 266c0 -151 11 -181 32 -202c16 -16 35 -20 79 -20h117c44 0 64 4 79 20c21 21 32 51 32 202c0 150 -11 180 -32 201c-15 16 -35 20 -79 20h-117c-44 0 -63 -4 -79 -20c-21 -21 -32 -51 -32 -201z" />
    <glyph glyph-name="Omacron" unicode="&#x14c;" horiz-adv-x="717" 
d="M216 790v41h284v-41h-284zM245 700h228c61 0 86 -8 107 -28c34 -34 53 -84 53 -322s-19 -288 -53 -322c-21 -20 -46 -28 -107 -28h-228c-62 0 -87 8 -107 28c-35 34 -54 84 -54 322s19 288 54 322c20 20 45 28 107 28zM136 350c0 -225 17 -265 38 -285
c12 -13 26 -20 75 -20h220c48 0 63 7 75 20c20 20 36 60 36 285s-16 265 -36 285c-12 13 -27 20 -75 20h-220c-49 0 -63 -7 -75 -20c-21 -20 -38 -60 -38 -285z" />
    <glyph glyph-name="omacron" unicode="&#x14d;" horiz-adv-x="581" 
d="M148 622v41h284v-41h-284zM228 0c-55 0 -86 6 -109 30c-34 33 -48 77 -48 236s14 202 48 236c23 23 54 29 109 29h125c56 0 86 -6 110 -29c33 -34 47 -77 47 -236s-14 -203 -47 -236c-24 -24 -54 -30 -110 -30h-125zM121 266c0 -151 11 -181 32 -202
c16 -16 35 -20 79 -20h117c44 0 64 4 79 20c21 21 32 51 32 202c0 150 -11 180 -32 201c-15 16 -35 20 -79 20h-117c-44 0 -63 -4 -79 -20c-21 -21 -32 -51 -32 -201z" />
    <glyph glyph-name="Oslash" unicode="&#xd8;" horiz-adv-x="717" 
d="M245 700h228c9 0 17 0 25 -1l26 54h50l-29 -61c14 -4 25 -11 35 -20c34 -34 53 -84 53 -322s-19 -288 -53 -322c-21 -20 -46 -28 -107 -28h-228h-27l-25 -53h-50l29 60c-15 5 -25 12 -34 21c-35 34 -54 84 -54 322s19 288 54 322c20 20 45 28 107 28zM136 350
c0 -225 17 -265 38 -285c5 -6 11 -11 20 -14l284 604h-9h-220c-49 0 -63 -7 -75 -20c-21 -20 -38 -60 -38 -285zM544 635c-6 6 -12 10 -21 14l-284 -604h10h220c48 0 63 7 75 20c20 20 36 60 36 285s-16 265 -36 285z" />
    <glyph glyph-name="oslash" unicode="&#xf8;" horiz-adv-x="583" 
d="M229 0c-19 0 -35 0 -49 2l-27 -52h-48l33 65c-7 4 -13 9 -19 15c-33 33 -47 77 -47 236s14 202 47 236c24 23 54 29 110 29h124c17 0 32 -1 45 -2l31 61h48l-37 -72c8 -4 16 -9 23 -16c34 -34 47 -77 47 -236s-13 -203 -47 -236c-23 -24 -54 -30 -110 -30h-124zM429 467
c-4 4 -8 7 -13 10l-215 -432c9 -1 19 -1 32 -1h117c44 0 63 4 79 20c21 21 31 51 31 202c0 150 -10 180 -31 201zM122 266c0 -151 11 -181 31 -202c2 -3 5 -5 8 -7l215 429c-7 1 -16 1 -26 1h-117c-44 0 -64 -4 -80 -20c-20 -21 -31 -51 -31 -201z" />
    <glyph glyph-name="Oslashacute" unicode="&#x1fe;" horiz-adv-x="717" 
d="M245 700h228c9 0 17 0 25 -1l26 54h50l-29 -61c14 -4 25 -11 35 -20c34 -34 53 -84 53 -322s-19 -288 -53 -322c-21 -20 -46 -28 -107 -28h-228h-27l-25 -53h-50l29 60c-15 5 -25 12 -34 21c-35 34 -54 84 -54 322s19 288 54 322c20 20 45 28 107 28zM136 350
c0 -225 17 -265 38 -285c5 -6 11 -11 20 -14l284 604h-9h-220c-49 0 -63 -7 -75 -20c-21 -20 -38 -60 -38 -285zM544 635c-6 6 -12 10 -21 14l-284 -604h10h220c48 0 63 7 75 20c20 20 36 60 36 285s-16 265 -36 285zM327 772v5l99 117h76v-5l-135 -117h-40z" />
    <glyph glyph-name="oslashacute" unicode="&#x1ff;" horiz-adv-x="583" 
d="M229 0c-19 0 -35 0 -49 2l-27 -52h-48l33 65c-7 4 -13 9 -19 15c-33 33 -47 77 -47 236s14 202 47 236c24 23 54 29 110 29h124c17 0 32 -1 45 -2l31 61h48l-37 -72c8 -4 16 -9 23 -16c34 -34 47 -77 47 -236s-13 -203 -47 -236c-23 -24 -54 -30 -110 -30h-124zM429 467
c-4 4 -8 7 -13 10l-215 -432c9 -1 19 -1 32 -1h117c44 0 63 4 79 20c21 21 31 51 31 202c0 150 -10 180 -31 201zM122 266c0 -151 11 -181 31 -202c2 -3 5 -5 8 -7l215 429c-7 1 -16 1 -26 1h-117c-44 0 -64 -4 -80 -20c-20 -21 -31 -51 -31 -201zM260 604v5l99 117h76v-5
l-135 -117h-40z" />
    <glyph glyph-name="Otilde" unicode="&#xd5;" horiz-adv-x="717" 
d="M245 700h228c61 0 86 -8 107 -28c34 -34 53 -84 53 -322s-19 -288 -53 -322c-21 -20 -46 -28 -107 -28h-228c-62 0 -87 8 -107 28c-35 34 -54 84 -54 322s19 288 54 322c20 20 45 28 107 28zM136 350c0 -225 17 -265 38 -285c12 -13 26 -20 75 -20h220c48 0 63 7 75 20
c20 20 36 60 36 285s-16 265 -36 285c-12 13 -27 20 -75 20h-220c-49 0 -63 -7 -75 -20c-21 -20 -38 -60 -38 -285zM215 788v69c0 14 2 25 7 32c6 7 14 9 26 9h8c14 0 24 -3 46 -11l156 -62l16 72h27v-69c0 -14 -2 -25 -7 -32c-6 -7 -14 -9 -26 -9h-8c-14 0 -24 3 -46 11
l-156 62l-16 -72h-27z" />
    <glyph glyph-name="otilde" unicode="&#xf5;" horiz-adv-x="581" 
d="M228 0c-55 0 -86 6 -109 30c-34 33 -48 77 -48 236s14 202 48 236c23 23 54 29 109 29h125c56 0 86 -6 110 -29c33 -34 47 -77 47 -236s-14 -203 -47 -236c-24 -24 -54 -30 -110 -30h-125zM121 266c0 -151 11 -181 32 -202c16 -16 35 -20 79 -20h117c44 0 64 4 79 20
c21 21 32 51 32 202c0 150 -11 180 -32 201c-15 16 -35 20 -79 20h-117c-44 0 -63 -4 -79 -20c-21 -21 -32 -51 -32 -201zM147 620v69c0 14 2 25 7 32c6 7 14 9 26 9h8c14 0 24 -3 46 -11l156 -62l16 72h27v-69c0 -14 -2 -25 -7 -32c-6 -7 -14 -9 -26 -9h-8
c-14 0 -24 3 -46 11l-156 62l-16 -72h-27z" />
    <glyph glyph-name="OE" unicode="&#x152;" horiz-adv-x="1062" 
d="M995 0h-714c-68 0 -103 12 -131 39c-40 39 -69 110 -69 311s29 272 69 311c28 27 63 39 131 39h719v-45h-394v-268h345v-45h-345v-297h389v-45zM134 350c0 -187 26 -249 54 -277c20 -20 41 -28 93 -28h273v610h-273c-52 0 -72 -8 -93 -28c-28 -28 -54 -90 -54 -277z" />
    <glyph glyph-name="oe" unicode="&#x153;" horiz-adv-x="967" 
d="M349 0h-121c-55 0 -86 6 -109 30c-34 33 -48 77 -48 236s14 202 48 236c23 23 54 29 109 29h121c56 0 86 -6 109 -29c12 -12 20 -25 27 -43c6 18 15 31 27 43c23 23 53 29 109 29h119c56 0 87 -6 110 -29c33 -33 46 -78 46 -230v-10c0 -8 -3 -12 -12 -12h-374
c1 -136 12 -167 32 -186c16 -16 34 -21 78 -21h128c42 0 60 5 76 21c15 15 22 37 24 97h48c-3 -81 -12 -108 -37 -133c-22 -22 -50 -28 -104 -28h-134c-56 0 -86 6 -109 30c-12 11 -21 24 -27 42c-7 -18 -15 -31 -27 -42c-23 -24 -53 -30 -109 -30zM121 266
c0 -151 11 -181 32 -202c16 -16 35 -20 79 -20h117c44 0 64 4 79 20c21 21 32 51 32 202c0 150 -11 180 -32 201c-15 16 -35 20 -79 20h-117c-44 0 -63 -4 -79 -20c-21 -21 -32 -51 -32 -201zM542 468c-20 -20 -31 -50 -32 -178h336c0 126 -11 157 -31 178
c-15 15 -35 20 -79 20h-116c-44 0 -62 -5 -78 -20z" />
    <glyph glyph-name="Racute" unicode="&#x154;" horiz-adv-x="685" 
d="M306 772v5l99 117h76v-5l-135 -117h-40zM158 361h272c42 0 61 8 75 23c14 14 33 39 33 124c0 87 -17 113 -32 128c-14 14 -36 19 -74 19h-274v-294zM533 177c-3 81 -12 102 -27 117c-16 15 -38 22 -83 22h-265v-316h-52v700h336c51 0 82 -7 104 -30
c27 -27 44 -60 44 -160c0 -120 -35 -155 -96 -172v-1c65 -17 87 -38 91 -158c3 -71 7 -135 13 -179h-52c-7 47 -11 112 -13 177z" />
    <glyph glyph-name="racute" unicode="&#x155;" horiz-adv-x="379" 
d="M143 0h-50v531h50v-92c75 78 95 93 142 93h64v-51h-68c-40 0 -66 -10 -138 -73v-408zM182 604v5l99 117h76v-5l-135 -117h-40z" />
    <glyph glyph-name="Rcaron" unicode="&#x158;" horiz-adv-x="685" 
d="M533 177c-3 81 -12 102 -27 117c-16 15 -38 22 -83 22h-265v-316h-52v700h336c51 0 82 -7 104 -30c27 -27 44 -60 44 -160c0 -120 -35 -155 -96 -172v-1c65 -17 87 -38 91 -158c3 -71 7 -135 13 -179h-52c-7 47 -11 112 -13 177zM158 361h272c42 0 61 8 75 23
c14 14 33 39 33 124c0 87 -17 113 -32 128c-14 14 -36 19 -74 19h-274v-294zM315 775l-129 122v5h37l119 -88l120 88h36v-5l-129 -122h-54z" />
    <glyph glyph-name="rcaron" unicode="&#x159;" horiz-adv-x="379" 
d="M143 0h-50v531h50v-92c75 78 95 93 142 93h64v-51h-68c-40 0 -66 -10 -138 -73v-408zM192 607l-129 122v5h37l119 -88l120 88h36v-5l-129 -122h-54z" />
    <glyph glyph-name="Rcommaaccent" unicode="&#x156;" horiz-adv-x="675" 
d="M310 -70h71v-72c0 -25 -3 -36 -15 -51l-68 -91l-20 14l59 91c6 9 6 16 6 27v7h-33v75zM156 361h272c42 0 61 8 75 23c14 14 33 39 33 124c0 87 -17 113 -32 128c-14 14 -36 19 -74 19h-274v-294zM531 177c-3 81 -12 102 -27 117c-16 15 -38 22 -83 22h-265v-316h-52v700
h336c51 0 82 -7 104 -30c27 -27 44 -60 44 -160c0 -120 -35 -155 -96 -172v-1c65 -17 87 -38 91 -158c3 -71 7 -135 13 -179h-52c-7 47 -11 112 -13 177z" />
    <glyph glyph-name="rcommaaccent" unicode="&#x157;" horiz-adv-x="379" 
d="M143 0h-50v531h50v-92c75 78 95 93 142 93h64v-51h-68c-40 0 -66 -10 -138 -73v-408zM82 -70h71v-72c0 -25 -3 -36 -15 -51l-68 -91l-20 14l59 91c6 9 6 16 6 27v7h-33v75z" />
    <glyph glyph-name="Sacute" unicode="&#x15a;" horiz-adv-x="677" 
d="M299 772v5l99 117h76v-5l-135 -117h-40zM595 185c0 -90 -12 -127 -40 -155c-19 -19 -46 -30 -98 -30h-241c-49 0 -77 8 -98 28c-25 26 -36 49 -36 176h51c1 -108 8 -125 23 -140c14 -14 31 -19 65 -19h231c36 0 53 6 68 20c16 16 23 46 23 120c0 76 -4 95 -22 112
c-13 13 -28 18 -75 23l-218 20c-57 5 -86 16 -104 34c-22 22 -32 53 -32 142c0 82 11 125 40 154c19 19 46 30 97 30h219c49 0 77 -8 98 -28c27 -28 35 -56 36 -170h-51c-1 95 -7 118 -23 134c-14 14 -31 19 -65 19h-208c-36 0 -53 -6 -67 -20c-18 -18 -24 -52 -24 -118
c0 -73 6 -91 22 -107c13 -13 28 -17 75 -22l218 -20c57 -5 85 -16 104 -34c23 -24 32 -58 32 -149z" />
    <glyph glyph-name="sacute" unicode="&#x15b;" horiz-adv-x="551" 
d="M242 604v5l99 117h76v-5l-135 -117h-40zM482 145c0 -69 -11 -99 -33 -121c-17 -17 -40 -24 -78 -24h-187c-43 0 -69 9 -84 24c-22 22 -30 42 -30 132h47c1 -73 6 -86 19 -99c9 -8 22 -15 54 -15h173c26 0 40 6 50 16c12 11 21 26 21 86c0 55 -7 69 -15 77
c-9 9 -21 15 -64 18l-160 15c-54 5 -77 13 -92 28c-17 17 -26 41 -26 107s11 96 33 118c17 17 39 24 78 24h176c45 0 68 -9 82 -23c20 -20 30 -43 31 -128h-47c-1 68 -7 81 -20 94c-8 8 -22 15 -54 15h-161c-25 0 -38 -5 -49 -16c-12 -11 -21 -26 -21 -82
c0 -50 5 -63 14 -73c10 -9 21 -15 66 -19l160 -14c54 -5 77 -14 91 -28c20 -19 26 -46 26 -112z" />
    <glyph glyph-name="Scaron" unicode="&#x160;" horiz-adv-x="677" 
d="M595 185c0 -90 -12 -127 -40 -155c-19 -19 -46 -30 -98 -30h-241c-49 0 -77 8 -98 28c-25 26 -36 49 -36 176h51c1 -108 8 -125 23 -140c14 -14 31 -19 65 -19h231c36 0 53 6 68 20c16 16 23 46 23 120c0 76 -4 95 -22 112c-13 13 -28 18 -75 23l-218 20
c-57 5 -86 16 -104 34c-22 22 -32 53 -32 142c0 82 11 125 40 154c19 19 46 30 97 30h219c49 0 77 -8 98 -28c27 -28 35 -56 36 -170h-51c-1 95 -7 118 -23 134c-14 14 -31 19 -65 19h-208c-36 0 -53 -6 -67 -20c-18 -18 -24 -52 -24 -118c0 -73 6 -91 22 -107
c13 -13 28 -17 75 -22l218 -20c57 -5 85 -16 104 -34c23 -24 32 -58 32 -149zM308 775l-129 122v5h37l119 -88l120 88h36v-5l-129 -122h-54z" />
    <glyph glyph-name="scaron" unicode="&#x161;" horiz-adv-x="551" 
d="M482 145c0 -69 -11 -99 -33 -121c-17 -17 -40 -24 -78 -24h-187c-43 0 -69 9 -84 24c-22 22 -30 42 -30 132h47c1 -73 6 -86 19 -99c9 -8 22 -15 54 -15h173c26 0 40 6 50 16c12 11 21 26 21 86c0 55 -7 69 -15 77c-9 9 -21 15 -64 18l-160 15c-54 5 -77 13 -92 28
c-17 17 -26 41 -26 107s11 96 33 118c17 17 39 24 78 24h176c45 0 68 -9 82 -23c20 -20 30 -43 31 -128h-47c-1 68 -7 81 -20 94c-8 8 -22 15 -54 15h-161c-25 0 -38 -5 -49 -16c-12 -11 -21 -26 -21 -82c0 -50 5 -63 14 -73c10 -9 21 -15 66 -19l160 -14
c54 -5 77 -14 91 -28c20 -19 26 -46 26 -112zM251 607l-129 122v5h37l119 -88l120 88h36v-5l-129 -122h-54z" />
    <glyph glyph-name="Scedilla" unicode="&#x15e;" horiz-adv-x="677" 
d="M595 185c0 -90 -12 -127 -40 -155c-19 -19 -46 -30 -98 -30h-241c-49 0 -77 8 -98 28c-25 26 -36 49 -36 176h51c1 -108 8 -125 23 -140c14 -14 31 -19 65 -19h231c36 0 53 6 68 20c16 16 23 46 23 120c0 76 -4 95 -22 112c-13 13 -28 18 -75 23l-218 20
c-57 5 -86 16 -104 34c-22 22 -32 53 -32 142c0 82 11 125 40 154c19 19 46 30 97 30h219c49 0 77 -8 98 -28c27 -28 35 -56 36 -170h-51c-1 95 -7 118 -23 134c-14 14 -31 19 -65 19h-208c-36 0 -53 -6 -67 -20c-18 -18 -24 -52 -24 -118c0 -73 6 -91 22 -107
c13 -13 28 -17 75 -22l218 -20c57 -5 85 -16 104 -34c23 -24 32 -58 32 -149zM345 -58c32 0 51 -4 62 -15c12 -12 19 -30 19 -62s-7 -49 -19 -61c-11 -11 -31 -15 -63 -15h-64l-34 25v8h95c19 0 29 3 36 9s9 18 9 35c0 16 -2 28 -9 34s-17 9 -36 9h-44v33h48z" />
    <glyph glyph-name="scedilla" unicode="&#x15f;" horiz-adv-x="551" 
d="M482 145c0 -69 -11 -99 -33 -121c-17 -17 -40 -24 -78 -24h-187c-43 0 -69 9 -84 24c-22 22 -30 42 -30 132h47c1 -73 6 -86 19 -99c9 -8 22 -15 54 -15h173c26 0 40 6 50 16c12 11 21 26 21 86c0 55 -7 69 -15 77c-9 9 -21 15 -64 18l-160 15c-54 5 -77 13 -92 28
c-17 17 -26 41 -26 107s11 96 33 118c17 17 39 24 78 24h176c45 0 68 -9 82 -23c20 -20 30 -43 31 -128h-47c-1 68 -7 81 -20 94c-8 8 -22 15 -54 15h-161c-25 0 -38 -5 -49 -16c-12 -11 -21 -26 -21 -82c0 -50 5 -63 14 -73c10 -9 21 -15 66 -19l160 -14
c54 -5 77 -14 91 -28c20 -19 26 -46 26 -112zM281 -58c32 0 51 -4 62 -15c12 -12 19 -30 19 -62s-7 -49 -19 -61c-11 -11 -31 -15 -63 -15h-64l-34 25v8h95c19 0 29 3 36 9s9 18 9 35c0 16 -2 28 -9 34s-17 9 -36 9h-44v33h48z" />
    <glyph glyph-name="Scommaaccent" unicode="&#x218;" horiz-adv-x="677" 
d="M306 -70h71v-72c0 -25 -3 -36 -15 -51l-68 -91l-20 14l59 91c6 9 6 16 6 27v7h-33v75zM595 185c0 -90 -12 -127 -40 -155c-19 -19 -46 -30 -98 -30h-241c-49 0 -77 8 -98 28c-25 26 -36 49 -36 176h51c1 -108 8 -125 23 -140c14 -14 31 -19 65 -19h231c36 0 53 6 68 20
c16 16 23 46 23 120c0 76 -4 95 -22 112c-13 13 -28 18 -75 23l-218 20c-57 5 -86 16 -104 34c-22 22 -32 53 -32 142c0 82 11 125 40 154c19 19 46 30 97 30h219c49 0 77 -8 98 -28c27 -28 35 -56 36 -170h-51c-1 95 -7 118 -23 134c-14 14 -31 19 -65 19h-208
c-36 0 -53 -6 -67 -20c-18 -18 -24 -52 -24 -118c0 -73 6 -91 22 -107c13 -13 28 -17 75 -22l218 -20c57 -5 85 -16 104 -34c23 -24 32 -58 32 -149z" />
    <glyph glyph-name="scommaaccent" unicode="&#x219;" horiz-adv-x="551" 
d="M244 -70h71v-72c0 -25 -3 -36 -15 -51l-68 -91l-20 14l59 91c6 9 6 16 6 27v7h-33v75zM482 145c0 -69 -11 -99 -33 -121c-17 -17 -40 -24 -78 -24h-187c-43 0 -69 9 -84 24c-22 22 -30 42 -30 132h47c1 -73 6 -86 19 -99c9 -8 22 -15 54 -15h173c26 0 40 6 50 16
c12 11 21 26 21 86c0 55 -7 69 -15 77c-9 9 -21 15 -64 18l-160 15c-54 5 -77 13 -92 28c-17 17 -26 41 -26 107s11 96 33 118c17 17 39 24 78 24h176c45 0 68 -9 82 -23c20 -20 30 -43 31 -128h-47c-1 68 -7 81 -20 94c-8 8 -22 15 -54 15h-161c-25 0 -38 -5 -49 -16
c-12 -11 -21 -26 -21 -82c0 -50 5 -63 14 -73c10 -9 21 -15 66 -19l160 -14c54 -5 77 -14 91 -28c20 -19 26 -46 26 -112z" />
    <glyph glyph-name="Tcaron" unicode="&#x164;" horiz-adv-x="565" 
d="M543 655h-235v-655h-52v655h-234v45h521v-45zM254 775l-129 122v5h37l119 -88l120 88h36v-5l-129 -122h-54z" />
    <glyph glyph-name="tcaron" unicode="&#x165;" horiz-adv-x="368" 
d="M329 42v-31l-37 -8c-21 -4 -44 -7 -74 -7c-33 0 -58 6 -77 25c-18 18 -23 41 -23 84v383h-91v43h91v134h51v-134h161v-43h-161v-376c0 -30 3 -45 13 -55c8 -9 20 -15 54 -15h93zM265 603l-20 7l22 94c2 10 3 17 3 24c0 8 -1 14 -3 25l-15 77v19h60v-73
c0 -42 -1 -58 -16 -90z" />
    <glyph glyph-name="Tcommaaccent" unicode="&#x162;" horiz-adv-x="565" 
d="M247 -70h71v-72c0 -25 -3 -36 -15 -51l-68 -91l-20 14l59 91c6 9 6 16 6 27v7h-33v75zM543 655h-235v-655h-52v655h-234v45h521v-45z" />
    <glyph glyph-name="tcommaaccent" unicode="&#x163;" horiz-adv-x="368" 
d="M169 -70h71v-72c0 -25 -3 -36 -15 -51l-68 -91l-20 14l59 91c6 9 6 16 6 27v7h-33v75zM329 42v-31l-37 -8c-21 -4 -44 -7 -74 -7c-33 0 -58 6 -77 25c-18 18 -23 41 -23 84v383h-91v43h91v134h51v-134h161v-43h-161v-376c0 -30 3 -45 13 -55c8 -9 20 -15 54 -15h93z" />
    <glyph glyph-name="Thorn" unicode="&#xde;" horiz-adv-x="635" 
d="M158 192h260c39 0 62 5 76 20c16 14 32 41 32 138s-16 124 -32 138c-14 15 -37 20 -76 20h-260v-316zM158 700v-147h268c52 0 84 -7 107 -29c27 -27 46 -62 46 -175c0 -111 -19 -146 -46 -173c-23 -22 -55 -29 -107 -29h-268v-147h-52v700h52z" />
    <glyph glyph-name="thorn" unicode="&#xfe;" 
d="M93 -150v870h50v-265c73 58 102 77 166 77h55c62 0 93 -10 116 -33c33 -34 42 -77 42 -233c0 -157 -9 -200 -42 -233c-23 -23 -54 -34 -116 -34h-55c-64 0 -93 18 -166 77v-226h-50zM299 488c-57 0 -90 -18 -156 -66v-312c67 -48 99 -67 157 -67h57c50 0 70 8 85 24
c23 23 30 58 30 199s-7 176 -30 199c-15 15 -35 23 -85 23h-58z" />
    <glyph glyph-name="Uacute" unicode="&#xda;" horiz-adv-x="733" 
d="M329 772v5l99 117h76v-5l-135 -117h-40zM628 700v-419c0 -163 -15 -215 -49 -249c-23 -23 -54 -32 -123 -32h-179c-69 0 -100 10 -122 32c-35 34 -49 85 -49 249v419h52v-426c0 -146 14 -186 35 -207c13 -13 30 -21 90 -21h168c60 0 77 7 90 21c22 21 34 61 34 207v426
h53z" />
    <glyph glyph-name="uacute" unicode="&#xfa;" 
d="M450 531h50v-531h-50v77c-74 -59 -101 -78 -166 -78h-73c-52 0 -73 7 -92 27c-21 20 -27 51 -27 94v411h50v-408c0 -34 5 -51 18 -64c11 -11 22 -16 65 -16h70c53 0 83 14 155 66v422zM260 604v5l99 117h76v-5l-135 -117h-40z" />
    <glyph glyph-name="Ubreve" unicode="&#x16c;" horiz-adv-x="733" 
d="M628 700v-419c0 -163 -15 -215 -49 -249c-23 -23 -54 -32 -123 -32h-179c-69 0 -100 10 -122 32c-35 34 -49 85 -49 249v419h52v-426c0 -146 14 -186 35 -207c13 -13 30 -21 90 -21h168c60 0 77 7 90 21c22 21 34 61 34 207v426h53zM366 816c71 0 110 33 119 86h33
c-7 -79 -58 -128 -152 -128s-145 49 -152 128h33c9 -53 48 -86 119 -86z" />
    <glyph glyph-name="ubreve" unicode="&#x16d;" 
d="M450 531h50v-531h-50v77c-74 -59 -101 -78 -166 -78h-73c-52 0 -73 7 -92 27c-21 20 -27 51 -27 94v411h50v-408c0 -34 5 -51 18 -64c11 -11 22 -16 65 -16h70c53 0 83 14 155 66v422zM297 648c71 0 110 33 119 86h33c-7 -79 -58 -128 -152 -128s-145 49 -152 128h33
c9 -53 48 -86 119 -86z" />
    <glyph glyph-name="Ucircumflex" unicode="&#xdb;" horiz-adv-x="733" 
d="M628 700v-419c0 -163 -15 -215 -49 -249c-23 -23 -54 -32 -123 -32h-179c-69 0 -100 10 -122 32c-35 34 -49 85 -49 249v419h52v-426c0 -146 14 -186 35 -207c13 -13 30 -21 90 -21h168c60 0 77 7 90 21c22 21 34 61 34 207v426h53zM485 775l-120 88l-119 -88h-36v5
l129 122h54l129 -122v-5h-37z" />
    <glyph glyph-name="ucircumflex" unicode="&#xfb;" 
d="M450 531h50v-531h-50v77c-74 -59 -101 -78 -166 -78h-73c-52 0 -73 7 -92 27c-21 20 -27 51 -27 94v411h50v-408c0 -34 5 -51 18 -64c11 -11 22 -16 65 -16h70c53 0 83 14 155 66v422zM416 607l-120 88l-119 -88h-36v5l129 122h54l129 -122v-5h-37z" />
    <glyph glyph-name="Udieresis" unicode="&#xdc;" horiz-adv-x="733" 
d="M242 804v82h63v-82h-63zM427 804v82h63v-82h-63zM628 700v-419c0 -163 -15 -215 -49 -249c-23 -23 -54 -32 -123 -32h-179c-69 0 -100 10 -122 32c-35 34 -49 85 -49 249v419h52v-426c0 -146 14 -186 35 -207c13 -13 30 -21 90 -21h168c60 0 77 7 90 21
c22 21 34 61 34 207v426h53z" />
    <glyph glyph-name="udieresis" unicode="&#xfc;" 
d="M450 531h50v-531h-50v77c-74 -59 -101 -78 -166 -78h-73c-52 0 -73 7 -92 27c-21 20 -27 51 -27 94v411h50v-408c0 -34 5 -51 18 -64c11 -11 22 -16 65 -16h70c53 0 83 14 155 66v422zM358 636v82h63v-82h-63zM173 636v82h63v-82h-63z" />
    <glyph glyph-name="Ugrave" unicode="&#xd9;" horiz-adv-x="733" 
d="M628 700v-419c0 -163 -15 -215 -49 -249c-23 -23 -54 -32 -123 -32h-179c-69 0 -100 10 -122 32c-35 34 -49 85 -49 249v419h52v-426c0 -146 14 -186 35 -207c13 -13 30 -21 90 -21h168c60 0 77 7 90 21c22 21 34 61 34 207v426h53zM402 772h-39l-135 117v5h76l98 -117
v-5z" />
    <glyph glyph-name="ugrave" unicode="&#xf9;" 
d="M450 531h50v-531h-50v77c-74 -59 -101 -78 -166 -78h-73c-52 0 -73 7 -92 27c-21 20 -27 51 -27 94v411h50v-408c0 -34 5 -51 18 -64c11 -11 22 -16 65 -16h70c53 0 83 14 155 66v422zM333 604h-39l-135 117v5h76l98 -117v-5z" />
    <glyph glyph-name="Uhungarumlaut" unicode="&#x170;" horiz-adv-x="733" 
d="M628 700v-419c0 -163 -15 -215 -49 -249c-23 -23 -54 -32 -123 -32h-179c-69 0 -100 10 -122 32c-35 34 -49 85 -49 249v419h52v-426c0 -146 14 -186 35 -207c13 -13 30 -21 90 -21h168c60 0 77 7 90 21c22 21 34 61 34 207v426h53zM259 772v5l98 117h73v-5l-133 -117
h-38zM414 772v5l100 117h73v-5l-135 -117h-38z" />
    <glyph glyph-name="uhungarumlaut" unicode="&#x171;" 
d="M450 531h50v-531h-50v77c-74 -59 -101 -78 -166 -78h-73c-52 0 -73 7 -92 27c-21 20 -27 51 -27 94v411h50v-408c0 -34 5 -51 18 -64c11 -11 22 -16 65 -16h70c53 0 83 14 155 66v422zM345 604v5l100 117h73v-5l-135 -117h-38zM190 604v5l98 117h73v-5l-133 -117h-38z
" />
    <glyph glyph-name="Umacron" unicode="&#x16a;" horiz-adv-x="733" 
d="M628 700v-419c0 -163 -15 -215 -49 -249c-23 -23 -54 -32 -123 -32h-179c-69 0 -100 10 -122 32c-35 34 -49 85 -49 249v419h52v-426c0 -146 14 -186 35 -207c13 -13 30 -21 90 -21h168c60 0 77 7 90 21c22 21 34 61 34 207v426h53zM224 790v41h284v-41h-284z" />
    <glyph glyph-name="umacron" unicode="&#x16b;" 
d="M450 531h50v-531h-50v77c-74 -59 -101 -78 -166 -78h-73c-52 0 -73 7 -92 27c-21 20 -27 51 -27 94v411h50v-408c0 -34 5 -51 18 -64c11 -11 22 -16 65 -16h70c53 0 83 14 155 66v422zM155 622v41h284v-41h-284z" />
    <glyph glyph-name="Uogonek" unicode="&#x172;" horiz-adv-x="733" 
d="M628 700v-419c0 -163 -15 -215 -49 -249c-23 -23 -54 -32 -123 -32h-58c-17 -14 -37 -31 -46 -45c-11 -15 -13 -28 -13 -52c0 -36 2 -46 9 -53c6 -5 12 -8 27 -8h28c14 0 21 3 26 8c8 7 10 18 10 59h39c0 -56 -4 -75 -19 -89c-10 -10 -24 -14 -49 -14h-43
c-25 0 -41 4 -51 14c-14 14 -19 33 -19 73c0 25 2 41 13 59c9 15 27 32 47 48h-80c-69 0 -100 10 -122 32c-35 34 -49 85 -49 249v419h52v-426c0 -146 14 -186 35 -207c13 -13 30 -21 90 -21h168c60 0 77 7 90 21c22 21 34 61 34 207v426h53z" />
    <glyph glyph-name="uogonek" unicode="&#x173;" 
d="M450 531h50v-531h-19c-17 -15 -40 -36 -49 -50c-10 -14 -13 -27 -13 -49c0 -34 2 -44 10 -51c5 -5 12 -8 26 -8h29c14 0 20 3 26 8c7 7 9 18 9 59h39c0 -56 -4 -75 -19 -89c-10 -10 -24 -14 -49 -14h-43c-25 0 -40 4 -50 14c-15 14 -19 33 -19 72c0 23 2 40 13 58
c12 18 34 38 59 58v69c-74 -59 -101 -78 -166 -78h-73c-52 0 -73 7 -92 27c-21 20 -27 51 -27 94v411h50v-408c0 -34 5 -51 18 -64c11 -11 22 -16 65 -16h70c53 0 83 14 155 66v422z" />
    <glyph glyph-name="Uring" unicode="&#x16e;" horiz-adv-x="733" 
d="M406 938h-80c-19 0 -29 -3 -38 -11c-9 -10 -14 -22 -14 -54s5 -45 14 -54c9 -8 19 -11 38 -11h80c19 0 29 3 38 11c9 9 14 22 14 54s-5 44 -14 54c-9 8 -19 11 -38 11zM408 777h-84c-34 0 -53 6 -66 20c-16 17 -22 36 -22 76s6 58 22 76c13 14 32 20 66 20h84
c34 0 53 -6 66 -20c16 -17 22 -36 22 -76s-6 -59 -22 -76c-13 -14 -32 -20 -66 -20zM628 700v-419c0 -163 -15 -215 -49 -249c-23 -23 -54 -32 -123 -32h-179c-69 0 -100 10 -122 32c-35 34 -49 85 -49 249v419h52v-426c0 -146 14 -186 35 -207c13 -13 30 -21 90 -21h168
c60 0 77 7 90 21c22 21 34 61 34 207v426h53z" />
    <glyph glyph-name="uring" unicode="&#x16f;" 
d="M450 531h50v-531h-50v77c-74 -59 -101 -78 -166 -78h-73c-52 0 -73 7 -92 27c-21 20 -27 51 -27 94v411h50v-408c0 -34 5 -51 18 -64c11 -11 22 -16 65 -16h70c53 0 83 14 155 66v422zM339 609h-84c-34 0 -53 6 -66 20c-16 17 -22 36 -22 76s6 58 22 76
c13 14 32 20 66 20h84c34 0 53 -6 66 -20c16 -17 22 -36 22 -76s-6 -59 -22 -76c-13 -14 -32 -20 -66 -20zM337 770h-80c-19 0 -29 -3 -38 -11c-9 -10 -14 -22 -14 -54s5 -45 14 -54c9 -8 19 -11 38 -11h80c19 0 29 3 38 11c9 9 14 22 14 54s-5 44 -14 54
c-9 8 -19 11 -38 11z" />
    <glyph glyph-name="Wacute" unicode="&#x1e82;" horiz-adv-x="940" 
d="M433 772v5l99 117h76v-5l-135 -117h-40zM897 700l-161 -680c-4 -18 -12 -24 -38 -24h-24c-26 0 -34 5 -38 25l-157 622h-17l-157 -622c-5 -20 -13 -25 -38 -25h-24c-26 0 -35 5 -39 24l-161 680h55l148 -645h18l157 622c5 21 14 26 40 26h21c26 0 34 -5 39 -26l157 -622
h18l148 645h53z" />
    <glyph glyph-name="wacute" unicode="&#x1e83;" horiz-adv-x="742" 
d="M334 604v5l99 117h76v-5l-135 -117h-40zM35 531h53l112 -483h13l115 460c5 18 11 24 29 24h31c19 0 24 -5 29 -24l115 -460h14l112 483h49l-124 -510c-4 -19 -10 -24 -29 -24h-34c-19 0 -24 5 -29 24l-114 456h-12l-114 -456c-4 -19 -10 -24 -29 -24h-34
c-18 0 -24 4 -29 24z" />
    <glyph glyph-name="Wcircumflex" unicode="&#x174;" horiz-adv-x="940" 
d="M897 700l-161 -680c-4 -18 -12 -24 -38 -24h-24c-26 0 -34 5 -38 25l-157 622h-17l-157 -622c-5 -20 -13 -25 -38 -25h-24c-26 0 -35 5 -39 24l-161 680h55l148 -645h18l157 622c5 21 14 26 40 26h21c26 0 34 -5 39 -26l157 -622h18l148 645h53zM588 775l-120 88
l-119 -88h-36v5l129 122h54l129 -122v-5h-37z" />
    <glyph glyph-name="wcircumflex" unicode="&#x175;" horiz-adv-x="742" 
d="M35 531h53l112 -483h13l115 460c5 18 11 24 29 24h31c19 0 24 -5 29 -24l115 -460h14l112 483h49l-124 -510c-4 -19 -10 -24 -29 -24h-34c-19 0 -24 5 -29 24l-114 456h-12l-114 -456c-4 -19 -10 -24 -29 -24h-34c-18 0 -24 4 -29 24zM490 607l-120 88l-119 -88h-36v5
l129 122h54l129 -122v-5h-37z" />
    <glyph glyph-name="Wdieresis" unicode="&#x1e84;" horiz-adv-x="940" 
d="M345 804v82h63v-82h-63zM530 804v82h63v-82h-63zM897 700l-161 -680c-4 -18 -12 -24 -38 -24h-24c-26 0 -34 5 -38 25l-157 622h-17l-157 -622c-5 -20 -13 -25 -38 -25h-24c-26 0 -35 5 -39 24l-161 680h55l148 -645h18l157 622c5 21 14 26 40 26h21c26 0 34 -5 39 -26
l157 -622h18l148 645h53z" />
    <glyph glyph-name="wdieresis" unicode="&#x1e85;" horiz-adv-x="742" 
d="M247 636v82h63v-82h-63zM432 636v82h63v-82h-63zM35 531h53l112 -483h13l115 460c5 18 11 24 29 24h31c19 0 24 -5 29 -24l115 -460h14l112 483h49l-124 -510c-4 -19 -10 -24 -29 -24h-34c-19 0 -24 5 -29 24l-114 456h-12l-114 -456c-4 -19 -10 -24 -29 -24h-34
c-18 0 -24 4 -29 24z" />
    <glyph glyph-name="Wgrave" unicode="&#x1e80;" horiz-adv-x="940" 
d="M897 700l-161 -680c-4 -18 -12 -24 -38 -24h-24c-26 0 -34 5 -38 25l-157 622h-17l-157 -622c-5 -20 -13 -25 -38 -25h-24c-26 0 -35 5 -39 24l-161 680h55l148 -645h18l157 622c5 21 14 26 40 26h21c26 0 34 -5 39 -26l157 -622h18l148 645h53zM506 772h-39l-135 117v5
h76l98 -117v-5z" />
    <glyph glyph-name="wgrave" unicode="&#x1e81;" horiz-adv-x="742" 
d="M35 531h53l112 -483h13l115 460c5 18 11 24 29 24h31c19 0 24 -5 29 -24l115 -460h14l112 483h49l-124 -510c-4 -19 -10 -24 -29 -24h-34c-19 0 -24 5 -29 24l-114 456h-12l-114 -456c-4 -19 -10 -24 -29 -24h-34c-18 0 -24 4 -29 24zM407 604h-39l-135 117v5h76l98 -117
v-5z" />
    <glyph glyph-name="Yacute" unicode="&#xdd;" horiz-adv-x="574" 
d="M555 700l-242 -423v-277h-52v276l-242 424h57l209 -367h6l208 367h56zM251 772v5l99 117h76v-5l-135 -117h-40z" />
    <glyph glyph-name="yacute" unicode="&#xfd;" horiz-adv-x="518" 
d="M30 531h56l178 -466h5l165 466h53l-229 -629c-14 -41 -35 -54 -79 -54c-30 0 -67 3 -97 7v38h95c24 0 31 10 38 27l27 76zM229 604v5l99 117h76v-5l-135 -117h-40z" />
    <glyph glyph-name="Ycircumflex" unicode="&#x176;" horiz-adv-x="574" 
d="M555 700l-242 -423v-277h-52v276l-242 424h57l209 -367h6l208 367h56zM407 775l-120 88l-119 -88h-36v5l129 122h54l129 -122v-5h-37z" />
    <glyph glyph-name="ycircumflex" unicode="&#x177;" horiz-adv-x="518" 
d="M30 531h56l178 -466h5l165 466h53l-229 -629c-14 -41 -35 -54 -79 -54c-30 0 -67 3 -97 7v38h95c24 0 31 10 38 27l27 76zM385 607l-120 88l-119 -88h-36v5l129 122h54l129 -122v-5h-37z" />
    <glyph glyph-name="Ydieresis" unicode="&#x178;" horiz-adv-x="574" 
d="M555 700l-242 -423v-277h-52v276l-242 424h57l209 -367h6l208 367h56zM164 804v82h63v-82h-63zM349 804v82h63v-82h-63z" />
    <glyph glyph-name="ydieresis" unicode="&#xff;" horiz-adv-x="518" 
d="M30 531h56l178 -466h5l165 466h53l-229 -629c-14 -41 -35 -54 -79 -54c-30 0 -67 3 -97 7v38h95c24 0 31 10 38 27l27 76zM327 636v82h63v-82h-63zM142 636v82h63v-82h-63z" />
    <glyph glyph-name="Ygrave" unicode="&#x1ef2;" horiz-adv-x="574" 
d="M555 700l-242 -423v-277h-52v276l-242 424h57l209 -367h6l208 367h56zM324 772h-39l-135 117v5h76l98 -117v-5z" />
    <glyph glyph-name="ygrave" unicode="&#x1ef3;" horiz-adv-x="518" 
d="M30 531h56l178 -466h5l165 466h53l-229 -629c-14 -41 -35 -54 -79 -54c-30 0 -67 3 -97 7v38h95c24 0 31 10 38 27l27 76zM303 604h-39l-135 117v5h76l98 -117v-5z" />
    <glyph glyph-name="Zacute" unicode="&#x179;" horiz-adv-x="612" 
d="M280 772v5l99 117h76v-5l-135 -117h-40zM559 45v-45h-507v34l445 621h-425v45h492v-34l-445 -621h440z" />
    <glyph glyph-name="zacute" unicode="&#x17a;" horiz-adv-x="505" 
d="M222 604v5l99 117h76v-5l-135 -117h-40zM455 44v-44h-405v30l340 457h-328v44h394v-28l-342 -459h341z" />
    <glyph glyph-name="Zcaron" unicode="&#x17d;" horiz-adv-x="612" 
d="M559 45v-45h-507v34l445 621h-425v45h492v-34l-445 -621h440zM289 775l-129 122v5h37l119 -88l120 88h36v-5l-129 -122h-54z" />
    <glyph glyph-name="zcaron" unicode="&#x17e;" horiz-adv-x="505" 
d="M455 44v-44h-405v30l340 457h-328v44h394v-28l-342 -459h341zM231 607l-129 122v5h37l119 -88l120 88h36v-5l-129 -122h-54z" />
    <glyph glyph-name="Zdotaccent" unicode="&#x17b;" horiz-adv-x="612" 
d="M559 45v-45h-507v34l445 621h-425v45h492v-34l-445 -621h440zM285 806v83h64v-83h-64z" />
    <glyph glyph-name="zdotaccent" unicode="&#x17c;" horiz-adv-x="505" 
d="M455 44v-44h-405v30l340 457h-328v44h394v-28l-342 -459h341zM227 638v83h64v-83h-64z" />
    <glyph glyph-name="schwa" unicode="&#x259;" horiz-adv-x="577" 
d="M71 269c0 8 3 12 12 12h374c-1 136 -12 166 -32 186c-16 16 -34 21 -78 21h-128c-42 0 -60 -5 -75 -21c-16 -15 -23 -37 -24 -97h-49c3 81 12 108 37 133c22 22 50 28 105 28h137c56 0 87 -6 110 -30c34 -33 47 -77 47 -236s-13 -202 -47 -236c-23 -23 -54 -29 -110 -29
h-122c-56 0 -87 6 -110 29c-34 33 -47 78 -47 230v10zM426 63c19 20 30 50 31 178h-336c1 -126 11 -157 31 -178c16 -15 35 -20 79 -20h116c44 0 63 5 79 20z" />
    <glyph glyph-name="germandbls" unicode="&#xdf;" horiz-adv-x="621" 
d="M137 0v488h-92v43h92v13c0 71 14 105 39 131c23 22 52 31 104 31h98c52 0 83 -7 105 -29c28 -27 40 -65 40 -140c0 -94 -29 -132 -85 -148v-1c86 -9 112 -59 112 -182c0 -116 -16 -149 -42 -175c-24 -24 -56 -31 -110 -31h-121v43h113c40 0 65 5 80 20
c14 15 29 39 29 143c0 87 -11 117 -28 134s-40 24 -93 24h-75v45h64c41 0 62 8 77 23c14 14 29 40 29 105c0 64 -13 91 -29 106c-14 15 -37 20 -75 20h-81c-34 0 -58 -4 -73 -20c-16 -16 -28 -41 -28 -99v-544h-50z" />
    <glyph glyph-name="zero" unicode="0" horiz-adv-x="686" 
d="M420 655h-155c-53 0 -71 -9 -86 -24c-25 -24 -42 -66 -42 -281s17 -257 42 -281c15 -15 33 -24 86 -24h155c54 0 72 9 87 24c25 24 42 66 42 281s-17 257 -42 281c-15 15 -33 24 -87 24zM263 700h159c68 0 98 -10 123 -34c36 -35 58 -92 58 -316s-22 -281 -58 -316
c-25 -24 -55 -34 -123 -34h-159c-67 0 -97 10 -122 34c-36 35 -58 92 -58 316s22 281 58 316c25 24 55 34 122 34z" />
    <glyph glyph-name="one" unicode="1" horiz-adv-x="389" 
d="M247 0h-52v647l-136 -58l-17 43l161 69h44v-701z" />
    <glyph glyph-name="two" unicode="2" horiz-adv-x="649" 
d="M87 0v95c0 89 13 122 41 150c17 17 38 31 87 51l215 86c43 18 56 28 67 42c14 17 22 38 22 105c0 47 -9 85 -26 103c-16 16 -35 22 -74 22h-170c-37 0 -56 -5 -71 -20c-16 -17 -23 -41 -24 -132h-52c1 109 11 140 39 168c21 21 50 30 102 30h186c52 0 81 -10 102 -31
c30 -30 41 -79 41 -140c0 -82 -12 -110 -34 -136c-16 -19 -41 -35 -92 -55l-215 -87c-38 -15 -54 -26 -67 -40c-16 -18 -25 -41 -25 -107v-58h442v-46h-494z" />
    <glyph glyph-name="three" unicode="3" horiz-adv-x="649" 
d="M401 342h-156v45h150c43 0 64 9 80 24c14 15 31 43 31 110c0 68 -16 98 -30 113c-16 16 -39 21 -78 21h-155c-48 0 -64 -7 -77 -20c-20 -21 -28 -63 -32 -135h-52c3 82 13 136 46 170c20 20 49 30 109 30h170c55 0 87 -8 110 -31c29 -29 43 -70 43 -145
c0 -99 -36 -143 -88 -159v-1c64 -15 94 -61 94 -171c0 -98 -16 -135 -43 -162c-23 -23 -56 -31 -110 -31h-179c-60 0 -89 10 -109 30c-34 34 -45 87 -48 181h52c4 -85 13 -125 33 -146c13 -13 29 -20 78 -20h163c39 0 63 5 79 21c14 14 30 41 30 128c0 72 -13 106 -30 123
c-18 17 -40 25 -81 25z" />
    <glyph glyph-name="four" unicode="4" horiz-adv-x="649" 
d="M477 0h-51v194h-375v20c0 17 5 29 14 42l296 413c16 23 27 31 49 31h67v-463h121v-43h-121v-194zM426 657h-16l-301 -420h317v420z" />
    <glyph glyph-name="five" unicode="5" horiz-adv-x="656" 
d="M148 321l-51 17l24 362h439v-47h-391l-19 -282l6 -1c45 37 80 50 151 50h124c54 0 83 -10 105 -32c31 -31 42 -73 42 -177s-11 -147 -42 -178c-22 -22 -51 -33 -105 -33h-206c-50 0 -82 9 -103 30c-27 26 -38 52 -39 166h53c0 -96 9 -116 25 -131c15 -15 35 -20 69 -20
h196c36 0 56 8 70 22c20 20 28 57 28 144c0 86 -8 123 -28 142c-14 15 -33 22 -70 22h-128c-60 0 -99 -15 -150 -54z" />
    <glyph glyph-name="six" unicode="6" horiz-adv-x="671" 
d="M140 350v-5c57 38 80 49 128 49h164c65 0 96 -10 120 -34c27 -27 39 -62 39 -161c0 -89 -14 -132 -44 -163c-27 -27 -63 -36 -118 -36h-163c-68 0 -98 10 -123 35c-36 35 -57 91 -57 315c0 222 21 280 57 315c26 25 57 35 125 35h165c50 0 79 -9 100 -29
c28 -29 37 -59 38 -160h-53c-1 83 -7 107 -25 124c-15 15 -34 20 -68 20h-155c-55 0 -74 -9 -89 -25c-25 -24 -41 -67 -41 -280zM423 349h-166c-40 0 -71 -12 -117 -38c2 -180 17 -219 41 -241c15 -16 33 -25 87 -25h155c41 0 65 6 83 25c17 17 31 47 31 128
c0 83 -8 107 -27 126c-15 16 -35 25 -87 25z" />
    <glyph glyph-name="seven" unicode="7" horiz-adv-x="583" 
d="M46 653v47h482v-34l-320 -666h-58l317 653h-421z" />
    <glyph glyph-name="eight" unicode="8" horiz-adv-x="677" 
d="M261 386h155c42 0 66 10 85 27c16 15 31 43 31 109c0 63 -15 92 -31 109c-18 18 -41 24 -79 24h-167c-38 0 -61 -6 -79 -24c-17 -17 -31 -46 -31 -109c0 -66 15 -94 31 -109c18 -17 43 -27 85 -27zM255 700h167c58 0 93 -9 119 -37c32 -30 45 -72 45 -140
c0 -98 -35 -142 -92 -158v-1c60 -16 99 -62 99 -171c0 -88 -15 -127 -44 -156c-28 -27 -66 -37 -124 -37h-174c-57 0 -95 10 -123 37c-29 29 -44 68 -44 156c0 109 39 155 99 171v1c-57 16 -92 60 -92 158c0 68 13 110 44 140c27 28 62 37 120 37zM253 45h171
c39 0 65 7 84 26c16 16 31 42 31 122c0 69 -13 102 -33 122c-21 19 -45 27 -88 27h-159c-43 0 -67 -8 -88 -27c-20 -20 -33 -53 -33 -122c0 -80 15 -106 31 -122c19 -19 44 -26 84 -26z" />
    <glyph glyph-name="nine" unicode="9" horiz-adv-x="672" 
d="M491 70c25 24 41 62 41 274c-57 -39 -80 -50 -128 -50h-165c-64 0 -95 10 -119 34c-27 28 -39 65 -39 168c0 92 14 137 44 168c27 27 63 36 118 36h163c68 0 98 -10 123 -35c36 -35 56 -91 56 -315c0 -222 -20 -280 -57 -315c-25 -25 -56 -35 -124 -35h-177
c-50 0 -79 9 -99 29c-29 28 -38 59 -38 158h51c1 -81 7 -105 24 -122c15 -15 35 -20 69 -20h168c55 0 74 9 89 25zM249 339h167c39 0 70 12 116 38c-2 187 -18 230 -41 253c-15 16 -33 25 -88 25h-155c-41 0 -65 -6 -83 -25c-17 -17 -30 -48 -30 -133c0 -87 8 -114 27 -133
c15 -16 35 -25 87 -25z" />
    <glyph glyph-name="period" unicode="." horiz-adv-x="197" 
d="M63 81h72v-81h-72v81z" />
    <glyph glyph-name="comma" unicode="," horiz-adv-x="193" 
d="M57 81h77v-79c0 -26 -3 -39 -17 -56l-81 -108l-22 16l70 108c7 10 7 17 7 30v8h-34v81z" />
    <glyph glyph-name="colon" unicode=":" horiz-adv-x="196" 
d="M63 81h73v-81h-73v81zM63 531h73v-80h-73v80z" />
    <glyph glyph-name="semicolon" unicode=";" horiz-adv-x="196" 
d="M60 531h73v-80h-73v80zM57 81h77v-79c0 -26 -3 -39 -16 -56l-82 -108l-21 16l70 108c7 10 7 17 7 30v8h-35v81z" />
    <glyph glyph-name="ellipsis" unicode="&#x2026;" 
d="M65 80h71v-80h-71v80zM262 80h70v-80h-70v80zM458 80h71v-80h-71v80z" />
    <glyph glyph-name="periodcentered" unicode="&#xb7;" horiz-adv-x="202" 
d="M65 357h72v-81h-72v81z" />
    <glyph glyph-name="bullet" unicode="&#x2022;" horiz-adv-x="453" 
d="M141 266c-14 14 -20 33 -20 97s6 83 20 97c12 12 26 15 53 15h66c27 0 40 -3 52 -15c14 -14 20 -33 20 -97s-6 -83 -20 -97c-12 -12 -25 -15 -52 -15h-66c-27 0 -41 3 -53 15z" />
    <glyph glyph-name="ampersand" unicode="&#x26;" horiz-adv-x="680" 
d="M648 0h-65l-141 148h-8l-71 -94c-31 -39 -64 -55 -116 -55h-29c-59 0 -92 9 -116 33c-33 33 -39 80 -39 168c0 101 4 130 35 161c18 17 51 30 105 34h4c-17 26 -26 59 -26 114c0 99 7 135 34 161c22 22 53 30 109 30h46c52 0 83 -7 103 -27c26 -27 34 -64 34 -162h-49
c0 86 -7 112 -22 128c-13 14 -34 18 -68 18h-45c-36 0 -57 -5 -70 -19c-17 -17 -22 -43 -22 -130c0 -36 5 -61 13 -79c8 -16 20 -32 39 -52l148 -154h7l139 177h57l-167 -212zM243 42c39 0 62 10 85 39l78 101l-172 177l-37 -6c-28 -3 -52 -13 -64 -26
c-13 -16 -20 -37 -20 -127c0 -80 6 -114 28 -136c15 -15 36 -22 85 -22h17z" />
    <glyph glyph-name="exclam" unicode="!" horiz-adv-x="332" 
d="M181 184h-25l-22 479v37h64v-37zM135 76h62v-76h-62v76z" />
    <glyph glyph-name="exclamdown" unicode="&#xa1;" horiz-adv-x="331" 
d="M150 516h25l22 -479v-37h-63v37zM196 625h-61v75h61v-75z" />
    <glyph glyph-name="question" unicode="?" horiz-adv-x="539" 
d="M208 75h61v-75h-61v75zM56 500c1 116 9 145 34 172c21 19 49 28 96 28h159c51 0 78 -10 98 -30c26 -26 36 -68 36 -133c0 -76 -6 -103 -36 -132c-20 -21 -57 -35 -105 -56c-22 -9 -41 -20 -55 -33c-16 -17 -22 -42 -23 -123h-43v29c1 70 6 102 31 127c17 17 40 29 73 44
c35 14 66 26 83 43c19 19 23 34 23 98c0 50 -7 85 -23 101c-13 13 -30 20 -64 20h-150c-32 0 -47 -5 -61 -18c-15 -15 -21 -38 -22 -137h-51z" />
    <glyph glyph-name="questiondown" unicode="&#xbf;" horiz-adv-x="539" 
d="M331 625h-62v75h62v-75zM483 200c-1 -116 -9 -145 -35 -172c-20 -19 -48 -28 -95 -28h-159c-51 0 -78 10 -98 30c-26 26 -37 68 -37 133c0 76 7 103 36 132c21 21 58 35 106 56c22 9 41 20 54 33c17 17 23 42 24 123h43v-29c-1 -70 -6 -102 -31 -127
c-17 -17 -40 -29 -73 -44c-35 -14 -66 -26 -83 -43c-19 -19 -24 -34 -24 -98c0 -50 7 -85 24 -101c13 -13 30 -20 64 -20h149c33 0 48 5 62 18c15 15 21 38 22 137h51z" />
    <glyph glyph-name="quotedblleft" unicode="&#x201c;" horiz-adv-x="347" 
d="M126 470h-76v78c0 27 4 39 17 57l81 107l22 -15l-70 -108c-7 -10 -8 -18 -8 -30v-8h34v-81zM286 470h-76v78c0 27 3 39 16 57l81 107l22 -15l-70 -108c-7 -10 -7 -18 -7 -30v-8h34v-81z" />
    <glyph glyph-name="quotedblright" unicode="&#x201d;" horiz-adv-x="347" 
d="M221 700h76v-78c0 -27 -4 -39 -17 -57l-81 -107l-22 16l70 107c7 11 8 18 8 30v9h-34v80zM61 700h76v-78c0 -27 -3 -39 -16 -57l-81 -107l-22 16l70 107c7 11 7 18 7 30v9h-34v80z" />
    <glyph glyph-name="quoteleft" unicode="&#x2018;" horiz-adv-x="188" 
d="M126 470h-76v78c0 27 4 39 17 57l81 107l22 -15l-70 -108c-7 -10 -8 -18 -8 -30v-8h34v-81z" />
    <glyph glyph-name="quoteright" unicode="&#x2019;" horiz-adv-x="188" 
d="M61 700h76v-78c0 -27 -3 -39 -16 -57l-81 -107l-22 16l70 107c7 11 7 18 7 30v9h-34v80z" />
    <glyph glyph-name="quotedblbase" unicode="&#x201e;" horiz-adv-x="348" 
d="M57 80h76v-78c0 -26 -3 -39 -17 -56l-81 -108l-21 16l70 108c7 10 7 17 7 30v8h-34v80zM216 80h76v-78c0 -26 -3 -39 -17 -56l-81 -108l-21 16l70 108c7 10 7 17 7 30v8h-34v80z" />
    <glyph glyph-name="quotesinglbase" unicode="&#x201a;" horiz-adv-x="192" 
d="M57 80h76v-78c0 -26 -3 -39 -17 -56l-81 -108l-21 16l70 108c7 10 7 17 7 30v8h-34v80z" />
    <glyph glyph-name="guillemotleft" unicode="&#xab;" horiz-adv-x="520" 
d="M56 251v29l162 170h57l-173 -184l173 -184h-57zM239 251v29l162 170h57l-173 -184l173 -184h-57z" />
    <glyph glyph-name="guillemotright" unicode="&#xbb;" horiz-adv-x="520" 
d="M465 251l-162 -169h-58l173 184l-172 184h57l162 -170v-29zM282 251l-162 -169h-58l173 184l-172 184h57l162 -170v-29z" />
    <glyph glyph-name="guilsinglleft" unicode="&#x2039;" horiz-adv-x="337" 
d="M56 251v29l162 170h57l-173 -184l173 -184h-57z" />
    <glyph glyph-name="guilsinglright" unicode="&#x203a;" horiz-adv-x="337" 
d="M282 251l-162 -169h-58l173 184l-172 184h57l162 -170v-29z" />
    <glyph glyph-name="hyphen" unicode="-" horiz-adv-x="407" 
d="M343 294h-279v48h279v-48z" />
    <glyph glyph-name="endash" unicode="&#x2013;" horiz-adv-x="550" 
d="M483 295h-416v46h416v-46z" />
    <glyph glyph-name="emdash" unicode="&#x2014;" horiz-adv-x="990" 
d="M923 296h-856v44h856v-44z" />
    <glyph glyph-name="slash" unicode="/" horiz-adv-x="458" 
d="M24 -160h-50l408 870h50z" />
    <glyph glyph-name="backslash" unicode="\" horiz-adv-x="458" 
d="M434 -160l-408 870h49l408 -870h-49z" />
    <glyph glyph-name="bar" unicode="|" horiz-adv-x="296" 
d="M170 -160h-44v940h44v-940z" />
    <glyph glyph-name="parenleft" unicode="(" horiz-adv-x="377" 
d="M101 275c0 91 4 171 9 199c7 51 46 113 135 236h40c-82 -129 -114 -190 -121 -232c-6 -30 -9 -101 -9 -203s3 -173 9 -203c7 -42 39 -103 121 -232h-40c-89 123 -128 185 -135 236c-5 28 -9 108 -9 199z" />
    <glyph glyph-name="parenright" unicode=")" horiz-adv-x="377" 
d="M276 275c0 -91 -4 -171 -8 -199c-8 -51 -47 -113 -136 -236h-39c81 129 113 190 120 232c6 30 10 101 10 203s-4 173 -10 203c-7 42 -39 103 -120 232h39c89 -123 128 -185 136 -236c4 -28 8 -108 8 -199z" />
    <glyph glyph-name="bracketleft" unicode="[" horiz-adv-x="398" 
d="M101 700h235v-43h-187v-764h187v-43h-235v850z" />
    <glyph glyph-name="bracketright" unicode="]" horiz-adv-x="398" 
d="M297 700v-850h-235v43h187v764h-187v43h235z" />
    <glyph glyph-name="braceleft" unicode="{" horiz-adv-x="430" 
d="M71 259v32c77 8 103 19 113 29c9 9 12 20 12 39c0 33 -18 103 -18 158c0 48 20 85 128 193h41c-99 -111 -120 -151 -120 -186c0 -55 18 -115 18 -159c0 -53 -19 -75 -95 -89v-2c76 -14 95 -38 95 -90c0 -42 -18 -106 -18 -158c0 -35 21 -75 120 -186h-41
c-108 108 -128 145 -128 193c0 53 18 124 18 160c0 17 -3 28 -12 37c-9 10 -36 21 -113 29z" />
    <glyph glyph-name="braceright" unicode="}" horiz-adv-x="430" 
d="M359 259c-77 -8 -103 -19 -113 -29c-8 -9 -11 -20 -11 -37c0 -36 18 -107 18 -160c0 -48 -21 -85 -128 -193h-41c99 111 119 151 119 186c0 52 -18 116 -18 158c0 52 19 76 95 90v2c-76 14 -95 36 -95 89c0 44 18 104 18 159c0 35 -20 75 -119 186h41
c107 -108 128 -145 128 -193c0 -55 -18 -125 -18 -158c0 -19 3 -30 12 -39c10 -10 35 -21 112 -29v-32z" />
    <glyph glyph-name="at" unicode="@" horiz-adv-x="942" 
d="M716 86c33 0 50 6 67 24c24 24 37 76 37 212c0 183 -23 273 -59 309c-31 30 -63 47 -156 47h-257c-98 0 -131 -19 -162 -51c-35 -36 -64 -111 -64 -352s29 -316 64 -352c31 -32 65 -51 162 -51h407v-22h-408c-108 0 -145 22 -179 56c-38 37 -72 119 -72 369
c0 249 34 331 72 369c34 34 71 56 179 56h259c104 0 140 -19 174 -53c41 -39 66 -140 66 -325c0 -146 -17 -202 -45 -229c-21 -21 -48 -31 -83 -31h-14c-49 0 -82 20 -104 65c-59 -50 -85 -66 -137 -66h-38c-52 0 -78 9 -97 28c-27 28 -37 65 -37 189c0 125 10 163 37 191
c19 18 45 27 97 27h38c52 0 76 -16 134 -64l10 64h34l-4 -110v-206c0 -49 6 -61 20 -76c9 -10 27 -18 59 -18zM469 98c47 0 73 15 126 53v254c-52 39 -79 54 -125 54h-42c-41 0 -57 -7 -70 -20c-17 -17 -24 -45 -24 -161c0 -115 7 -142 24 -159c13 -13 29 -21 70 -21h41z
" />
    <glyph glyph-name="copyright" unicode="&#xa9;" horiz-adv-x="789" 
d="M155 53c-35 36 -65 106 -65 297c0 192 30 261 65 297c31 32 67 53 169 53h142c101 0 138 -21 168 -53c35 -36 66 -105 66 -297s-31 -261 -66 -297c-30 -32 -67 -53 -168 -53h-142c-102 0 -138 21 -169 53zM113 350c0 -179 27 -249 60 -283c29 -30 62 -46 157 -46h130
c95 0 127 16 156 46c33 33 60 104 60 283s-27 249 -60 283c-29 30 -61 46 -156 46h-130c-95 0 -128 -16 -157 -46c-33 -33 -60 -104 -60 -283zM537 281c-2 -59 -8 -85 -27 -103c-12 -12 -27 -17 -60 -17h-110c-32 0 -47 4 -59 16c-20 19 -30 46 -30 177c0 132 9 157 29 176
c13 12 29 16 60 16h110c33 0 48 -4 60 -16c19 -19 25 -46 27 -98h-33c-2 46 -7 63 -18 74c-6 7 -14 11 -41 11h-99c-25 0 -34 -3 -42 -11c-11 -11 -19 -28 -19 -152s8 -141 19 -152c8 -9 17 -11 42 -11h99c27 0 35 3 41 10c11 12 16 27 18 80h33z" />
    <glyph glyph-name="published" unicode="&#x2117;" horiz-adv-x="789" 
d="M155 53c-35 36 -65 106 -65 297c0 192 30 261 65 297c31 32 67 53 169 53h142c101 0 138 -21 168 -53c35 -36 66 -105 66 -297s-31 -261 -66 -297c-30 -32 -67 -53 -168 -53h-142c-102 0 -138 21 -169 53zM113 350c0 -179 27 -249 60 -283c29 -30 62 -46 157 -46h130
c95 0 127 16 156 46c33 33 60 104 60 283s-27 249 -60 283c-29 30 -61 46 -156 46h-130c-95 0 -128 -16 -157 -46c-33 -33 -60 -104 -60 -283zM318 349h140c21 0 33 3 42 11s18 19 18 73s-9 65 -18 74c-9 8 -21 10 -42 10h-140v-168zM550 434c0 -60 -11 -80 -25 -96
c-13 -13 -33 -18 -62 -18h-145v-159h-33v385h178c29 0 50 -5 63 -18c14 -16 24 -36 24 -94z" />
    <glyph glyph-name="registered.alt" horiz-adv-x="789" 
d="M155 53c-35 36 -65 106 -65 297c0 192 30 261 65 297c31 32 67 53 169 53h142c101 0 138 -21 168 -53c35 -36 66 -105 66 -297s-31 -261 -66 -297c-30 -32 -67 -53 -168 -53h-142c-102 0 -138 21 -169 53zM113 350c0 -179 27 -249 60 -283c29 -30 62 -46 157 -46h130
c95 0 127 16 156 46c33 33 60 104 60 283s-27 249 -60 283c-29 30 -61 46 -156 46h-130c-95 0 -128 -16 -157 -46c-33 -33 -60 -104 -60 -283zM303 360h143c20 0 32 2 41 11c8 8 17 19 17 68c0 48 -8 59 -16 68c-9 8 -21 10 -41 10h-144v-157zM503 259c-1 40 -5 50 -14 59
c-8 8 -23 13 -47 13h-139v-170h-32v385h182c28 0 49 -5 62 -18c14 -16 22 -36 22 -88c0 -53 -14 -84 -50 -94v-1c36 -10 48 -26 49 -84c1 -40 4 -75 7 -100h-33c-4 26 -6 61 -7 98z" />
    <glyph glyph-name="registered" unicode="&#xae;" horiz-adv-x="480" 
d="M198 330h83c45 0 64 8 79 24c20 19 33 57 33 153s-13 134 -33 153c-15 16 -34 24 -79 24h-83c-44 0 -63 -8 -79 -24c-19 -19 -32 -57 -32 -153s13 -134 32 -153c16 -16 35 -24 79 -24zM282 314h-84c-55 0 -74 12 -92 30c-19 20 -37 57 -37 163s18 143 37 163
c18 18 37 30 92 30h84c55 0 74 -12 92 -30c19 -20 37 -57 37 -163s-18 -143 -37 -163c-18 -18 -37 -30 -92 -30zM295 558c0 25 -4 31 -8 35c-5 4 -12 6 -24 6h-72v-84h72c12 0 17 2 22 6c5 5 10 10 10 37zM294 459c0 21 -1 26 -7 32c-5 5 -12 6 -26 6h-70v-92h-21v212h100
c14 0 26 -3 33 -10c8 -9 13 -20 13 -49c0 -28 -8 -45 -28 -51v-1c20 -5 27 -14 27 -45c1 -23 1 -42 4 -56h-21c-3 14 -4 33 -4 54z" />
    <glyph glyph-name="servicemark" unicode="&#x2120;" horiz-adv-x="873" 
d="M346 417c0 -45 -6 -68 -22 -85c-12 -12 -27 -17 -55 -17h-132c-28 0 -43 4 -54 15c-16 16 -21 32 -21 97h33c0 -52 3 -64 12 -73c8 -7 17 -10 37 -10h119c20 0 30 3 38 11c10 10 12 27 12 62c0 41 -2 48 -11 58c-8 8 -18 11 -41 13l-116 12c-30 4 -48 8 -60 19
c-14 13 -18 33 -18 80c0 44 6 67 22 84c12 12 27 17 55 17h120c28 0 43 -4 54 -15c16 -16 21 -32 21 -94h-33c0 49 -4 61 -13 70c-7 7 -17 10 -36 10h-107c-20 0 -30 -3 -37 -11c-10 -10 -13 -27 -13 -61c0 -38 4 -48 12 -56c8 -7 17 -10 42 -13l117 -12c32 -4 47 -9 58 -19
c12 -13 17 -30 17 -82zM811 700v-385h-32v352h-6l-123 -338c-4 -11 -8 -14 -18 -14h-13c-11 0 -14 3 -18 14l-124 338h-5v-352h-32v385h48c11 0 14 -2 17 -13l119 -334h4l120 334c3 11 6 13 17 13h46z" />
    <glyph glyph-name="trademark" unicode="&#x2122;" horiz-adv-x="855" 
d="M793 700v-385h-33v352h-6l-123 -338c-4 -11 -7 -14 -18 -14h-13c-11 0 -14 3 -18 14l-123 338h-6v-352h-32v385h48c11 0 15 -2 18 -13l119 -334h4l119 334c3 11 6 13 17 13h47zM339 671h-122v-356h-33v356h-122v29h277v-29z" />
    <glyph glyph-name="asterisk" unicode="*" horiz-adv-x="514" 
d="M149 393l78 108l20 -11l-55 -121zM85 554l133 -13v-22l-133 -13v48zM149 667l43 24l55 -121l-20 -11zM364 393l-42 -24l-55 121l19 11zM429 554v-48l-134 13v22zM364 667l-78 -108l-19 11l55 121z" />
    <glyph glyph-name="dagger" unicode="&#x2020;" horiz-adv-x="494" 
d="M79 557l133 -16v-22l-133 -16v54zM415 557v-54l-133 16v22zM276 700l-17 -136h-24l-17 136h58zM274 372l-17 -255h-20l-18 255l16 124h24z" />
    <glyph glyph-name="daggerdbl" unicode="&#x2021;" horiz-adv-x="498" 
d="M81 557l133 -16v-22l-133 -16v54zM417 557v-54l-133 16v22zM278 700l-17 -136h-24l-17 136h58zM81 143v54l133 -16v-22zM417 143l-133 16v22l133 16v-54zM278 0h-58l17 136h24zM276 350l-15 -146h-24l-15 146l15 146h24z" />
    <glyph glyph-name="dollar" unicode="$" horiz-adv-x="667" 
d="M355 -90h-44v90h-92c-49 0 -79 8 -99 29c-26 25 -36 48 -36 175h50c0 -108 8 -126 23 -141c15 -14 32 -19 67 -19h88v288l-82 8c-58 5 -86 16 -104 34c-23 22 -33 53 -33 142c0 82 12 125 41 154c19 19 48 30 98 30h79v80h44v-80h79c49 0 78 -8 99 -29
c27 -27 35 -55 37 -169h-50c-1 95 -7 118 -24 135c-14 14 -31 19 -65 19h-77v-280l93 -9c56 -5 85 -15 103 -33c24 -24 33 -58 33 -149c0 -90 -13 -127 -40 -155c-19 -19 -47 -30 -98 -30h-90v-90zM434 320l-80 8v-284h86c36 0 54 6 68 21c16 16 25 46 25 120
c0 76 -5 95 -23 112c-13 13 -29 18 -76 23zM166 410c13 -13 29 -18 76 -23l70 -7v276h-76c-36 0 -53 -6 -68 -21c-17 -17 -24 -52 -24 -118c0 -73 6 -91 22 -107z" />
    <glyph glyph-name="sterling" unicode="&#xa3;" horiz-adv-x="666" 
d="M596 45v-45h-533v45h101v260h-100v44h100v154c0 101 14 137 42 165c24 24 56 33 120 33h109c58 0 89 -8 113 -32c28 -27 41 -60 43 -171h-51c-2 95 -14 120 -30 136s-38 21 -80 21h-103c-41 0 -66 -5 -83 -22c-16 -16 -28 -42 -28 -127v-157h216v-44h-216v-260h380z" />
    <glyph glyph-name="Euro" unicode="&#x20ac;" horiz-adv-x="693" 
d="M415 424h-252v-74v-68h252v-43h-250c4 -129 18 -159 34 -175c13 -12 27 -20 75 -20h181c48 0 63 8 75 20c21 21 30 59 34 155h50c-4 -110 -15 -157 -49 -191c-21 -20 -46 -28 -107 -28h-187c-61 0 -86 8 -106 28c-29 28 -46 66 -52 211h-79v43h78v68v74h-78v43h80
c5 139 22 177 51 205c20 20 45 28 106 28h187c61 0 86 -8 107 -28c34 -34 45 -83 48 -180h-50c-4 84 -12 123 -33 144c-12 12 -27 20 -75 20h-181c-48 0 -62 -8 -75 -20c-16 -16 -29 -45 -34 -169h250v-43z" />
    <glyph glyph-name="yen" unicode="&#xa5;" horiz-adv-x="650" 
d="M532 302v-43h-181v-259h-53v259h-182v43h167l-224 398h57l207 -367h5l206 367h55l-224 -398h167z" />
    <glyph glyph-name="cent" unicode="&#xa2;" horiz-adv-x="571" 
d="M240 95c-57 0 -88 9 -111 31c-32 33 -45 77 -45 226s13 193 45 226c23 23 54 31 111 31h35v94h43v-94h38c59 0 84 -9 103 -27c25 -26 35 -55 39 -137h-48c-3 60 -9 85 -26 102c-11 11 -26 19 -74 19h-33v-427h34c48 0 63 7 75 19c17 17 22 44 25 106h48
c-4 -87 -14 -116 -39 -141c-18 -18 -45 -28 -103 -28h-39v-98h-43v98h-35zM165 159c15 -16 35 -20 78 -20h33v427h-33c-44 0 -63 -5 -78 -20c-20 -20 -32 -53 -32 -194s12 -173 32 -193z" />
    <glyph glyph-name="numbersign" unicode="#" horiz-adv-x="761" 
d="M112 513h148l45 187h48l-45 -187h220l45 187h48l-45 -187h137v-43h-148l-54 -224h137v-43h-147l-49 -203h-48l49 203h-221l-48 -203h-48l49 203h-138v43h148l54 224h-137v43zM296 472l-55 -228h224l55 228h-224z" />
    <glyph glyph-name="paragraph" unicode="&#xb6;" horiz-adv-x="543" 
d="M59 498c0 111 19 146 46 173c23 22 54 29 107 29h226v-700h-53v294h-173c-53 0 -82 6 -105 29c-27 27 -48 62 -48 175z" />
    <glyph glyph-name="section" unicode="&#xa7;" horiz-adv-x="663" 
d="M72 360c0 54 14 86 32 104c14 14 37 24 73 23c-14 20 -20 48 -20 85c0 40 8 75 33 100c18 18 45 28 94 28h102c46 0 70 -7 90 -25c24 -25 32 -50 33 -137h-48c-1 69 -7 86 -22 102c-13 13 -30 17 -61 17h-90c-34 0 -49 -5 -62 -18c-15 -15 -20 -38 -20 -70s7 -53 19 -65
s24 -17 61 -20l195 -19c49 -4 70 -14 85 -28c17 -17 27 -43 27 -97s-14 -86 -32 -104c-15 -15 -38 -24 -74 -24c15 -19 21 -48 21 -84c0 -41 -8 -76 -33 -101c-18 -17 -45 -28 -95 -28h-101c-46 0 -71 7 -90 26c-24 24 -32 49 -33 136h48c1 -69 7 -86 22 -102
c13 -13 30 -17 61 -17h90c34 0 49 5 62 18c15 15 19 38 19 70c0 33 -6 54 -18 66s-24 17 -61 20l-195 19c-49 4 -70 14 -85 28c-17 17 -27 42 -27 97zM119 361c0 -36 5 -53 17 -65c10 -11 26 -16 64 -20l267 -24c30 -3 46 2 57 13s22 33 22 73c0 36 -5 54 -17 66
c-10 11 -25 16 -63 20l-268 24c-30 3 -46 -2 -57 -13s-22 -34 -22 -74z" />
    <glyph glyph-name="ordfeminine" unicode="&#xaa;" horiz-adv-x="465" 
d="M381 315h-41v49c-47 -39 -69 -50 -113 -50h-46c-43 0 -64 7 -80 23c-14 15 -24 36 -24 85c0 47 9 73 24 88c16 16 40 25 95 25c33 0 90 -2 144 -7v77c0 30 -2 41 -10 49s-18 10 -45 10h-81c-29 0 -42 -1 -53 -12c-10 -10 -15 -27 -15 -65h-41c1 52 8 75 26 92
c18 18 37 21 77 21h93c41 0 56 -5 71 -19c16 -16 19 -39 19 -75v-291zM233 350c41 0 62 11 107 43v107h-143c-39 0 -54 -4 -64 -14s-15 -28 -15 -61c0 -36 5 -51 15 -60c11 -9 24 -15 54 -15h46zM76 187v36h313v-36h-313z" />
    <glyph glyph-name="ordmasculine" unicode="&#xba;" horiz-adv-x="480" 
d="M284 314h-87c-42 0 -63 6 -81 23c-25 25 -35 58 -35 171c0 111 10 144 35 169c18 17 39 23 81 23h87c43 0 64 -6 82 -23c24 -25 35 -58 35 -169c0 -113 -11 -146 -35 -171c-18 -17 -39 -23 -82 -23zM203 352h75c33 0 44 3 56 14c14 15 24 36 24 142
c0 104 -10 125 -24 140c-12 12 -23 14 -56 14h-75c-32 0 -44 -2 -55 -14c-14 -15 -24 -36 -24 -140c0 -106 10 -127 24 -142c11 -11 23 -14 55 -14zM77 187v36h328v-36h-328z" />
    <glyph glyph-name="degree" unicode="&#xb0;" horiz-adv-x="410" 
d="M176 417h59c26 0 38 5 47 15c11 12 20 32 20 108s-9 97 -20 108c-9 10 -21 15 -47 15h-59c-27 0 -39 -5 -48 -15c-11 -11 -20 -32 -20 -108s9 -96 20 -108c9 -10 21 -15 48 -15zM345 540c0 -85 -12 -114 -33 -135c-13 -15 -36 -25 -75 -25h-64c-38 0 -61 10 -75 25
c-21 21 -33 50 -33 135s12 114 33 136c14 14 37 24 75 24h64c39 0 62 -10 75 -24c21 -22 33 -51 33 -136z" />
    <glyph glyph-name="percent" unicode="%" horiz-adv-x="847" 
d="M301 523c0 89 -9 112 -22 125c-10 10 -22 14 -50 14h-33c-27 0 -39 -4 -49 -14c-13 -13 -22 -36 -22 -125s9 -112 22 -125c10 -10 22 -14 49 -14h33c28 0 40 4 50 14c13 13 22 36 22 125zM344 523c0 -100 -12 -132 -34 -154c-16 -15 -35 -23 -76 -23h-42
c-41 0 -60 8 -76 23c-23 22 -34 54 -34 154s11 132 34 154c16 15 35 23 76 23h42c41 0 60 -8 76 -23c22 -22 34 -54 34 -154zM206 -3h-45l249 365l232 341h45l-248 -363zM722 177c0 89 -8 112 -21 125c-10 10 -23 14 -50 14h-33c-27 0 -39 -4 -50 -14
c-13 -13 -21 -36 -21 -125s8 -112 21 -125c11 -10 23 -14 50 -14h33c27 0 40 4 50 14c13 13 21 36 21 125zM766 177c0 -100 -12 -132 -35 -154c-15 -15 -35 -23 -76 -23h-41c-41 0 -60 8 -76 23c-23 22 -34 54 -34 154s11 132 34 154c16 15 35 23 76 23h41
c41 0 61 -8 76 -23c23 -22 35 -54 35 -154z" />
    <glyph glyph-name="quotedbl" unicode="&#x22;" horiz-adv-x="309" 
d="M72 455l-22 226v19h71v-19l-22 -226h-27zM213 455l-22 226v19h71v-19l-22 -226h-27z" />
    <glyph glyph-name="quotesingle" unicode="'" horiz-adv-x="168" 
d="M72 455l-22 226v19h71v-19l-22 -226h-27z" />
    <glyph glyph-name="plus" unicode="+" horiz-adv-x="518" 
d="M281 556v-171h171v-44h-171v-171h-44v171h-171v44h171v171h44z" />
    <glyph glyph-name="minus" unicode="&#x2212;" horiz-adv-x="518" 
d="M66 341v44h386v-44h-386z" />
    <glyph glyph-name="divide" unicode="&#xf7;" horiz-adv-x="518" 
d="M66 341v44h386v-44h-386zM224 164v76h68v-76h-68zM224 486v76h68v-76h-68z" />
    <glyph glyph-name="equal" unicode="=" horiz-adv-x="518" 
d="M69 423v46h380v-46h-380zM69 257v46h380v-46h-380z" />
    <glyph glyph-name="multiply" unicode="&#xd7;" horiz-adv-x="518" 
d="M127 526l132 -132l132 132l31 -31l-132 -132l132 -132l-31 -31l-132 132l-132 -132l-31 31l132 132l-132 132z" />
    <glyph glyph-name="less" unicode="&#x3c;" horiz-adv-x="504" 
d="M426 514l-304 -154l304 -153v-50l-352 181v43l352 181v-48z" />
    <glyph glyph-name="greater" unicode="&#x3e;" horiz-adv-x="504" 
d="M78 157v48l303 154l-303 154v49l352 -181v-43z" />
    <glyph glyph-name="plusminus" unicode="&#xb1;" horiz-adv-x="518" 
d="M281 605v-171h171v-43h-171v-171h-44v171h-171v43h171v171h44zM66 120v44h386v-44h-386z" />
    <glyph glyph-name="underscore" unicode="_" horiz-adv-x="500" 
d="M-2 -105v40h504v-40h-504z" />
    <glyph glyph-name="hcoslug" horiz-adv-x="694" 
d="M273 18h-26c0 -9 3 -12 10 -12c5 0 8 2 9 7h7c-2 -8 -7 -14 -18 -14c-13 0 -21 8 -21 20s9 21 20 21c14 0 20 -9 19 -22zM254 35c-4 0 -7 -3 -7 -12h14c0 8 -2 12 -7 12zM195 78c5 0 8 4 8 16c0 11 -3 15 -8 15s-8 -4 -8 -15c0 -12 3 -16 8 -16zM210 4c5 0 8 4 8 16
c0 11 -3 15 -8 15s-8 -4 -8 -15c0 -12 3 -16 8 -16zM210 -1c-12 0 -21 8 -21 21c0 12 9 20 21 20s21 -8 21 -20s-9 -21 -21 -21zM546 4c5 0 8 4 8 16c0 11 -3 15 -8 15s-8 -4 -8 -15c0 -12 3 -16 8 -16zM546 -1c-12 0 -21 8 -21 21c0 12 9 20 21 20s21 -8 21 -20
s-9 -21 -21 -21zM125 74v7h7v41h-7v7h51v-20h-8c-2 11 -4 13 -11 13h-12v-18h4c5 0 5 1 6 8h7v-23h-7c-1 7 -1 8 -6 8h-4v-16h10v-7h-30zM195 73c-12 0 -21 8 -21 21c0 12 9 20 21 20s21 -8 21 -20s-9 -21 -21 -21zM644 -100v800h-594v-800h594zM498 -1c-18 0 -29 11 -29 28
c0 18 13 30 27 30c7 0 12 -3 16 -7l1 6h8v-22h-8c-4 12 -7 16 -15 16s-14 -6 -14 -22c0 -15 6 -22 16 -22c8 0 13 7 14 16h8c-1 -14 -9 -23 -24 -23zM372 80c5 0 7 5 7 13s-2 13 -7 13c-6 0 -8 -6 -8 -13c0 -8 2 -13 8 -13zM276 0v7h6v25h-7v7h7v1c0 13 9 19 19 19
c3 0 7 -1 9 -2l10 2v-52h6v-7h-23v7h5v25h-14v-25h5v-7h-23zM368 0v7h6v25h-6v7h18v-10c3 8 7 11 12 11s8 -3 8 -8c0 -4 -3 -7 -7 -7c-3 0 -6 2 -6 6v1c-2 0 -5 -4 -7 -9v-16h8v-7h-26zM352 73v52h-6v7h18v-27c2 6 7 9 13 9c9 0 15 -8 15 -20c0 -9 -4 -21 -16 -21
c-7 0 -11 3 -14 8l-4 -8h-6zM400 75c7 0 8 -7 5 -10c4 0 7 3 8 8c-4 10 -16 33 -16 33h-5v7h25v-7h-6l9 -20l8 20h-5v7h17v-7h-5l-13 -31c-4 -10 -9 -16 -18 -16c-7 0 -11 4 -11 9c0 4 3 7 7 7zM247 428c0 17 11 29 27 29c17 0 29 -15 29 -38c0 -17 -7 -33 -18 -50
c-23 22 -38 36 -38 59zM302 74v14h7c4 -6 7 -9 12 -9c3 0 5 2 5 4c0 8 -24 3 -24 19c0 6 5 12 14 12c5 0 9 -2 11 -5l2 5h6v-13h-7c-3 4 -6 7 -10 7c-3 0 -5 -2 -5 -4c0 -8 24 -2 24 -18c0 -7 -5 -13 -14 -13c-7 0 -10 3 -13 5l-1 -4h-7zM261 219c-30 0 -52 23 -52 54
c0 15 5 29 16 40c18 -17 46 -47 74 -82c-11 -9 -23 -12 -38 -12zM274 122l12 2v-11h13v-7h-13v-20c0 -3 1 -5 4 -5c2 0 4 2 5 7l5 -2c-2 -9 -6 -13 -14 -13s-12 5 -12 13v20h-7v7h7v9zM428 306c-15 -9 -31 -22 -46 -42c25 -29 42 -41 62 -41c21 0 33 12 43 29l7 -2
c-2 -58 -37 -94 -80 -94c-30 0 -52 11 -85 45c-28 -31 -62 -45 -104 -45c-60 0 -109 40 -109 93c0 42 29 73 82 91c-21 22 -31 40 -31 69c0 43 42 85 109 85c62 0 95 -39 95 -74c0 -13 -3 -24 -9 -34c27 1 47 -10 49 -37c16 24 35 38 60 38c28 0 50 -21 50 -52
s-22 -54 -50 -54c-18 0 -34 10 -43 25zM219 74v7h6v25h-6v7h17v-10c3 7 7 11 14 11c9 0 12 -6 12 -14v-19h6v-7h-22v7h4v18c0 4 -2 7 -6 7s-7 -4 -7 -10v-15h4v-7h-22zM446 33h18v-7h-5c-3 -6 -6 -10 -9 -14c2 -3 4 -5 6 -5s3 1 4 5l5 -1c-2 -7 -5 -12 -13 -12
c-5 0 -8 1 -12 6c-4 -4 -9 -6 -15 -6c-12 0 -18 6 -18 14s6 13 13 15c-4 4 -6 7 -6 12c0 7 7 14 17 14c9 0 14 -6 14 -12s-4 -9 -11 -12c5 -5 8 -9 12 -13c2 2 5 6 6 9h-6v7zM429 6c2 0 5 1 8 3c-5 6 -9 11 -14 16c-2 -2 -4 -5 -4 -9c0 -6 4 -10 10 -10zM294 42v-3h14v5
c-3 0 -6 2 -6 6c0 2 1 3 1 3s-1 1 -3 1c-3 0 -6 -2 -6 -12zM425 43c0 -3 2 -6 6 -10c3 2 5 5 5 9c0 3 -2 6 -6 6c-3 0 -5 -2 -5 -5zM312 342c19 13 33 24 42 34c23 -23 18 -47 -1 -80c-13 15 -25 30 -41 46zM366 18h-26c0 -9 3 -12 10 -12c5 0 8 2 9 7h7
c-2 -8 -7 -14 -18 -14c-13 0 -21 8 -21 20s9 21 20 21c14 0 20 -9 19 -22zM347 35c-4 0 -7 -3 -7 -12h14c0 8 -2 12 -7 12zM124 0v7h8v41h-8v7h29v-7h-8v-16h22v16h-8v7h29v-7h-8v-41h8v-7h-29v7h8v18h-22v-18h8v-7h-29zM576 13c4 0 7 -3 7 -7s-3 -7 -7 -7s-7 3 -7 7
s3 7 7 7z" />
    <glyph glyph-name="acute" unicode="&#xb4;" horiz-adv-x="500" 
d="M142 604v5l99 117h76v-5l-135 -117h-40z" />
    <glyph glyph-name="hungarumlaut" unicode="&#x2dd;" horiz-adv-x="500" 
d="M81 604v5l98 117h73v-5l-133 -117h-38zM236 604v5l100 117h73v-5l-135 -117h-38z" />
    <glyph glyph-name="caron.alt" horiz-adv-x="500" 
d="M241 554l-20 7l22 94c2 10 3 17 3 24c0 8 -1 14 -3 25l-15 77v19h60v-73c0 -42 -1 -58 -16 -90z" />
    <glyph glyph-name="grave" unicode="`" horiz-adv-x="500" 
d="M313 604h-39l-135 117v5h76l98 -117v-5z" />
    <glyph glyph-name="circumflex" unicode="&#x2c6;" horiz-adv-x="500" 
d="M369 607l-120 88l-119 -88h-36v5l129 122h54l129 -122v-5h-37z" />
    <glyph glyph-name="caron" unicode="&#x2c7;" horiz-adv-x="500" 
d="M223 607l-129 122v5h37l119 -88l120 88h36v-5l-129 -122h-54z" />
    <glyph glyph-name="breve" unicode="&#x2d8;" horiz-adv-x="500" 
d="M250 648c71 0 110 33 119 86h33c-7 -79 -58 -128 -152 -128s-145 49 -152 128h33c9 -53 48 -86 119 -86z" />
    <glyph glyph-name="tilde" unicode="&#x2dc;" horiz-adv-x="500" 
d="M107 620v69c0 14 2 25 7 32c6 7 14 9 26 9h8c14 0 24 -3 46 -11l156 -62l16 72h27v-69c0 -14 -2 -25 -7 -32c-6 -7 -14 -9 -26 -9h-8c-14 0 -24 3 -46 11l-156 62l-16 -72h-27z" />
    <glyph glyph-name="macron" unicode="&#xaf;" horiz-adv-x="500" 
d="M108 622v41h284v-41h-284z" />
    <glyph glyph-name="dieresis" unicode="&#xa8;" horiz-adv-x="500" 
d="M126 636v82h63v-82h-63zM311 636v82h63v-82h-63z" />
    <glyph glyph-name="dotaccent" unicode="&#x2d9;" horiz-adv-x="500" 
d="M218 638v83h64v-83h-64z" />
    <glyph glyph-name="ring" unicode="&#x2da;" horiz-adv-x="500" 
d="M290 770h-80c-19 0 -29 -3 -38 -11c-9 -10 -14 -22 -14 -54s5 -45 14 -54c9 -8 19 -11 38 -11h80c19 0 29 3 38 11c9 9 14 22 14 54s-5 44 -14 54c-9 8 -19 11 -38 11zM292 609h-84c-34 0 -53 6 -66 20c-16 17 -22 36 -22 76s6 58 22 76c13 14 32 20 66 20h84
c34 0 53 -6 66 -20c16 -17 22 -36 22 -76s-6 -59 -22 -76c-13 -14 -32 -20 -66 -20z" />
    <glyph glyph-name="commaaccent" unicode="&#x326;" horiz-adv-x="500" 
d="M223 -70h71v-72c0 -25 -3 -36 -15 -51l-68 -91l-20 14l59 91c6 9 6 16 6 27v7h-33v75z" />
    <glyph glyph-name="cedilla" unicode="&#xb8;" horiz-adv-x="500" 
d="M267 -58c32 0 51 -4 62 -15c12 -12 19 -30 19 -62s-7 -49 -19 -61c-11 -11 -31 -15 -63 -15h-64l-34 25v8h95c19 0 29 3 36 9s9 18 9 35c0 16 -2 28 -9 34s-17 9 -36 9h-44v33h48z" />
    <glyph glyph-name="ogonek" unicode="&#x2db;" horiz-adv-x="500" 
d="M301 -91h39c0 -56 -4 -75 -19 -89c-10 -10 -24 -14 -49 -14h-43c-25 0 -41 4 -51 14c-14 14 -19 33 -19 73c0 25 2 41 13 59c12 20 39 42 67 64l23 -14c-17 -15 -38 -33 -48 -47c-11 -15 -13 -28 -13 -52c0 -36 2 -46 9 -53c6 -5 12 -8 27 -8h28c14 0 21 3 26 8
c8 7 10 18 10 59z" />
    <glyph glyph-name="asciicircum" unicode="^" horiz-adv-x="505" 
d="M382 478l-130 181l-130 -181h-34v5l146 220h37l147 -220v-5h-36z" />
    <glyph glyph-name="asciitilde" unicode="~" horiz-adv-x="453" 
d="M84 264v68c0 16 3 27 9 33c4 5 11 9 25 9h7c13 0 23 -3 49 -13l152 -61l16 72h27v-68c0 -16 -3 -27 -9 -33c-5 -5 -11 -9 -25 -9h-7c-13 0 -23 3 -49 13l-153 61l-15 -72h-27z" />
    <glyph glyph-name="fraction" unicode="&#x2044;" horiz-adv-x="546" 
d="M55 -3h-45l249 365l232 341h45l-248 -363z" />
    <glyph glyph-name="i.dot" horiz-adv-x="237" 
d="M150 730v-83h-64v83h64zM143 531v-531h-50v531h50z" />
    <glyph glyph-name="space" unicode=" " horiz-adv-x="224" 
 />
    <glyph glyph-name="uni00A0" unicode="&#xa0;" horiz-adv-x="207" 
 />
    <glyph glyph-name="emspace" unicode="&#x2003;" horiz-adv-x="1000" 
 />
    <glyph glyph-name="enspace" unicode="&#x2002;" horiz-adv-x="500" 
 />
    <glyph glyph-name="threeperemspace" unicode="&#x2004;" horiz-adv-x="333" 
 />
    <glyph glyph-name="fourperemspace" unicode="&#x2005;" horiz-adv-x="250" 
 />
    <glyph glyph-name="thinspace" unicode="&#x2009;" horiz-adv-x="133" 
 />
    <glyph glyph-name="hairspace" unicode="&#x200a;" horiz-adv-x="75" 
 />
    <glyph glyph-name="NUL" unicode="&#xe05d;" horiz-adv-x="0" 
 />
    </font>
</defs>
</svg>
