<svg enable-background="new 0 0 612 792" viewBox="0 0 612 792" xmlns="http://www.w3.org/2000/svg"><path d="m506.3 526.3h-37.8v-22.4c0-10 7.7-17.7 17.7-17.7h2.3c10 0 17.7 7.7 17.7 17.7zm-142.7-47.1c-10 0-17.7 6.2-17.7 14.7v108c0 7.7 7.7 14.7 17.7 14.7s17.7-6.2 17.7-14.7v-108c0-8.5-7.7-14.7-17.7-14.7zm232.2-60.2v204.5c0 49.4-42.4 89.5-94.9 89.5h-389.7c-52.5 0-94.9-40.1-94.9-89.5v-204.5c0-49.4 42.4-89.5 94.9-89.5h389.7c52.5 0 94.9 40.1 94.9 89.5zm-458.3 226.9v-216.1h48.6v-31.6h-128.9v31.6h40.1v216.1zm145-183.7h-40.1v115c0 17 .8 24.7 0 27.8-3.1 9.3-17.7 18.5-23.9.8-.8-3.1 0-12.3 0-27.8v-115.8h-40.1v114.2c0 17.7-.8 30.9 0 36.3.8 10.8.8 22.4 10 29.3 17.7 13.1 52.5-2.3 61.7-20.8v23.9h32.4zm128.9 132v-95.7c0-36.3-27-58.6-64.8-28.6v-71h-40.1v246.2l33.2-.8 3.1-15.4c41.6 38.6 68.6 11.6 68.6-34.7zm125.8-12.4h-30.1v3.9 17c0 9.3-7.7 16.2-16.2 16.2h-6.2c-9.3 0-16.2-7.7-16.2-16.2v-1.5-19.3-23.1h69.5v-26.2c0-19.3-.8-37.8-2.3-48.6-4.6-34.7-53.2-40.1-77.9-22.4-7.7 5.4-13.1 13.1-17 22.4-3.1 10-5.4 23.1-5.4 40.9v57.1c-.1 94.7 115.7 81.6 101.8-.2zm-155.1-311c2.3 5.4 5.4 9.3 10 12.3 4.6 3.1 10 4.6 16.2 4.6s10.8-1.5 15.4-4.6 8.5-7.7 11.6-14.7l-.8 15.4h44.8v-190.4h-35.5v148.9c0 7.7-6.9 14.7-14.7 14.7-7.7 0-14.7-6.9-14.7-14.7v-148.2h-37v128.9c0 16.2 0 27 .8 33.2.8 4.6 2.3 10 3.9 14.6zm-135.8-107.2c0-18.5 1.5-32.4 4.6-43.2 3.1-10 8.5-18.5 16.2-24.7s17.7-9.3 30.1-9.3c10 0 19.3 2.3 27 6.2s13.1 9.3 17 15.4 6.9 13.1 8.5 20.1c1.5 6.9 2.3 17 2.3 30.9v48.6c0 17.7-.8 30.9-2.3 39.4s-4.6 16.2-8.5 23.1c-4.6 6.9-10 12.3-17 16.2-6.9 3.1-15.4 5.4-24.7 5.4-10 0-18.5-1.5-26.2-4.6-6.9-3.1-12.3-7.7-16.2-13.1-3.9-6.2-6.9-13.1-8.5-21.6-1.5-8.5-2.3-20.8-2.3-37.8zm35.5 75.6c0 10.8 7.7 19.3 17.7 19.3s17.7-8.5 17.7-19.3v-101.9c0-10.8-7.7-19.3-17.7-19.3s-17.7 8.5-17.7 19.3zm-124.3 50.9h42.5v-146.6l50.2-125h-46.3l-26.2 93.4-27-93.4h-45.5l53.2 125.8z" fill="#fff"/></svg>