<svg xmlns="http://www.w3.org/2000/svg" viewBox="0 0 1189.6 1189.43"><defs><style>.cls-1{fill:#fff;}</style></defs><title>icon-tire</title><g id="Layer_2" data-name="Layer 2"><g id="Layer_1-2" data-name="Layer 1"><path class="cls-1" d="M594.8,244c-193.38,0-350.71,157.33-350.71,350.71S401.42,945.43,594.8,945.43,945.52,788.1,945.52,594.71,788.19,244,594.8,244Zm0,667.63c-174.75,0-316.92-142.17-316.92-316.92S420.05,277.8,594.8,277.8,911.72,420,911.72,594.71,769.55,911.63,594.8,911.63Z"/><path class="cls-1" d="M1176.51,587.24l-11.8,1.29a30.65,30.65,0,0,0-3.47.59q-.09-9.52-.49-19a31.19,31.19,0,0,0,3.38.37l11.76.7a12,12,0,0,0,12.64-12.8l-.42-5.88c-.72-10.09-1.69-20.23-2.89-30.15l-.71-5.83a12,12,0,0,0-14.82-10.17l-11.37,2.87a34.67,34.67,0,0,0-3.32,1q-1.41-9.39-3.14-18.68l.67,0c.9,0,1.81,0,2.73-.11l11.75-1a12,12,0,0,0,10.74-14.45l-1.22-5.76c-2.15-10-4.54-20-7.1-29.48l-1.53-5.66a12,12,0,0,0-16.07-8L1141,431.67a30.59,30.59,0,0,0-3.16,1.51c-1.81-6.08-3.73-12.09-5.73-18.07,1.13-.14,2.27-.33,3.4-.58l11.46-2.6a12,12,0,0,0,8.59-15.8l-2-5.54c-3.53-9.63-7.29-19.11-11.16-28.17l-2.3-5.39a12,12,0,0,0-17-5.64l-10,5.84a31.51,31.51,0,0,0-3,2q-4-8.65-8.21-17.14a34.44,34.44,0,0,0,3.36-1.07l10.87-4.11a12,12,0,0,0,6.35-16.83l-2.78-5.2c-4.67-8.77-9.71-17.63-15-26.32l-3-5a12,12,0,0,0-17.65-3.23l-9,7.09a33.7,33.7,0,0,0-2.8,2.52q-5.14-8-10.56-15.87a34.87,34.87,0,0,0,3.33-1.59L1075,267a12,12,0,0,0,3.92-17.58l-3.48-4.77c-5.9-8.07-12.09-16.12-18.42-23.92l-4-5a11.48,11.48,0,0,0-17.21-.72l-8.27,8.61a31.35,31.35,0,0,0-2.5,3q-6.22-7.26-12.69-14.31a33.21,33.21,0,0,0,3.18-2.07l9.59-7.13a11.48,11.48,0,0,0,1.4-17.2l-4.47-4.63c-6.94-7.18-14.19-14.3-21.55-21.18l-4.7-4.37a11.47,11.47,0,0,0-17.15,1.67l-7,9.63a31.56,31.56,0,0,0-2.09,3.31q-7.15-6.33-14.51-12.41a33.16,33.16,0,0,0,2.83-2.49l8.54-8.45a11.48,11.48,0,0,0-1-17.22l-5.08-4c-8.05-6.27-16.21-12.32-24.28-18l-5.26-3.7a11.5,11.5,0,0,0-16.75,4l-5.58,10.58a34.93,34.93,0,0,0-1.59,3.48q-7.93-5.23-16.06-10.25a31,31,0,0,0,2.41-2.81l7.33-9.63a11.49,11.49,0,0,0-3.38-16.9l-5.57-3.21c-8.69-5-17.63-9.91-26.55-14.48l-5.73-2.94a11.49,11.49,0,0,0-16,6.32l-4.11,11.39a33.59,33.59,0,0,0-1.06,3.56q-8.58-4.09-17.3-7.91a30.13,30.13,0,0,0,1.92-3l6-10.66A11.48,11.48,0,0,0,823,45.36l-6-2.41c-9.35-3.79-18.9-7.36-28.38-10.63l-6.08-2.1a11.47,11.47,0,0,0-15,8.51l-2.5,11.91a31.76,31.76,0,0,0-.54,3.59q-9-2.83-18.22-5.39a32.61,32.61,0,0,0,1.48-3.22l4.46-11.42a11.5,11.5,0,0,0-7.93-15.31l-6.24-1.55c-9.66-2.42-19.62-4.62-29.59-6.56l-6.32-1.22a11.47,11.47,0,0,0-13.64,10.5l-.82,12.16a31.63,31.63,0,0,0,0,3.64q-9.37-1.55-18.81-2.78a31.76,31.76,0,0,0,1-3.4l2.84-11.9a11.51,11.51,0,0,0-10-14.09L656.36,3c-10.11-1-20.27-1.84-30.2-2.34l-6.4-.33a11.49,11.49,0,0,0-12,12.3l.88,12.1a33.57,33.57,0,0,0,.48,3.66q-7.11-.18-14.28-.18c-1.58,0-3.16,0-4.72,0a34.27,34.27,0,0,0,.52-3.56l1.15-12.15A11.48,11.48,0,0,0,579.9,0l-6.45.23c-10.07.37-20.24,1-30.2,1.84l-6.4.55a11.47,11.47,0,0,0-10.24,13.85l2.55,11.89a32.69,32.69,0,0,0,1,3.53c-6.31.72-12.6,1.56-18.85,2.48a30.15,30.15,0,0,0,0-3.56l-.57-12.24A11.49,11.49,0,0,0,497.28,7.82l-6.35,1.12c-10,1.78-20,3.8-29.68,6L455,16.43a11.49,11.49,0,0,0-8.2,15.15L451,43a35.58,35.58,0,0,0,1.47,3.34q-9.21,2.39-18.31,5.07a33.15,33.15,0,0,0-.47-3.51l-2.27-12a11.49,11.49,0,0,0-14.86-8.78l-6.13,2c-9.6,3.15-19.19,6.55-28.54,10.14l-6,2.31a11.49,11.49,0,0,0-6,16.14l5.73,10.7a31.4,31.4,0,0,0,1.94,3.16q-8.77,3.66-17.42,7.61c-.27-1.17-.59-2.33-1-3.49L355.3,64.18a11.49,11.49,0,0,0-15.93-6.64l-5.79,2.82c-9,4.38-18,9.09-26.84,14l-5.61,3.11a11.49,11.49,0,0,0-3.68,16.82l7.09,9.69A33.12,33.12,0,0,0,307,107q-8.22,4.85-16.24,10a33.15,33.15,0,0,0-1.48-3.43l-5.39-10.75a11.49,11.49,0,0,0-16.71-4.37L261.8,102c-8.39,5.69-16.66,11.61-24.56,17.6l-5.11,3.86a11.49,11.49,0,0,0-1.32,17.16l8.27,8.51a34.83,34.83,0,0,0,2.92,2.67q-7.49,6-14.74,12.17a32.56,32.56,0,0,0-2-3.28l-6.77-9.81a11.49,11.49,0,0,0-17.14-2l-4.79,4.32c-7.3,6.56-14.66,13.56-21.9,20.78l-4.55,4.55a11.47,11.47,0,0,0,1.08,17.19l9.36,7.28a31.79,31.79,0,0,0,3.27,2.21q-6.59,7-12.93,14.1a33.57,33.57,0,0,0-2.43-3l-8.07-8.77a11.47,11.47,0,0,0-17.24.39L139,212.91c-6.37,7.55-12.69,15.51-18.82,23.62l-3.88,5.13a11.47,11.47,0,0,0,3.46,16.88l10.31,5.92a30.44,30.44,0,0,0,3.48,1.73q-5.56,7.76-10.84,15.72a33.44,33.44,0,0,0-2.75-2.56l-9.35-7.65a11.46,11.46,0,0,0-16.94,2.78L90.25,280c-5.3,8.46-10.48,17.22-15.39,26l-3.15,5.69a11.42,11.42,0,0,0,5.74,16.17l11.21,4.49a36.25,36.25,0,0,0,3.56,1.19q-4.41,8.43-8.53,17a30.53,30.53,0,0,0-3-2.05l-10.45-6.37a11.45,11.45,0,0,0-16.39,5.11l-2.64,5.93c-4.07,9.13-8,18.54-11.62,27.95l-2.33,6.06a11.42,11.42,0,0,0,7.93,15.2l11.86,2.93a31.7,31.7,0,0,0,3.55.68q-3.16,8.92-6,18a31.36,31.36,0,0,0-3.12-1.57l-11.32-4.9a11.45,11.45,0,0,0-15.53,7.37l-1.78,6.25c-2.78,9.69-5.33,19.56-7.59,29.33l-1.47,6.33a11.44,11.44,0,0,0,10,13.94L36,482c1.12.11,2.26.17,3.38.17h.17c-1.24,6.18-2.4,12.38-3.45,18.64a33,33,0,0,0-3.27-1.09l-11.89-3.27A11.43,11.43,0,0,0,6.59,505.9l-.9,6.45c-1.38,9.81-2.52,19.94-3.41,30.09l-.56,6.46a11.43,11.43,0,0,0,11.82,12.42l12.22-.46a32.33,32.33,0,0,0,3.59-.35c-.37,6.3-.66,12.63-.83,19a35,35,0,0,0-3.45-.65l-12.18-1.56A11.44,11.44,0,0,0,0,588.65v6.5c0,10.19.28,20.37.79,30.26l.33,6.47a11.44,11.44,0,0,0,13.45,10.67l12-2.16c1.19-.22,2.34-.52,3.48-.85q.73,9.48,1.79,18.89c-1-.09-2-.15-3-.15l-6.24.07A17.16,17.16,0,0,0,5.81,677.89c1.42,10.09,3.1,20.14,5,29.9a17.1,17.1,0,0,0,22.18,13l5.52-1.8a32.63,32.63,0,0,0,3.27-1.27c1.38,6.17,2.84,12.31,4.42,18.42-1.13.06-2.27.15-3.39.32l-5.78.88A17.15,17.15,0,0,0,23.12,759c2.75,9.59,5.82,19.32,9.14,28.93A17.13,17.13,0,0,0,56,797.77l5.21-2.56a35.12,35.12,0,0,0,3.08-1.74q3.34,8.89,7,17.65c-1.13.22-2.25.47-3.36.8l-5.54,1.66A17.15,17.15,0,0,0,51.65,837h0c4.08,9.15,8.49,18.34,13.09,27.33a17.14,17.14,0,0,0,24.91,6.37l4.69-3.19c1-.7,2-1.46,2.88-2.22q4.56,8.33,9.38,16.52a32.71,32.71,0,0,0-3.3,1.3l-5.15,2.37a17.15,17.15,0,0,0-7.36,24.7c5.42,8.63,11.06,17.12,16.75,25.21a17.16,17.16,0,0,0,25.53,2.84l4.14-3.74a32.77,32.77,0,0,0,2.61-2.67q5.69,7.65,11.62,15.1a31.19,31.19,0,0,0-3.19,1.78l-4.69,3a17.14,17.14,0,0,0-3.87,25.46c6.51,7.75,13.25,15.36,20,22.62a17.15,17.15,0,0,0,25.7-.7l3.53-4.23a30.54,30.54,0,0,0,2.24-3q6.69,6.79,13.6,13.36a36.1,36.1,0,0,0-2.92,2.21l-4.22,3.63a17.16,17.16,0,0,0-.3,25.75c7.42,6.69,15.15,13.31,23,19.65h0a17.14,17.14,0,0,0,25.37-4.26l2.93-4.73a32.06,32.06,0,0,0,1.76-3.25q7.55,5.79,15.27,11.33a33.5,33.5,0,0,0-2.5,2.55l-3.75,4.27a17.16,17.16,0,0,0,3.29,25.55c8.34,5.61,16.91,11.09,25.49,16.26a17.14,17.14,0,0,0,24.55-7.76l2.29-5.16a32.57,32.57,0,0,0,1.25-3.37q8.25,4.7,16.66,9.08a31.27,31.27,0,0,0-2,2.77l-3.19,4.85a17.13,17.13,0,0,0,6.77,24.82h0c8.93,4.38,18.2,8.62,27.54,12.61a17.12,17.12,0,0,0,23.23-11.08l1.6-5.59a33.75,33.75,0,0,0,.75-3.36q8.81,3.48,17.72,6.64a32.17,32.17,0,0,0-1.56,2.9l-2.55,5.35a17.16,17.16,0,0,0,10.19,23.66c9.54,3.11,19.33,6,29.1,8.63h0A17.15,17.15,0,0,0,462,1154.9l.8-5.82c.14-1.13.25-2.25.28-3.36,6.12,1.45,12.27,2.83,18.46,4.08-.43,1-.83,2-1.16,3.08l-1.76,5.67a17.15,17.15,0,0,0,13.41,22c9.81,1.72,19.91,3.23,30,4.47a16.9,16.9,0,0,0,2.13.12,17.15,17.15,0,0,0,17.12-17.18v-5.88a32,32,0,0,0-.2-3.41q9.39.9,18.86,1.48a31.27,31.27,0,0,0-.72,3.25l-1.8,11a12.5,12.5,0,0,0,11.92,14.51l5.29.17c6.8.23,13.61.34,20.24.34,3.62,0,6.91,0,10-.08l5.27-.09A12.5,12.5,0,0,0,622.26,1175l-1.56-11a33.49,33.49,0,0,0-.68-3.37q9.47-.41,18.88-1.13a29.42,29.42,0,0,0-.25,3.28l-.26,11.21a12.49,12.49,0,0,0,13.81,12.71l5.26-.55c10.14-1.06,20.26-2.39,30.06-3.93l5.21-.82a12.5,12.5,0,0,0,10.07-15.82l-3.1-10.73a29.94,29.94,0,0,0-1.14-3.18q9.32-1.74,18.53-3.76a32.25,32.25,0,0,0,.22,3.24l1.31,11.19A12.5,12.5,0,0,0,734.07,1173l5.13-1.28c9.8-2.45,19.65-5.18,29.24-8.13l5-1.54a12.5,12.5,0,0,0,7.74-17.06l-4.57-10.2a32.66,32.66,0,0,0-1.56-3q9-3,17.82-6.33c.17,1.07.39,2.15.67,3.22l2.84,10.85a12.49,12.49,0,0,0,16.79,8.41l4.92-2c9.29-3.79,18.63-7.86,27.77-12.13l4.77-2.23a12.5,12.5,0,0,0,5.3-18l-5.92-9.4a30,30,0,0,0-2-2.83q8.48-4.26,16.79-8.77c.33,1.07.7,2.15,1.14,3.21l4.28,10.21a12.47,12.47,0,0,0,17.79,6l4.59-2.65c8.66-5,17.34-10.37,25.79-15.88l4.4-2.87a12.52,12.52,0,0,0,2.73-18.54l-7.06-8.34a32.61,32.61,0,0,0-2.47-2.63q7.8-5.41,15.44-11.06a29.27,29.27,0,0,0,1.63,3.14l5.58,9.43a12.5,12.5,0,0,0,18.46,3.45l4.17-3.26c8-6.27,15.85-12.76,23.33-19.29l4-3.46a12.5,12.5,0,0,0,.12-18.73l-8.07-7.23a34.94,34.94,0,0,0-2.9-2.31q7-6.43,13.79-13.09c.64,1,1.33,2,2.08,2.93l6.81,8.51a12.48,12.48,0,0,0,18.74.88l3.68-3.79c6.92-7.15,13.8-14.66,20.45-22.31l3.47-4a12.5,12.5,0,0,0-2.48-18.59l-9-6a35.3,35.3,0,0,0-3.19-1.86q6-7.34,11.85-14.89a35,35,0,0,0,2.45,2.59l8,7.53a12.5,12.5,0,0,0,18.7-1.74l3.11-4.27c5.93-8.17,11.71-16.55,17.15-24.91l2.89-4.42a12.51,12.51,0,0,0-5-18.08l-9.85-4.77a35.34,35.34,0,0,0-3.32-1.39q5-8.08,9.66-16.34a32.18,32.18,0,0,0,2.71,2.17l9,6.4a12.48,12.48,0,0,0,18.25-4.32l2.48-4.65c4.76-8.93,9.32-18,13.56-27.11l2.25-4.79a12.51,12.51,0,0,0-7.5-17.2l-10.55-3.38a34.59,34.59,0,0,0-3.36-.87q3.78-8.68,7.27-17.5a33,33,0,0,0,2.9,1.71l9.93,5.13a12.52,12.52,0,0,0,17.49-6.83l1.8-5c3.43-9.41,6.68-19.08,9.65-28.74l1.55-5.06a12.49,12.49,0,0,0-9.81-16l-11-1.91a32.58,32.58,0,0,0-3.39-.39c1.67-6.07,3.26-12.19,4.73-18.34a30.9,30.9,0,0,0,3.07,1.27l10.6,3.72a12.49,12.49,0,0,0,16.36-9.21l1.1-5.18c2.09-9.89,3.94-19.92,5.5-29.83l.82-5.21a12.5,12.5,0,0,0-11.95-14.44l-11.12-.34-1.09,0c-.8,0-1.59,0-2.38.1q1.21-9.36,2.13-18.82c1.06.32,2.15.62,3.27.85l11,2.19a12.5,12.5,0,0,0,14.93-11.41l.36-5.28c.69-10.07,1.12-20.25,1.3-30.28l.11-6.07A11.81,11.81,0,0,0,1176.51,587.24ZM594.8,976.93c-210.75,0-382.21-171.46-382.21-382.22S384.05,212.5,594.8,212.5,977,384,977,594.71,805.55,976.93,594.8,976.93Z"/></g></g></svg>