<svg xmlns="http://www.w3.org/2000/svg" viewBox="0 0 291.63 425.2"><defs><style>.cls-1{fill:#fff;}</style></defs><title>icon-1</title><g id="Layer_2" data-name="Layer 2"><g id="_ÎÓÈ_1" data-name="—ÎÓÈ_1"><path class="cls-1" d="M145.82,181.53a130,130,0,0,1,34.28,4.57l24.24,9.37L291.63,0h-97L145.82,109.31,111.53,186.1A130.19,130.19,0,0,1,145.82,181.53Z"/><path class="cls-1" d="M92.29,193.07l5.8-13,34.29-76.79,5.38-12L97,0H0L87.29,195.47C88.94,194.63,90.61,193.84,92.29,193.07Z"/><path class="cls-1" d="M145.82,196.24A114.48,114.48,0,1,0,260.29,310.72,114.48,114.48,0,0,0,145.82,196.24Zm29.63,163.3a1.73,1.73,0,0,1-1.73,1.73H117.91a1.73,1.73,0,0,1-1.73-1.73V340.2a1.72,1.72,0,0,1,1.73-1.73h10.65a1.73,1.73,0,0,0,1.72-1.73v-41a1.71,1.71,0,0,0-2-1.7,53.72,53.72,0,0,1-8.55.57c-.7,0-1.35,0-1.94,0a1.72,1.72,0,0,1-1.62-1.73V274.3a1.74,1.74,0,0,1,1.76-1.73h0a41.31,41.31,0,0,0,17.31-3.63q7.56-3.45,11.1-8.06a1.74,1.74,0,0,1,1.39-.71H160a1.73,1.73,0,0,1,1.73,1.73v74.84a1.74,1.74,0,0,0,1.73,1.73h10.22a1.72,1.72,0,0,1,1.73,1.73Z"/></g></g></svg>