<svg xmlns="http://www.w3.org/2000/svg" viewBox="0 0 36.29 47.62"><defs><style>.cls-1{fill:#f8664e;}</style></defs><title>pinterest-p</title><g id="Layer_2" data-name="Layer 2"><g id="Layer_1-2" data-name="Layer 1"><path class="cls-1" d="M31.12,5.05c-6.2-6.8-16.7-6.3-23.7-1.1-6,4.5-10.2,14.3-5.2,21.1a6.9,6.9,0,0,0,4.2,2.6.88.88,0,0,0,1-.5,13.82,13.82,0,0,0,.8-2.7.58.58,0,0,0-.6-.6c-4.6-5-1.5-11.2,3-15,3.9-3.4,11.1-6.6,15.7-2.7,3.2,2.7,3.4,7.7,3.3,11.5-.2,4.8-1.9,9.8-6.8,11.3a4.16,4.16,0,0,1-4.6-1.1c-1.4-1.7-1-3.7-.5-5.4.7-2.7,2.4-6.7.8-9.4-1.9-3.3-5.9-.3-7,1.9-.7,1.3-1.9,5.7-.1,6.8a75.37,75.37,0,0,0-4.1,15.5,19.87,19.87,0,0,0-.3,7.3,9.94,9.94,0,0,0,1,2.6c-.1.5.6.6.8.3,1.8-2.4,3.6-4.7,4.6-7.6a37.1,37.1,0,0,0,1-4.8,35.89,35.89,0,0,0,.8-3.5,13.07,13.07,0,0,0,5.5,2.5,11.89,11.89,0,0,0,8.6-2.1c.4-.3.7-.6,1.1-.9a11,11,0,0,0,2.9-2.8C38.32,21.35,36.62,11,31.12,5.05ZM6.62,24.85l.1.1c0,.1-.1.1-.1.2-.1-.1-.1-.2-.2-.2v-.2C6.52,24.75,6.52,24.75,6.62,24.85Zm-3.1-13.5c-.5.8-.8,1.6-1.2,2.4a20,20,0,0,1,1-2.6c.1,0,.1.1.2.1S3.52,11.25,3.52,11.35ZM31.32,8c-.1-.1-.2-.2-.3-.2l-.1-.1c0-.1-.1-.2-.1-.3.3.4.5.7.8,1.1C31.52,8.25,31.42,8.15,31.32,8Z"/></g></g></svg>