<svg xmlns="http://www.w3.org/2000/svg" viewBox="0 0 25.98 18.1"><title>yt-b</title><g id="Layer_2" data-name="Layer 2"><g id="Layer_1-2" data-name="Layer 1"><path d="M26,6.4v5.2a1.27,1.27,0,0,1-.1.6,25.35,25.35,0,0,1-.4,2.9,3.3,3.3,0,0,1-2.7,2.6,12.43,12.43,0,0,1-2.71.3c-4,0-7.89.1-11.89.1-1.6,0-3.31-.2-4.9-.3a3.14,3.14,0,0,1-2.2-1.3A4.38,4.38,0,0,1,.28,14a17.85,17.85,0,0,1-.2-2.3V6.5a.42.42,0,0,1,0-.5c.1-1,.2-2,.39-3a3.1,3.1,0,0,1,3-2.6c2-.1,4-.3,5.9-.3A98.57,98.57,0,0,1,22.68.4a2.94,2.94,0,0,1,2.6,1.9,10.55,10.55,0,0,1,.5,1.9C25.88,4.9,25.88,5.6,26,6.4Zm-8.1,2.4L9.58,4.5v8.6Z"/></g></g></svg>