<svg xmlns="http://www.w3.org/2000/svg" viewBox="0 0 987.19 1014.72"><defs><style>.cls-1{fill:#fff;}</style></defs><title>icon-contract</title><g id="Layer_2" data-name="Layer 2"><g id="_ÎÓÈ_1" data-name="—ÎÓÈ_1"><path class="cls-1" d="M985.65,320.81C982,305,972.26,290.14,958.73,281.65l-3.25-2,19.41-32.18a64.52,64.52,0,0,0,7.33-49c-7.17-28.69-34-49.56-63.54-49.56a65.07,65.07,0,0,0-55.4,31.23L757.78,354.84V18.24a17,17,0,0,0-17-17H265.2C249.87,1.27,231-3,216.84,4.12c-.27.13-.55.41-.82.54L34.41,143.13C17.32,156.15,0,162.14,0,186.2V997.75a16.89,16.89,0,0,0,17,17H740.81a16.89,16.89,0,0,0,17-17V711.94c0-21.82-33.94-22-33.94,0V980.78H33.94v-786h192.4a17,17,0,0,0,17-17V35.21h481s-1,371.23,0,373.39L634.22,559.46a16.57,16.57,0,0,0,.95,18.73L520.3,768.56a16.81,16.81,0,0,0-2.44,8.68l-.27,65.59-13,21.71c-10.75,17.91,14.59,35.76,29.05,17.66l12.9-21.45,60.15-29.19a16.49,16.49,0,0,0,7.06-6.52c25.49-44.56,103.69-170.73,114.95-190.37,6.78,1.4,13.5-2.17,17.16-7.87,21.47-33.4,183-302.32,191.95-318,.43-.4,31.14,16.18,11.31,36.14-7.89,7.94-39.37,33.8-63,81.6-16.28,33-15.89,62-15.88,63.27,0,21.9,34.26,21.3,33.94-.68,0-1.08.13-22.95,12.35-47.66,23.28-46.95,54.51-70.57,55-71C986.07,357.47,989.68,338.49,985.65,320.81Zm-776.28-160H67.21L209.37,52.46Zm378,642.37-35.71,17.24.13-38.29L663.55,597.07v-.14L699,618.38ZM725.46,594.62v.14L672.1,562.44l183.17-303.6,53.5,32.32Zm220.38-364.7L926.42,262.1l-53.5-32.18,19.42-32.32c8.55-14.12,26.34-20.09,43-9.91a30.77,30.77,0,0,1,14,18.88A31.27,31.27,0,0,1,945.84,229.92Z"/><path class="cls-1" d="M634.64,364.43H123.22a17,17,0,1,1,0-33.95H634.64a17,17,0,0,1,0,33.95Z"/><path class="cls-1" d="M378.93,570.07H123.22c-21.88,0-21.89-33.94,0-33.94h255.7C400.79,536.13,400.88,570.07,378.93,570.07Z"/><path class="cls-1" d="M582.86,467.24H123.22a17,17,0,1,1,0-33.94H582.86a17,17,0,1,1,0,33.94Z"/><path class="cls-1" d="M465.09,900.3H292c-21.2,0-22-33.94,0-33.94H465.09C486.89,866.36,487.1,900.3,465.09,900.3Z"/></g></g></svg>