<svg xmlns="http://www.w3.org/2000/svg" viewBox="0 0 713.43 504.15"><defs><style>.cls-1{fill:#fff;}</style></defs><title>icon-storage</title><g id="Layer_2" data-name="Layer 2"><g id="_ÎÓÈ_1" data-name="—ÎÓÈ_1"><path class="cls-1" d="M529.12,333.42l-2.44-5.87a9.85,9.85,0,0,0-9.09-6.06H478.34l-11.89-36.63a19.86,19.86,0,0,0-18.89-13.72H265.87A19.87,19.87,0,0,0,247,284.86l-11.89,36.63H195.84a9.85,9.85,0,0,0-9.09,6.06l-2.44,5.87a9.85,9.85,0,0,0,5.87,13.1l25.89,8.94-20.43,18.11a21.53,21.53,0,0,0-7.26,16.13V497.93h59.41V468.22H465.64v29.71h59.41V389.7a21.56,21.56,0,0,0-7.25-16.13l-20.44-18.11,25.89-8.94A9.85,9.85,0,0,0,529.12,333.42ZM267,416h-45.7a10.46,10.46,0,0,1-10.46-10.46v-9.88a10.47,10.47,0,0,1,12.68-10.23l45.69,9.88A10.46,10.46,0,0,1,267,416ZM248.19,344.9l17.56-54.07H447.68l17.56,54.07h-217Zm254.36,50.77v9.88A10.46,10.46,0,0,1,492.09,416H446.4a10.46,10.46,0,0,1-2.21-20.69l45.69-9.88A10.47,10.47,0,0,1,502.55,395.67Z"/><polygon class="cls-1" points="65.71 165.7 65.71 504.15 133.85 504.15 133.85 232.12 356.72 232.12 579.58 232.12 579.58 504.15 647.72 504.15 647.72 165.7 356.72 70.81 65.71 165.7"/><polygon class="cls-1" points="356.72 0 0 126.72 11.94 160.39 356.72 38.09 701.49 160.39 713.43 126.72 356.72 0"/></g></g></svg>