<svg enable-background="new 0 0 56.7 56.7" viewBox="0 0 56.7 56.7" xmlns="http://www.w3.org/2000/svg"><path d="m54.2 24.3v10.3c0 .4 0 .8-.2 1.2-.2 2-.4 4-.8 5.7-.6 2.8-2.8 4.8-5.3 5.1-1.8.4-3.6.6-5.3.6-7.9 0-15.6.2-23.6.2-3.2 0-6.5-.4-9.7-.6-1.8-.2-3.4-1.2-4.4-2.6s-1.6-3.2-1.6-4.9c-.2-1.6-.4-3-.4-4.6v-10.3c-.2-.4-.2-.6 0-1 .2-2 .4-4 .8-5.9.6-3 3-5.1 5.9-5.1 4-.2 7.9-.6 11.7-.6 8.7-.4 17.6-.2 26.3.6 2.4.2 4.4 1.6 5.1 3.8.4 1.2.8 2.4 1 3.8.3 1.3.3 2.7.5 4.3zm-16.1 4.7-16.4-8.5v17z" fill="#f8664e"/></svg>