<svg enable-background="new 0 0 612 792" viewBox="0 0 612 792" xmlns="http://www.w3.org/2000/svg"><path d="m89 14.7h434c41.4 0 74.9 30.6 74.9 74.9v433.9c0 44.4-33.6 74.9-74.9 74.9h-434c-41.4 0-74.9-30.6-74.9-74.9v-433.9c0-44.3 33.6-74.9 74.9-74.9zm350.1 64.8c-14.4 0-26.4 12-26.4 26.4v62.9c0 14.4 12 26.4 26.4 26.4h65.9c14.4 0 26.4-12 26.4-26.4v-62.9c0-14.4-12-26.4-26.4-26.4zm92.9 182.2h-51.5c4.8 15.6 7.2 33 7.2 50.3 0 97.1-81.5 175.6-181.6 175.6s-181.7-78.5-181.7-175.6c0-17.4 2.4-34.2 7.2-50.3h-53.4v246.3c0 12.6 10.2 23.4 23.4 23.4h406.4c12.6 0 23.4-10.2 23.4-23.4zm-225.4-70.2c-64.7 0-117.5 50.9-117.5 113.9s52.7 113.9 117.5 113.9 117.5-50.9 117.5-113.9c0-62.9-52.8-113.9-117.5-113.9z" fill="#fff"/></svg>