<svg enable-background="new 0 0 612 792" viewBox="0 0 612 792" xmlns="http://www.w3.org/2000/svg"><path d="m601 356.1v217.3h-126v-202.7c0-51-18.2-85.7-63.8-85.7-34.9 0-55.5 23.4-64.6 46.1-3.3 8.1-4.2 19.4-4.2 30.8v211.7h-126s1.6-343.5 0-379h126v53.7c-.3.4-.5.8-.8 1.2h.8v-1.2c16.8-25.8 46.6-62.6 113.6-62.6 82.8-.2 145 53.9 145 170.4zm-516.5-344.4c-43.1 0-71.3 28.3-71.3 65.5 0 36.4 27.3 65.5 69.7 65.5h.8c44 0 71.3-29.1 71.3-65.5-.9-37.2-27.4-65.5-70.5-65.5zm-63.8 561.7h126v-379h-126z" fill="#fff"/></svg>