<svg enable-background="new 0 0 612 792" viewBox="0 0 612 792" xmlns="http://www.w3.org/2000/svg"><g fill="#fff"><path d="m577.1 16.9h-544.3c-10.9 0-19.8 8.9-19.8 19.8v384.9c0 10.9 8.9 19.8 19.8 19.8h544.3c10.9 0 19.8-8.9 19.8-19.8v-384.9c0-10.9-8.9-19.8-19.8-19.8zm-19.8 384.9h-504.7v-345.3h504.7z"/><path d="m104.6 149.8 190.1 117.1c3.2 1.9 6.8 3 10.5 3s7.1-1 10.5-3l190.1-117.1c9.3-5.7 12.2-17.9 6.5-27.2s-17.9-12.2-27.2-6.5l-180.2 110.7-179.6-110.7c-9.3-5.7-21.5-2.9-27.2 6.5-5.9 9.3-2.9 21.5 6.5 27.2z"/></g></svg>