<?xml version="1.0" encoding="utf-8"?>
<!-- Generator: Adobe Illustrator 23.0.2, SVG Export Plug-In . SVG Version: 6.00 Build 0)  -->
<svg version="1.1" id="Layer_1" xmlns="http://www.w3.org/2000/svg" xmlns:xlink="http://www.w3.org/1999/xlink" x="0px" y="0px"
	 viewBox="0 0 612 506.6" style="enable-background:new 0 0 612 506.6;" xml:space="preserve">
<style type="text/css">
	.st0{fill:#FFFFFF;}
</style>
<path class="st0" d="M592.3,76.5c-21.1,9.4-43.7,15.7-67.5,18.5c24.2-14.5,42.9-37.6,51.6-64.9c-22.7,13.5-47.9,23.2-74.7,28.5
	c-21.4-22.8-51.9-37.1-85.7-37.1c-64.8,0-117.5,52.6-117.5,117.4c0,9.2,1,18.2,3.1,26.8c-97.5-4.9-184-51.7-242-122.8
	c-10.1,17.3-15.9,37.5-15.9,59c0,40.8,20.8,76.7,52.2,97.8c-19.3-0.7-37.3-5.9-53.2-14.8v1.5c0,56.9,40.5,104.4,94.2,115.2
	c-9.8,2.6-20.2,4.1-31,4.1c-7.6,0-14.9-0.7-22.1-2.2c15,46.7,58.3,80.7,109.8,81.6c-40.1,31.5-90.9,50.2-145.9,50.2
	c-9.4,0-18.8-0.6-28-1.6c52,33.4,113.7,52.9,180,52.9c216,0,334.2-179,334.2-334.2l-0.4-15.3C556.7,120.7,576.6,100,592.3,76.5
	L592.3,76.5z"/>
</svg>
