<svg xmlns="http://www.w3.org/2000/svg" xmlns:xlink="http://www.w3.org/1999/xlink" width="152" height="29" viewBox="0 0 152 29">
    <defs>
        <path id="prefix__a" d="M0 0.087L68.862 0.087 68.862 28.973 0 28.973z"/>
    </defs>
    <g fill="none" fill-rule="evenodd">
        <mask id="prefix__b" fill="#fff">
            <use xlink:href="#prefix__a"/>
        </mask>
        <path fill="#1A1919" d="M29.584 19.658l3.75-12.393 3.465 12.393h-7.215zM31.14.568l-8.201 26.345V.567h-8.146v11.98H8.147V.567H0v27.96h8.147V16.09h6.646v12.437h12.078l1.876-6.062h8.854l1.74 6.062h8.575L39.731.567H31.14zM58.312 16.236h4.053v6.883c0 2.239-1.009 3.361-3.025 3.361-1.716 0-2.877-.797-3.485-2.397-.612-1.598-.918-4.623-.918-9.076 0-4.766.294-8.059 1.133-9.77.703-1.437 1.928-2.184 4.165-2.268 2.793-.106 4.117 1.451 4.617 4.322l.105 1.296 3.66-.049C68.472 1.697 64.015-.052 59.3.095c-3.935.125-7.124 1.356-9.554 4.065-2.436 2.711-3.652 6.26-3.652 10.643 0 4.506 1.149 7.997 3.444 10.478C51.834 27.76 55.06 29 59.217 29c2.525 0 6.314-.947 6.314-.947 1.05-.274 1.155-.313 2.024-.605.838-.282 1.307-.362 1.307-.362v-14.39h-10.55v3.54" mask="url(#prefix__b)"/>
        <path fill="#1A1919" d="M78.17 16.564L86.644 16.564 86.644 13.018 78.17 13.018 78.17 4.546 88.252 4.546 88.252 1 70 1 70 29 89 29 89 25.455 78.17 25.455 78.17 16.564M98.697 14.24h-1.628V4.6h1.628c3.056 0 4.582 1.607 4.582 4.821 0 3.214-1.526 4.82-4.582 4.82zm11.199-5.05c.058-2.215-.875-4.766-2.488-6.21-1.395-1.25-3.336-1.98-6.45-1.98H89v28h8.07V17.271L103.24 29H112l-7.079-12.806c3.964-2.3 4.904-4.316 4.975-7.005zM148.757 1L143.63 14.498 137.932 1 110 1 110 3.811 116.912 3.811 116.912 29 125.524 29 125.524 3.811 130.704 3.811 137.052 18.663 137.052 29 145.168 29 145.168 18.663 152 1 148.757 1M149.063 26.298h.383c.322 0 .679-.02.679-.403s-.357-.403-.679-.397h-.383v.8zm-.525-1.243h1.103c.686 0 1.008.31 1.008.86 0 .497-.296.74-.686.787l.746 1.209h-.55l-.713-1.17h-.383v1.17h-.525v-2.856zm.962 3.502c1.136 0 2.057-.922 2.057-2.057 0-1.136-.921-2.057-2.057-2.057s-2.057.921-2.057 2.057c0 1.135.921 2.057 2.057 2.057zm0-4.557c1.377 0 2.5 1.122 2.5 2.5s-1.123 2.5-2.5 2.5c-1.378 0-2.5-1.122-2.5-2.5s1.122-2.5 2.5-2.5z"/>
    </g>
</svg>
