<svg enable-background="new 0 0 24 24" viewBox="0 0 24 24" xmlns="http://www.w3.org/2000/svg" xmlns:xlink="http://www.w3.org/1999/xlink"><clipPath id="a"><path d="m5.7 10.8c-1.5 0-2.7-1.2-2.7-2.7 0-1.4 1-2.5 2.3-2.7v-3.2h.8v3.2c1.3.2 2.3 1.3 2.3 2.7.1 1.5-1.2 2.7-2.7 2.7zm12.6 1.6c-1.5 0-2.7-1.2-2.7-2.7 0-1.4 1-2.5 2.3-2.7v-4.8h.8v4.7c1.3.2 2.3 1.4 2.3 2.8 0 1.5-1.2 2.7-2.7 2.7zm-6.3 5.5c-1.5 0-2.7-1.2-2.7-2.7 0-1.4 1-2.5 2.3-2.7v-10.3h.8v10.2c1.3.2 2.3 1.3 2.3 2.7 0 1.5-1.2 2.8-2.7 2.8zm-5.9 3.9h-.8v-10.2h.8zm6.3 0h-.8v-3.1h.8zm6.3 0h-.8v-8.6h.8z"/></clipPath><path d="m0 0h24v24h-24z" fill="none"/><path clip-path="url(#a)" d="m-.9-1.7h25.8v27.4h-25.8z" fill="#fff"/></svg>