<svg xmlns="http://www.w3.org/2000/svg" viewBox="0 0 49.9 40.8"><title>twitter-b</title><g id="Layer_2" data-name="Layer 2"><g id="Layer_1-2" data-name="Layer 1"><path d="M49.9,4.7A22.4,22.4,0,0,1,44,6.4,10.55,10.55,0,0,0,48.5.7,21.6,21.6,0,0,1,42,3.3,10.1,10.1,0,0,0,34.5,0,10.29,10.29,0,0,0,24.3,10.4a17.48,17.48,0,0,0,.3,2.4A29.72,29.72,0,0,1,3.5,1.8,10.17,10.17,0,0,0,2.2,7.1a10.33,10.33,0,0,0,4.5,8.6A8.63,8.63,0,0,1,2,14.3v.2a10.31,10.31,0,0,0,8.3,10.1,8.31,8.31,0,0,1-2.7.3,6.8,6.8,0,0,1-2-.2,10.43,10.43,0,0,0,9.6,7.2A21.07,21.07,0,0,1,2.4,36.3,9,9,0,0,1,0,36.1a29.08,29.08,0,0,0,15.8,4.7c18.9,0,29.3-15.8,29.3-29.4V10A27.64,27.64,0,0,0,49.9,4.7Z"/></g></g></svg>