<svg enable-background="new -208 299.2 194.8 194.8" viewBox="-208 299.2 194.8 194.8" xmlns="http://www.w3.org/2000/svg"><path d="m-59.6 323c-24.5-26.6-65.8-24.9-93.3-4.3-23.4 17.5-40 56.4-20.3 82.9 4 5.4 9.9 8.7 16.4 10.1 1.7.4 3.1-.5 3.8-2.1 1.3-3.5 2.7-6.9 3-10.7.1-1.4-1-2.3-2.3-2.3-17.9-19.6-5.7-44 11.7-59.1 15.4-13.3 43.6-25.8 61.7-10.5 12.5 10.6 13.4 30.4 12.8 45.4-.8 18.8-7.3 38.6-26.8 44.6-6.4 2-13.8 1.2-18.1-4.5-4.8-6.4-3.3-14.1-1.4-21.1 2.8-10.8 9.5-26.2 3.2-36.9-7.6-13-23-1.2-27.4 7.6-2.7 5.3-7.6 22.4-.4 26.8-7.6 19.3-12.8 40.5-16.3 60.9-1.6 9.2-3 19.2-1.3 28.5.1.5 2.1 7.4 4 10.1-.3 1.8 2.3 2.4 3.3 1 7-9.4 14.2-18.4 18.1-29.7 2.1-6 2.8-12.5 4.1-18.7.9-4.3 2.6-9.2 3.1-13.9h.1c6.1 4.7 14.2 8.6 21.5 10 11.3 2.2 24.7-2 34-8.4 1.4-1 2.8-2.2 4.2-3.5 4.3-2.9 8.2-6.6 11.5-11.2 19.2-26.9 12.7-67.5-8.9-91zm-96.6 78c.2.2.3.3.5.4-.1.2-.2.4-.3.7-.2-.3-.5-.6-.7-.9.1-.3 0-.6 0-.8.1.2.3.4.5.6zm-12-53.2c-1.8 3.1-3.3 6.3-4.6 9.6 1-3.6 2.3-7 4-10.3.2.1.5.2.8.2 0 .2-.1.4-.2.5zm109.2-13.3c-.3-.4-.6-.7-1-.9-.1-.1-.2-.2-.3-.3-.1-.4-.3-.8-.4-1.2 1.1 1.4 2.1 2.8 3.1 4.3-.4-.6-.9-1.2-1.4-1.9z" fill="#fff"/></svg>