<svg enable-background="new 0 342 612 108" viewBox="0 342 612 108" xmlns="http://www.w3.org/2000/svg"><path d="m21.9 398c-1.2.9-2.8 1.5-5.1 1.5h-4.2v7.2h-4.1v-20h8.6c2 0 3.6.6 4.7 1.6 1.2 1 1.7 2.6 1.7 4.8.1 2.3-.4 3.9-1.6 4.9zm-3.2-7.2c-.6-.5-1.3-.6-2.2-.6h-3.8v5.9h3.8c.9 0 1.7-.2 2.2-.7.6-.5.8-1.3.8-2.3 0-1.1-.3-1.8-.8-2.3z" fill="#f0efef"/><path d="m42.4 405c-1.5 1.6-3.7 2.4-6.6 2.4-2.8 0-5.1-.8-6.6-2.4-2.1-1.9-3.1-4.7-3.1-8.3s1-6.4 3.1-8.3c1.5-1.6 3.7-2.4 6.6-2.4 2.8 0 5.1.8 6.6 2.4 2.1 1.8 3 4.6 3 8.3 0 3.6-.9 6.3-3 8.3zm-2.6-3.1c.9-1.2 1.4-3 1.4-5.2s-.5-4-1.4-5.2c-.9-1.3-2.3-1.8-4-1.8s-3 .6-4 1.8-1.5 3-1.5 5.2c0 2.3.5 4 1.5 5.2.9 1.2 2.3 1.8 4 1.8s3.1-.6 4-1.8z" fill="#f0efef"/><path d="m51.4 386.7 2.6 11.5.6 3.2.6-3.2 2.3-11.5h4.4l2.4 11.5.6 3.2.6-3.1 2.7-11.6h4.3l-5.6 20.1h-4l-2.5-11.7-.7-3.9-.7 3.9-2.5 11.7h-3.9l-5.7-20.1z" fill="#f0efef"/><path d="m89.8 390.2h-10.6v4.3h9.7v3.5h-9.7v5.1h11.1v3.6h-15.2v-20h14.7z" fill="#f0efef"/><path d="m106.4 387.2c.7.3 1.3.8 1.9 1.4.4.5.8 1.1 1 1.7s.4 1.3.4 2.1c0 .9-.2 1.9-.7 2.8s-1.3 1.6-2.4 2c.9.4 1.6.9 2 1.6s.6 1.7.6 3.2v1.3c0 .9 0 1.5.1 1.9.1.6.4.9.8 1.1v.5h-4.6c-.2-.5-.2-.8-.2-1.1-.1-.6-.2-1.1-.2-1.7v-2c0-1.3-.2-2.1-.6-2.5s-1.2-.6-2.4-.6h-4.1v7.8h-4.1v-20h9.6c1.1 0 2.2.2 2.9.5zm-8.7 3v5.4h4.5c.9 0 1.6-.1 2-.3.8-.4 1.2-1.1 1.2-2.3s-.4-2.1-1.2-2.5c-.4-.2-1.1-.3-2-.3z" fill="#f0efef"/><path d="m128.4 390.2h-10.6v4.3h9.7v3.5h-9.7v5.1h11.1v3.6h-15.2v-20h14.7z" fill="#f0efef"/><path d="m143.9 387.1c1.4.5 2.5 1.3 3.4 2.5.7 1 1.2 2.1 1.4 3.2.2 1.2.4 2.3.4 3.3 0 2.7-.6 4.9-1.6 6.8-1.4 2.5-3.7 3.7-6.7 3.7h-8.6v-20h8.6c1.3.1 2.3.3 3.1.5zm-7.6 3.1v13h3.9c2 0 3.3-.9 4.1-2.9.4-1.1.6-2.4.6-3.8 0-2.1-.3-3.6-.9-4.7s-1.9-1.7-3.8-1.7c-.1.1-3.9.1-3.9.1z" fill="#f0efef"/><path d="m175 388.8c.6.9.9 1.9.9 3.1s-.3 2.2-.9 2.9c-.3.4-.9.8-1.5 1.1 1 .4 1.8.9 2.3 1.7.6.8.8 1.8.8 2.9 0 1.2-.3 2.2-.9 3.2-.4.6-.9 1.2-1.4 1.6-.6.5-1.4.8-2.3 1s-1.8.2-2.8.2h-9v-19.9h9.7c2.4.1 4.1.8 5.1 2.2zm-10.8 1.4v4.4h4.9c.9 0 1.6-.2 2.1-.5.6-.3.8-.9.8-1.7 0-.9-.4-1.6-1.1-1.8-.6-.2-1.4-.3-2.4-.3zm0 7.7v5.4h4.9c.9 0 1.6-.1 2.1-.3.9-.5 1.3-1.3 1.3-2.5 0-1-.4-1.7-1.3-2.1-.5-.2-1.1-.3-2-.3z" fill="#f0efef"/><path d="m191.6 386.7h4.7l-6.6 12.5v7.5h-4.2v-7.5l-7-12.6h4.9l4.2 8.7z" fill="#f0efef"/><path d="m233.2 392.9 12.3 12.3s14.1-7.9 20.9-14.8c11.9-11.9 14-32.4 14-32.4s-20.4 2-32.4 14c-6.9 6.9-14.8 20.9-14.8 20.9z" fill="#efeeee"/><path d="m230.9 396.1c-2.5 3.6-4.1 5.9-4.1 5.9s3 3 4.7 4.7c1.8 1.8 4.7 4.7 4.7 4.7s2.4-1.6 5.9-4.1z" fill="#efeeee"/><path d="m208.9 421.5h3.2v3.2h-3.2z" fill="#f49824" transform="matrix(.7071 .7071 -.7071 .7071 360.8106 -24.9307)"/><path d="m220.1 429.4-2.1-2.1-2.1 2.1-2.3-2.3 4.3-4.3-2.3-2.3 2.1-2.1-2.2-2.2 2.2-2.2-2.1-2.1 6.5-6.5 2.1 2.1 2.2-2.3 6.8 6.8-2.2 2.2 2.1 2.2-2.1 2.2 2.1 2.1-6.5 6.6-2.2-2.2z" fill="#f49824"/><path d="m208.1 427.8h3.2v3.2h-3.2z" fill="#f49824" transform="matrix(.7071 .7071 -.7071 .7071 365.0354 -22.5557)"/><path d="m221.8 431.8h3.2v3.2h-3.2z" fill="#f49824" transform="matrix(-.7071 .7071 -.7071 -.7071 687.836 581.9262)"/><path d="m208.1 432.3h3.2v3.2h-3.2z" fill="#f49824" transform="matrix(.7071 .7071 -.7071 .7071 368.2363 -21.2298)"/><g fill="#efeeee"><path d="m238.2 379.9-13.6 2.5-11.2 9.3 16.9-.2c.3-.5 4.4-6.8 7.9-11.6z"/><path d="m258.5 400.2-2.5 13.6-9.3 11.2.2-16.9c.5-.3 6.8-4.4 11.6-7.9z"/><path d="m306.2 388.5c0-1.5-.5-2.6-1.3-3.4s-2.2-1.2-4-1.2c-1.7 0-3.1.3-4.2.8s-1.6 1.4-1.6 2.6c0 .8.3 1.4 1 1.9.6.5 1.8 1 3.4 1.5l4.7 1.5c1.2.4 2.4.9 3.5 1.4 1.1.6 2.1 1.2 2.9 2s1.5 1.6 1.9 2.7c.5 1 .7 2.3.7 3.8 0 2.1-.5 3.9-1.4 5.4-1 1.5-2.2 2.7-3.8 3.6s-3.3 1.6-5.2 2-3.9.6-5.9.6c-1.7 0-3.4-.2-5.1-.5-1.7-.4-3.3-1-4.7-1.8s-2.6-1.9-3.5-3.3-1.3-3.1-1.3-5v-1.4h8.8v1.1c0 .8.2 1.5.6 2.1s.9 1.1 1.6 1.4c.6.4 1.4.7 2.2.9s1.6.3 2.4.3c.7 0 1.4-.1 2.1-.2s1.3-.4 1.9-.7 1-.8 1.4-1.3.5-1.2.5-2c0-1.2-.3-2-.9-2.5s-1.4-.9-2.5-1.3l-7.2-2.3c-1.2-.4-2.2-.8-3.2-1.3-.9-.4-1.7-1-2.3-1.7s-1.1-1.5-1.5-2.4c-.3-1-.5-2.1-.5-3.4 0-2 .5-3.7 1.4-5.1 1-1.4 2.2-2.5 3.7-3.4s3.1-1.5 4.9-1.9 3.5-.6 5.2-.6c1.9 0 3.7.2 5.4.5s3.2.9 4.5 1.7 2.3 1.9 3.1 3.4c.8 1.4 1.1 3.2 1.1 5.4h-8.8z"/><path d="m320.6 378.5h9.1l-.9 4.3.1.1c1.1-1.9 2.5-3.2 4.4-4.1 1.8-.8 3.8-1.3 5.9-1.3 4.2 0 7.4 1.2 9.6 3.7 2.3 2.4 3.4 5.7 3.4 9.9 0 2.8-.4 5.6-1.1 8.3-.8 2.7-1.9 5.1-3.5 7.2s-3.5 3.8-5.8 5.1-5.1 2-8.3 2c-1 0-2-.1-3-.3s-1.9-.6-2.8-1-1.6-1-2.3-1.7-1.2-1.5-1.6-2.5h-.2l-3 13.9-10 2.7zm15.5 6.2c-1.8 0-3.3.5-4.6 1.4-1.3 1-2.4 2.2-3.2 3.6-.9 1.5-1.5 3-1.9 4.7s-.6 3.3-.6 4.7c0 2.2.6 4 1.7 5.4s2.8 2.1 5.1 2.1c1.8 0 3.3-.5 4.6-1.4s2.4-2.1 3.2-3.5 1.5-3 1.9-4.6c.4-1.7.6-3.3.6-4.8 0-1-.1-2-.4-2.9s-.7-1.7-1.3-2.4-1.3-1.2-2.1-1.7c-1-.4-1.9-.6-3-.6z"/><path d="m362.3 398c0 .4-.1.8-.1 1.1v.9c0 2 .6 3.6 1.9 4.8 1.2 1.2 3.1 1.9 5.7 1.9.9 0 1.8-.1 2.5-.4s1.4-.7 1.9-1.1c.6-.4 1-1 1.5-1.5.4-.6.8-1.1 1.2-1.7h9.4c-.8 1.9-1.6 3.7-2.7 5.1-1 1.5-2.2 2.7-3.7 3.7-1.4 1-3.1 1.7-4.9 2.3-1.9.5-4.1.8-6.5.8-2.3 0-4.4-.3-6.3-1-1.9-.6-3.5-1.6-4.8-2.9s-2.4-2.8-3.1-4.7-1.1-4-1.1-6.5c0-2.7.4-5.4 1.3-7.9s2.1-4.8 3.8-6.8c1.6-2 3.6-3.5 5.9-4.7s5-1.8 7.9-1.8c2.4 0 4.6.3 6.5.9 2 .6 3.7 1.6 5 2.8 1.4 1.3 2.5 2.8 3.3 4.7s1.2 4.1 1.2 6.5c0 1.8-.2 3.6-.5 5.4h-25.3zm16.7-6c0-.9-.1-1.8-.2-2.6-.2-.9-.5-1.6-.9-2.4-.4-.7-1.1-1.3-1.9-1.7s-1.9-.6-3.3-.6c-1.3 0-2.5.2-3.5.6s-1.9.9-2.7 1.6-1.4 1.4-1.9 2.3-.9 1.8-1.3 2.8z"/><path d="m397.8 398c0 .4-.1.8-.1 1.1v.9c0 2 .6 3.6 1.9 4.8 1.2 1.2 3.1 1.9 5.7 1.9.9 0 1.8-.1 2.5-.4s1.4-.7 1.9-1.1c.6-.4 1-1 1.5-1.5.4-.6.8-1.1 1.2-1.7h9.4c-.8 1.9-1.6 3.7-2.7 5.1-1 1.5-2.2 2.7-3.7 3.7-1.4 1-3.1 1.7-4.9 2.3-1.9.5-4.1.8-6.5.8-2.3 0-4.4-.3-6.3-1-1.9-.6-3.5-1.6-4.8-2.9s-2.4-2.8-3.1-4.7-1.1-4-1.1-6.5c0-2.7.4-5.4 1.3-7.9s2.1-4.8 3.8-6.8c1.6-2 3.6-3.5 5.9-4.7s5-1.8 7.9-1.8c2.4 0 4.6.3 6.5.9 2 .6 3.7 1.6 5 2.8 1.4 1.3 2.5 2.8 3.3 4.7s1.2 4.1 1.2 6.5c0 1.8-.2 3.6-.5 5.4h-25.3zm16.7-6c0-.9-.1-1.8-.2-2.6-.2-.9-.5-1.6-.9-2.4-.4-.7-1.1-1.3-1.9-1.7s-1.9-.6-3.3-.6c-1.3 0-2.5.2-3.5.6s-1.9.9-2.7 1.6-1.4 1.4-1.9 2.3-.9 1.8-1.3 2.8z"/><path d="m447.6 408.6-.1-.1c-1.1 1.9-2.5 3.2-4.4 4.1-1.8.8-3.8 1.3-5.9 1.3-4.2 0-7.4-1.2-9.7-3.7-2.3-2.4-3.4-5.7-3.4-9.9 0-2.8.4-5.6 1.1-8.3.8-2.7 1.9-5.1 3.5-7.2 1.5-2.1 3.5-3.8 5.8-5.1s5.1-2 8.3-2c1 0 2 .1 3 .3s1.9.6 2.8 1 1.6 1 2.3 1.7 1.2 1.5 1.6 2.5h.1l2.8-13.2 10.4-4.5-10 47.4h-9.1zm-3.8-23.9c-1.8 0-3.3.5-4.6 1.4s-2.4 2.1-3.2 3.5-1.5 3-1.9 4.6c-.4 1.7-.6 3.3-.6 4.8 0 1 .1 2 .4 2.9s.7 1.7 1.3 2.5c.6.7 1.3 1.3 2.1 1.7s1.8.6 2.9.6c1.8 0 3.3-.5 4.6-1.4 1.3-1 2.4-2.2 3.2-3.6.9-1.5 1.5-3 1.9-4.7s.6-3.3.6-4.7c0-2.2-.6-4-1.7-5.4-.9-1.5-2.7-2.2-5-2.2z"/><path d="m499.1 365.4-10.1 47.4h-2.5l1.8-7.6-.1-.1c-1.3 2.7-3 4.7-5.1 6.3-2.1 1.5-4.7 2.3-7.8 2.3-2.1 0-4-.4-5.6-1.1s-3-1.7-4.1-2.9-1.9-2.7-2.4-4.3-.8-3.3-.8-5.1c0-2.6.4-5.2 1.2-7.8.8-2.7 1.9-5.1 3.5-7.2s3.5-3.9 5.8-5.2c2.3-1.4 5-2 8.1-2 2.9 0 5.4.8 7.4 2.4s3.2 3.8 3.5 6.6h.1l4.6-21.5h2.5zm-23.4 46c2.4 0 4.6-.7 6.5-2.1s3.4-3.2 4.7-5.3c1.2-2.1 2.2-4.4 2.8-6.9s1-4.8 1-7c0-1.2-.2-2.5-.6-3.7s-1-2.3-1.8-3.3-1.8-1.7-3-2.3-2.5-.9-4-.9c-2.7 0-5.1.6-7.1 1.9-2 1.2-3.8 2.8-5.1 4.7-1.4 1.9-2.4 4-3.2 6.3-.7 2.3-1.1 4.5-1.1 6.7 0 1.5.2 3 .5 4.4s.9 2.7 1.7 3.8 1.9 2 3.3 2.6c1.4.8 3.2 1.1 5.4 1.1z"/><path d="m502.3 378.7h2.5l-7.1 34.1h-2.5zm2.8-13.3h2.5l-1.4 6.8h-2.5z"/><path d="m505.7 415.2c0 2.8.9 4.9 2.6 6.3s4 2.1 6.8 2.1c2.4 0 4.4-.3 6-1 1.6-.6 2.9-1.5 4-2.6 1-1.1 1.9-2.4 2.5-4 .6-1.5 1.1-3.2 1.5-4.9l1.5-6.8h-.1c-1.3 2.3-2.9 4-4.9 5.2s-4.4 1.9-7.1 1.9c-2.1 0-4-.3-5.6-1s-2.9-1.6-4-2.9c-1-1.2-1.8-2.7-2.3-4.4s-.8-3.6-.8-5.6c0-2.4.4-4.8 1.1-7.1.8-2.4 1.8-4.5 3.3-6.4 1.4-1.9 3.2-3.4 5.3-4.5 2.1-1.2 4.5-1.7 7.1-1.7 1.5 0 2.9.2 4.3.7s2.6 1.1 3.6 1.9 1.9 1.8 2.5 3 1 2.5 1 3.9h.1l1.9-8.7h2.5l-7 32.5c-.5 2.3-1.1 4.4-1.9 6.2s-1.8 3.3-3.2 4.6c-1.3 1.3-2.9 2.2-4.8 2.9-1.9.6-4.2 1-6.9 1-1.6 0-3.2-.2-4.6-.7s-2.7-1.2-3.7-2.1-1.8-2-2.4-3.3-.8-2.8-.7-4.5zm16.9-35.1c-2.3 0-4.3.5-6.1 1.6-1.8 1-3.3 2.4-4.5 4.1s-2.1 3.5-2.8 5.6c-.6 2.1-1 4.1-1 6.2 0 3.7.8 6.6 2.5 8.7s4.4 3.2 8.1 3.2c2.3 0 4.3-.6 6-1.8s3.2-2.7 4.4-4.4c1.2-1.8 2-3.8 2.6-5.9.6-2.2.9-4.3.9-6.2 0-2.1-.4-3.8-1.1-5.2s-1.6-2.5-2.6-3.4c-1-.8-2.1-1.4-3.3-1.8-1.1-.5-2.2-.7-3.1-.7z"/><path d="m543.7 378.7h2.5l-7.1 34.1h-2.5zm2.8-13.3h2.5l-1.4 6.8h-2.5z"/><path d="m547.3 378.7h6.3l2.4-10.7h2.5l-2.3 10.7h7.3l-.5 2.2h-7.2l-5.2 23.8c0 .1-.1.3-.1.6s-.1.6-.2.9-.1.7-.2 1c0 .3-.1.5-.1.7 0 1 .3 1.7.9 2.2s1.6.7 3 .7c1.2 0 2.5-.1 3.8-.2l-.5 2.2c-.4 0-1 0-1.8.1s-1.5.1-2.3.1c-2 0-3.4-.4-4.3-1.3s-1.3-2.1-1.3-3.8c0-.4.1-1 .2-1.6s.2-1.2.3-1.7l5.2-23.6h-6.4z"/><path d="m563.9 388.5c.9-3.8 2.6-6.5 5.1-8.2 2.5-1.6 5.7-2.5 9.6-2.5.8 0 1.9.1 3.1.3s2.4.6 3.5 1.2 2 1.4 2.8 2.5c.8 1 1.2 2.4 1.2 4.2 0 .8-.1 1.7-.3 3-.2 1.2-.5 2.4-.7 3.6-.3 1.2-.5 2.3-.8 3.3-.2 1-.4 1.6-.4 1.9-.2.9-.5 1.9-.7 2.9-.3 1.1-.5 2.1-.7 3.1s-.4 2-.6 2.8c-.2.9-.2 1.5-.2 2 0 .6.2 1.1.5 1.6.3.4.8.6 1.4.6.4 0 .7 0 1.1-.1s.8-.2 1.1-.3l-.4 2.3c-.5.1-1 .2-1.5.3-.5 0-1 .1-1.4.1-1.2 0-2-.4-2.5-1.2s-.8-1.6-.8-2.3c0-.4.1-.8.2-1.4s.2-1.1.3-1.5h-.1c-.7 1.2-1.5 2.3-2.5 3.2s-2.1 1.6-3.3 2.2-2.3 1-3.6 1.3c-1.2.3-2.4.4-3.5.4-1.5 0-2.8-.2-4.1-.5s-2.4-.9-3.4-1.6-1.7-1.7-2.3-2.8c-.6-1.2-.8-2.6-.8-4.3 0-2.2.4-3.9 1.3-5.3.8-1.4 2-2.4 3.4-3.2s3-1.3 4.8-1.6 3.7-.5 5.6-.5c2.4-.1 4.4-.3 6-.5s2.9-.6 3.9-1.1 1.7-1.2 2.1-2 .6-1.9.6-3.2c0-2.1-.7-3.8-2-5.1s-3.5-1.9-6.6-1.9-5.6.7-7.5 2c-1.9 1.4-3.3 3.5-4.1 6.4h-2.8zm21.4 5.1h-.1c-.5.5-1.2.9-2.1 1.2s-1.8.5-2.9.7c-1 .2-2 .3-3.1.4-1 .1-1.9.2-2.6.2-1.6 0-3.2.2-4.7.3-1.6.2-2.9.6-4.2 1.1-1.2.6-2.2 1.4-3 2.5s-1.1 2.6-1.1 4.4c0 1.3.2 2.4.7 3.3s1.1 1.6 1.9 2.2 1.7 1 2.8 1.2c1 .2 2.1.4 3.3.4 2 0 3.8-.4 5.3-1.1s2.8-1.7 3.9-2.9 2-2.6 2.7-4.2 1.3-3.3 1.8-5z"/><path d="m600.1 365.4h2.5l-9.9 47.4h-2.5z"/></g></svg>